<svg xmlns="http://www.w3.org/2000/svg" xmlns:xlink="http://www.w3.org/1999/xlink" viewBox="0 0 840 1800"><defs><filter id="b" filterUnits="userSpaceOnUse"><feOffset dy="2"/><feGaussianBlur result="blur" stdDeviation="3"/><feFlood flood-opacity=".5"/><feComposite in2="blur" operator="in"/><feComposite in="SourceGraphic"/></filter><filter id="s" filterUnits="userSpaceOnUse"><feOffset dy="2"/><feGaussianBlur result="blur-2" stdDeviation="3"/><feFlood flood-opacity=".5"/><feComposite in2="blur-2" operator="in"/><feComposite in="SourceGraphic"/></filter><filter id="r" filterUnits="userSpaceOnUse"><feOffset dy="2"/><feGaussianBlur result="blur-3" stdDeviation="3"/><feFlood flood-opacity=".5"/><feComposite in2="blur-3" operator="in"/><feComposite in="SourceGraphic"/></filter><filter id="q" filterUnits="userSpaceOnUse"><feOffset dy="2"/><feGaussianBlur result="blur-4" stdDeviation="3"/><feFlood flood-opacity=".5"/><feComposite in2="blur-4" operator="in"/><feComposite in="SourceGraphic"/></filter><filter id="p" filterUnits="userSpaceOnUse"><feOffset dy="2"/><feGaussianBlur result="blur-5" stdDeviation="3"/><feFlood flood-opacity=".5"/><feComposite in2="blur-5" operator="in"/><feComposite in="SourceGraphic"/></filter><filter id="o" filterUnits="userSpaceOnUse"><feOffset dy="2"/><feGaussianBlur result="blur-6" stdDeviation="3"/><feFlood flood-opacity=".5"/><feComposite in2="blur-6" operator="in"/><feComposite in="SourceGraphic"/></filter><filter id="n" filterUnits="userSpaceOnUse"><feOffset dy="2"/><feGaussianBlur result="blur-7" stdDeviation="3"/><feFlood flood-opacity=".5"/><feComposite in2="blur-7" operator="in"/><feComposite in="SourceGraphic"/></filter><filter id="m" filterUnits="userSpaceOnUse"><feOffset dy="2"/><feGaussianBlur result="blur-8" stdDeviation="3"/><feFlood flood-opacity=".5"/><feComposite in2="blur-8" operator="in"/><feComposite in="SourceGraphic"/></filter><filter id="l" filterUnits="userSpaceOnUse"><feOffset dy="2"/><feGaussianBlur result="blur-9" stdDeviation="3"/><feFlood flood-opacity=".5"/><feComposite in2="blur-9" operator="in"/><feComposite in="SourceGraphic"/></filter><filter id="k" filterUnits="userSpaceOnUse"><feOffset dy="2"/><feGaussianBlur result="blur-10" stdDeviation="3"/><feFlood flood-opacity=".5"/><feComposite in2="blur-10" operator="in"/><feComposite in="SourceGraphic"/></filter><filter id="j" filterUnits="userSpaceOnUse"><feOffset dy="2"/><feGaussianBlur result="blur-11" stdDeviation="3"/><feFlood flood-opacity=".5"/><feComposite in2="blur-11" operator="in"/><feComposite in="SourceGraphic"/></filter><filter id="i" filterUnits="userSpaceOnUse"><feOffset dy="2"/><feGaussianBlur result="blur-12" stdDeviation="3"/><feFlood flood-opacity=".5"/><feComposite in2="blur-12" operator="in"/><feComposite in="SourceGraphic"/></filter><filter id="h" filterUnits="userSpaceOnUse"><feOffset dy="2"/><feGaussianBlur result="blur-13" stdDeviation="3"/><feFlood flood-opacity=".5"/><feComposite in2="blur-13" operator="in"/><feComposite in="SourceGraphic"/></filter><filter id="g" filterUnits="userSpaceOnUse"><feOffset dy="2"/><feGaussianBlur result="blur-14" stdDeviation="3"/><feFlood flood-opacity=".5"/><feComposite in2="blur-14" operator="in"/><feComposite in="SourceGraphic"/></filter><filter id="f" filterUnits="userSpaceOnUse"><feOffset dy="2"/><feGaussianBlur result="blur-15" stdDeviation="3"/><feFlood flood-opacity=".5"/><feComposite in2="blur-15" operator="in"/><feComposite in="SourceGraphic"/></filter><filter id="e" filterUnits="userSpaceOnUse"><feOffset dy="2"/><feGaussianBlur result="blur-16" stdDeviation="3"/><feFlood flood-opacity=".5"/><feComposite in2="blur-16" operator="in"/><feComposite in="SourceGraphic"/></filter><filter id="d" filterUnits="userSpaceOnUse"><feOffset dy="2"/><feGaussianBlur result="blur-17" stdDeviation="3"/><feFlood flood-opacity=".5"/><feComposite in2="blur-17" operator="in"/><feComposite in="SourceGraphic"/></filter><filter id="c" filterUnits="userSpaceOnUse"><feOffset dy="2"/><feGaussianBlur result="blur-18" stdDeviation="3"/><feFlood flood-opacity=".5"/><feComposite in2="blur-18" operator="in"/><feComposite in="SourceGraphic"/></filter><linearGradient id="a" x1="31.5" x2="248.5" y1="420.9" y2="479.1" data-name="4xx/5xx" gradientUnits="userSpaceOnUse"><stop offset=".4" stop-color="#e0af46"/><stop offset=".6" stop-color="#e05246"/></linearGradient><linearGradient xlink:href="#a" id="x" x2="248.5" y1="600.9" y2="659.1" data-name="4xx/5xx"/><linearGradient xlink:href="#a" id="w" x1="31.5" x2="248.5" y1="780.9" y2="839.1" data-name="4xx/5xx"/><linearGradient xlink:href="#a" id="v" x1="31.5" x2="248.5" y1="960.9" y2="1019.1" data-name="4xx/5xx"/><linearGradient xlink:href="#a" id="u" x1="31.5" x2="248.5" y1="1320.9" y2="1379.1" data-name="4xx/5xx"/><linearGradient xlink:href="#a" id="t" x1="31.5" x2="248.5" y1="1500.9" y2="1559.1" data-name="4xx/5xx"/><style>.cls-1{filter:url(#q)}.cls-2{fill:#e05246}.cls-3{fill:#fff}.cls-4{fill:url(#x)}.cls-5{filter:url(#c)}.cls-6{filter:url(#d)}.cls-7{fill:#effbfc}.cls-8{filter:url(#r)}.cls-9{filter:url(#s)}.cls-10{fill:url(#u)}.cls-11{fill:url(#w)}.cls-12{filter:url(#j)}.cls-13{filter:url(#l)}.cls-14{filter:url(#f)}.cls-15{filter:url(#g)}.cls-16{fill:#bdbdbd}.cls-17{filter:url(#m)}.cls-18{filter:url(#p)}.cls-19{fill:#e0af46}.cls-20{filter:url(#h)}.cls-21{filter:url(#k)}.cls-22{fill:#08c6d6}.cls-23{filter:url(#o)}.cls-24{filter:url(#n)}.cls-25{filter:url(#b)}.cls-26{fill:url(#v)}.cls-27{filter:url(#i)}.cls-28{fill:url(#a)}.cls-29{fill:url(#t)}.cls-30{filter:url(#e)}.cls-31{fill:#0d0e59}</style></defs><path d="M400 273h-5v-5h5v5zm-13 0h-5v-5h5v5zm-13 0h-5v-5h5v5zm-13 0h-5v-5h5v5zm-13 0h-5v-5h5v5zm-13 0h-5v-5h5v5zm-13 0h-5v-5h5v5zm-13 0h-5v-5h5v5zm-13 0h-5v-5h5v5zm-13 0h-5v-5h5v5zm-13 0h-1v-5h1v5z" class="cls-2"/><path d="m271 264-11 6 11 6zM400 453h-5v-5h5v5zm-13 0h-5v-5h5v5zm-13 0h-5v-5h5v5zm-13 0h-5v-5h5v5zm-13 0h-5v-5h5v5zm-13 0h-5v-5h5v5zm-13 0h-5v-5h5v5zm-13 0h-5v-5h5v5zm-13 0h-5v-5h5v5zm-13 0h-5v-5h5v5zm-13 0h-1v-5h1v5z" class="cls-2"/><path d="m271 444-11 6 11 6zM400 633h-5v-5h5v5zm-13 0h-5v-5h5v5zm-13 0h-5v-5h5v5zm-13 0h-5v-5h5v5zm-13 0h-5v-5h5v5zm-13 0h-5v-5h5v5zm-13 0h-5v-5h5v5zm-13 0h-5v-5h5v5zm-13 0h-5v-5h5v5zm-13 0h-5v-5h5v5zm-13 0h-1v-5h1v5z" class="cls-2"/><path d="m271 624-11 6 11 6zM400 1173h-5v-5h5v5zm-13 0h-5v-5h5v5zm-13 0h-5v-5h5v5zm-13 0h-5v-5h5v5zm-13 0h-5v-5h5v5zm-13 0h-5v-5h5v5zm-13 0h-5v-5h5v5zm-13 0h-5v-5h5v5zm-13 0h-5v-5h5v5zm-13 0h-5v-5h5v5zm-13 0h-1v-5h1v5z" class="cls-2"/><path d="m271 1164-11 6 11 6zM400 813h-5v-5h5v5zm-13 0h-5v-5h5v5zm-13 0h-5v-5h5v5zm-13 0h-5v-5h5v5zm-13 0h-5v-5h5v5zm-13 0h-5v-5h5v5zm-13 0h-5v-5h5v5zm-13 0h-5v-5h5v5zm-13 0h-5v-5h5v5zm-13 0h-5v-5h5v5zm-13 0h-1v-5h1v5z" class="cls-2"/><path d="m271 804-11 6 11 6zM400 993h-5v-5h5v5zm-13 0h-5v-5h5v5zm-13 0h-5v-5h5v5zm-13 0h-5v-5h5v5zm-13 0h-5v-5h5v5zm-13 0h-5v-5h5v5zm-13 0h-5v-5h5v5zm-13 0h-5v-5h5v5zm-13 0h-5v-5h5v5zm-13 0h-5v-5h5v5zm-13 0h-1v-5h1v5z" class="cls-2"/><path d="m271 984-11 6 11 6zM400 1353h-5v-5h5v5zm-13 0h-5v-5h5v5zm-13 0h-5v-5h5v5zm-13 0h-5v-5h5v5zm-13 0h-5v-5h5v5zm-13 0h-5v-5h5v5zm-13 0h-5v-5h5v5zm-13 0h-5v-5h5v5zm-13 0h-5v-5h5v5zm-13 0h-5v-5h5v5zm-13 0h-1v-5h1v5z" class="cls-2"/><path d="m271 1344-11 6 11 6zM400 1533h-5v-5h5v5zm-13 0h-5v-5h5v5zm-13 0h-5v-5h5v5zm-13 0h-5v-5h5v5zm-13 0h-5v-5h5v5zm-13 0h-5v-5h5v5zm-13 0h-5v-5h5v5zm-13 0h-5v-5h5v5zm-13 0h-5v-5h5v5zm-13 0h-5v-5h5v5zm-13 0h-1v-5h1v5z" class="cls-2"/><path d="m271 1524-11 6 11 6z" class="cls-2"/><g data-name="error box"><g class="cls-25"><rect width="200" height="100" x="40" y="220" class="cls-3" rx="10" ry="10"/><path d="M230 325H50c-8 0-15-7-15-15v-80c0-8 7-15 15-15h180c8 0 15 7 15 15v80c0 8-7 15-15 15ZM50 225c-3 0-5 2-5 5v80c0 3 2 5 5 5h180c3 0 5-2 5-5v-80c0-3-2-5-5-5H50Z" class="cls-19"/></g><path d="M105 275v-4l11-17h4v6h-3l-6 11h15v4h-21Zm13 5v-26h5v26h-6ZM140 281l-6-2c-2-1-2-3-3-5l-2-7 2-7 3-5 6-2 6 2 3 5 2 7-2 7-3 5-6 2zm0-5 4-2 1-7-1-5-1-3-3-1-4 2-1 7 1 5 1 3 3 1zM154 275v-4l11-17h4v6h-2l-7 11h15v4h-21Zm13 5v-26h5v26h-5Z" class="cls-31"/><g class="cls-9"><rect width="200" height="100" x="40" y="1120" class="cls-3" rx="10" ry="10"/><path d="M230 1225H50c-8 0-15-7-15-15v-80c0-8 7-15 15-15h180c8 0 15 7 15 15v80c0 8-7 15-15 15ZM50 1125c-3 0-5 2-5 5v80c0 3 2 5 5 5h180c3 0 5-2 5-5v-80c0-3-2-5-5-5H50Z" class="cls-19"/></g><path d="M105 1175v-4l11-17h3v6h-2l-7 11h16v4h-21Zm12 5v-26h6v26h-6ZM140 1181l-6-2c-2-1-3-3-3-5l-2-7 2-7 3-5 6-2 5 2 4 5 1 7-1 7-4 5-5 2zm0-5 3-2 2-7-1-5-2-3-2-1-4 2-1 7v5l2 3 3 1zM165 1181l-6-2-4-5-1-7 1-7 4-5 6-2c3 0 4 1 5 2l4 5 1 7-1 7-4 5-5 2zm0-5 3-2 2-7-1-5-2-3-2-1-4 2-1 7v5l2 3 3 1z" class="cls-31"/><g class="cls-8"><rect width="200" height="100" x="40" y="400" class="cls-3" rx="10" ry="10"/><path d="M230 505H50c-8 0-15-7-15-15v-80c0-8 7-15 15-15h180c8 0 15 7 15 15v80c0 8-7 15-15 15ZM50 405c-3 0-5 2-5 5v80c0 3 2 5 5 5h180c3 0 5-2 5-5v-80c0-3-2-5-5-5H50Z" class="cls-28"/></g><path d="M70 455v-4l11-17h3v6h-2l-7 11h16v4H70Zm12 5v-26h5v26h-5ZM99 440l4 7 3-7h6l-6 10 6 10h-6l-3-7-4 7h-6l6-10-6-10h6zM120 440l3 7 4-7h6l-6 10 6 10h-6l-4-7-4 7h-5l6-10-6-10h6zM147 433l-8 31h-5l8-31h5zM159 460l-5-1-3-2-1-4h5l1 2 3 1 3-1 1-1 1-3-1-2-1-2h-5l-2 2-5-1 2-14h16v4h-12v7l2-2h3a8 8 0 0 1 8 8l-1 5-4 3-5 1zM178 440l3 7 4-7h5l-5 10 6 10h-6l-4-7-4 7h-5l6-10-6-10h6zM198 440l4 7 4-7h5l-6 10 6 10h-5l-4-7-4 7h-6l6-10-5-10h5z" class="cls-31"/><g class="cls-1"><rect width="200" height="100" x="40" y="580" class="cls-3" rx="10" ry="10"/><path d="M230 685H50c-8 0-15-7-15-15v-80c0-8 7-15 15-15h180c8 0 15 7 15 15v80c0 8-7 15-15 15ZM50 585c-3 0-5 2-5 5v80c0 3 2 5 5 5h180c3 0 5-2 5-5v-80c0-3-2-5-5-5H50Z" class="cls-4"/></g><path d="M70 635v-4l11-17h3v6h-2l-7 11h16v4H70Zm12 5v-26h5v26h-5ZM99 620l4 7 3-7h6l-6 10 6 10h-6l-3-7-4 7h-6l6-10-6-10h6zM120 620l3 7 4-7h6l-6 10 6 10h-6l-4-7-4 7h-5l6-10-6-10h6zM147 613l-8 31h-5l8-31h5zM159 640l-5-1-3-2-1-4h5l1 2 3 1 3-1 1-1 1-3-1-2-1-2h-5l-2 2-5-1 2-14h16v4h-12v7l2-2h3a8 8 0 0 1 8 8l-1 5-4 3-5 1zM178 620l3 7 4-7h5l-5 10 6 10h-6l-4-7-4 7h-5l6-10-6-10h6zM198 620l4 7 4-7h5l-6 10 6 10h-5l-4-7-4 7h-6l6-10-5-10h5z" class="cls-31"/><g class="cls-18"><rect width="200" height="100" x="40" y="760" class="cls-3" rx="10" ry="10"/><path d="M230 865H50c-8 0-15-7-15-15v-80c0-8 7-15 15-15h180c8 0 15 7 15 15v80c0 8-7 15-15 15ZM50 765c-3 0-5 2-5 5v80c0 3 2 5 5 5h180c3 0 5-2 5-5v-80c0-3-2-5-5-5H50Z" class="cls-11"/></g><path d="M70 815v-4l11-17h3v6h-2l-7 11h16v4H70Zm12 5v-26h5v26h-5ZM99 800l4 7 3-7h6l-6 10 6 10h-6l-3-7-4 7h-6l6-10-6-10h6zM120 800l3 7 4-7h6l-6 10 6 10h-6l-4-7-4 7h-5l6-10-6-10h6zM147 793l-8 31h-5l8-31h5zM159 820l-5-1-3-2-1-4h5l1 2 3 1 3-1 1-1 1-3-1-2-1-2h-5l-2 2-5-1 2-14h16v4h-12v7l2-2h3a8 8 0 0 1 8 8l-1 5-4 3-5 1zM178 800l3 7 4-7h5l-5 10 6 10h-6l-4-7-4 7h-5l6-10-6-10h6zM198 800l4 7 4-7h5l-6 10 6 10h-5l-4-7-4 7h-6l6-10-5-10h5z" class="cls-31"/><g class="cls-23"><rect width="200" height="100" x="40" y="940" class="cls-3" rx="10" ry="10"/><path d="M230 1045H50c-8 0-15-7-15-15v-80c0-8 7-15 15-15h180c8 0 15 7 15 15v80c0 8-7 15-15 15ZM50 945c-3 0-5 2-5 5v80c0 3 2 5 5 5h180c3 0 5-2 5-5v-80c0-3-2-5-5-5H50Z" class="cls-26"/></g><path d="M70 995v-4l11-17h3v6h-2l-7 11h16v4H70Zm12 5v-26h5v26h-5ZM99 980l4 7 3-7h6l-6 10 6 10h-6l-3-7-4 7h-6l6-10-6-10h6zM120 980l3 7 4-7h6l-6 10 6 10h-6l-4-7-4 7h-5l6-10-6-10h6zM147 973l-8 31h-5l8-31h5zM159 1000l-5-1-3-2-1-4h5l1 2 3 1 3-1 1-1 1-3-1-2-1-2h-5l-2 2-5-1 2-14h16v4h-12v7l2-2h3a8 8 0 0 1 8 8l-1 5-4 3-5 1zM178 980l3 7 4-7h5l-5 10 6 10h-6l-4-7-4 7h-5l6-10-6-10h6zM198 980l4 7 4-7h5l-6 10 6 10h-5l-4-7-4 7h-6l6-10-5-10h5z" class="cls-31"/><g class="cls-24"><rect width="200" height="100" x="40" y="1300" class="cls-3" rx="10" ry="10"/><path d="M230 1405H50c-8 0-15-7-15-15v-80c0-8 7-15 15-15h180c8 0 15 7 15 15v80c0 8-7 15-15 15ZM50 1305c-3 0-5 2-5 5v80c0 3 2 5 5 5h180c3 0 5-2 5-5v-80c0-3-2-5-5-5H50Z" class="cls-10"/></g><path d="M70 1355v-4l11-17h3v6h-2l-7 11h16v4H70Zm12 5v-26h5v26h-5ZM99 1340l4 7 3-7h6l-6 10 6 10h-6l-3-7-4 7h-6l6-10-6-10h6zM120 1340l3 7 4-7h6l-6 10 6 10h-6l-4-7-4 7h-5l6-10-6-10h6zM147 1333l-8 31h-5l8-31h5zM159 1360l-5-1-3-2-1-4h5l1 2 3 1 3-1 1-1 1-3-1-2-1-2h-5l-2 2-5-1 2-14h16v4h-12v7l2-2h3a8 8 0 0 1 8 8l-1 5-4 3-5 1zM178 1340l3 7 4-7h5l-5 10 6 10h-6l-4-7-4 7h-5l6-10-6-10h6zM198 1340l4 7 4-7h5l-6 10 6 10h-5l-4-7-4 7h-6l6-10-5-10h5z" class="cls-31"/><g class="cls-17"><rect width="200" height="100" x="40" y="1480" class="cls-3" rx="10" ry="10"/><path d="M230 1585H50c-8 0-15-7-15-15v-80c0-8 7-15 15-15h180c8 0 15 7 15 15v80c0 8-7 15-15 15ZM50 1485c-3 0-5 2-5 5v80c0 3 2 5 5 5h180c3 0 5-2 5-5v-80c0-3-2-5-5-5H50Z" class="cls-29"/></g><path d="M70 1535v-4l11-17h3v6h-2l-7 11h16v4H70Zm12 5v-26h5v26h-5ZM99 1520l4 7 3-7h6l-6 10 6 10h-6l-3-7-4 7h-6l6-10-6-10h6zM120 1520l3 7 4-7h6l-6 10 6 10h-6l-4-7-4 7h-5l6-10-6-10h6zM147 1513l-8 31h-5l8-31h5zM159 1540l-5-1-3-2-1-4h5l1 2 3 1 3-1 1-1 1-3-1-2-1-2h-5l-2 2-5-1 2-14h16v4h-12v7l2-2h3a8 8 0 0 1 8 8l-1 5-4 3-5 1zM178 1520l3 7 4-7h5l-5 10 6 10h-6l-4-7-4 7h-5l6-10-6-10h6zM198 1520l4 7 4-7h5l-6 10 6 10h-5l-4-7-4 7h-6l6-10-5-10h5z" class="cls-31"/></g><path d="M595 100h10v1600h-10z" class="cls-16" data-name="main box line"/><g data-name="main box"><g class="cls-13"><rect width="400" height="100" x="400" y="40" class="cls-3" rx="10" ry="10"/><path d="M790 145H410c-8 0-15-7-15-15V50c0-8 7-15 15-15h380c8 0 15 7 15 15v80c0 8-7 15-15 15ZM410 45c-3 0-5 2-5 5v80c0 3 2 5 5 5h380c3 0 5-2 5-5V50c0-3-2-5-5-5H410Z" class="cls-22"/></g><path d="M449 74v26h-6V74h6zM459 89v11h-6V80h6v4l2-3 4-1 3 1 3 3v16h-5V88l-1-2-3-1h-1l-2 1v3ZM485 100l-6-1-3-3-1-6 1-5 3-4 6-1 4 1 3 3 1 4h-5l-1-3-2-1-3 1-1 2-1 3 1 3 1 2 3 1h1l2-1v-2h5l-1 4-3 2-4 1zM506 100l-5-1-4-3-1-6 1-5 4-4 5-1 5 1 3 4 1 5-1 6-3 3-5 1Zm0-4 2-1 1-2 1-3-1-3-1-2-2-1-3 1-1 2v6l1 2 3 1ZM519 100V80h5v4l2-3 4-1 3 1 2 3 3-3 3-1 5 2 1 5v13h-5V88l-1-3h-2l-2 1-1 2v12h-5V88l-1-3h-2a3 3 0 0 0-3 1l-1 2v12h-5ZM555 78l-3-1v-4l3-1 2 1v4l-2 1zm-3 22V80h5v20h-5zM567 89v11h-5V80h5v4l2-3 4-1 3 1 3 3 1 3v13h-6V88l-1-2-2-1h-2l-1 1-1 3ZM593 108l-5-1c-2 0-2-1-3-2l-1-3h5l1 1h1l2 1 3-1 1-3v-3a5 5 0 0 1-3 2l-3 1-4-1-3-3-1-6 1-5 3-4 4-1 3 1 2 1 1 2v-4h5v20l-1 4-3 3-5 1zm0-12 2-1 2-2v-6l-2-2-2-1-2 1-2 2v6l2 2 2 1zM615 100V74h11l5 1 3 3 1 4-1 5-3 3-6 1h-7v-5h9l2-1v-5l-2-1-3-1h-3v22h-6zm14-12 7 12h-6l-7-12h6zM648 100l-6-1-3-3-1-6 1-5 3-4 5-1 4 1 3 2 2 3 1 4v2h-17v-4h12l-1-2-1-1-2-1-3 1-1 1-1 2v4l1 2 1 2h4l2-1 1-1h5l-2 4-3 2h-4zM679 107h-6V97l-1 1-2 2h-3a7 7 0 0 1-6-4l-1-6 1-5 3-4a7 7 0 0 1 6 0l2 1 1 2v-4h6v27zm-6-17v-3l-2-2-2-1-2 1-1 2-1 3 1 3 1 2 2 1 2-1 2-2v-3zM696 92V80h5v20h-5v-4l-3 3-3 1-4-1-2-2-1-4V80h5v12l1 3 3 1 2-1 1-1 1-2zM714 100l-5-1-3-3-1-6 1-5 3-4 5-1 4 1 3 2 2 3v6h-16v-4h11v-2l-2-1-2-1-2 1-1 1-1 2v4l1 2 1 2h4l1-1 1-1h5l-1 4-3 2h-5zM743 86h-5v-1l-1-1h-4l-1 2 1 1 1 1 4 1 4 1 2 4-1 3-4 3h-4l-6-1c-1-1-3-3-3-5h5l2 2h4l1-2v-1h-2l-4-1-4-2-1-4 1-3 2-2 5-1 6 2c2 1 2 2 2 4zM758 80v4h-12v-4h12Zm-10-4h6v19l1 1h2l1 4h-6l-3-2-1-3V76Z" class="cls-31"/><g class="cls-21"><rect width="400" height="100" x="400" y="220" class="cls-3" rx="10" ry="10"/><path d="M790 325H410c-8 0-15-7-15-15v-80c0-8 7-15 15-15h380c8 0 15 7 15 15v80c0 8-7 15-15 15ZM410 225c-3 0-5 2-5 5v80c0 3 2 5 5 5h380c3 0 5-2 5-5v-80c0-3-2-5-5-5H410Z" class="cls-22"/></g><path d="M534 280v-26h10l5 1 3 3 1 4-1 5-3 3-5 1h-7v-5h9l1-1 1-3-1-2-1-1-3-1h-4v22h-5zm14-12 6 12h-6l-6-12h6zM566 280l-5-1-3-3-2-6 2-5c0-2 2-3 3-4l5-1 5 1 4 4 1 5-1 6-4 3-5 1Zm0-4 2-1 2-2v-6l-2-2-2-1-2 1-2 2v6l2 2 2 1ZM592 272v-12h5v20h-5v-4c0 2-1 3-2 3l-4 1-3-1-3-2-1-4v-13h6v12l1 3 2 1 2-1 1-1 1-2zM612 260v4h-12v-4h12Zm-9-4h6v20h3l1 4h-7l-2-2-1-3v-19ZM618 258l-2-1v-4l2-1 3 1v4l-3 1zm-2 22v-20h5v20h-5zM631 269v11h-5v-20h5v4l2-3 4-1 3 1 3 3 1 3v13h-6v-12l-1-2-2-1h-2l-2 1v3ZM657 288l-5-1-3-2-1-3h5l1 1h1l2 1 3-1 1-3v-3a5 5 0 0 1-3 2l-3 1-4-1-3-3-1-6 1-5 3-4 4-1 3 1 2 1 1 2v-4h5v20l-1 4-3 3-5 1zm0-12 2-1 2-2v-6l-2-2-2-1-2 1-2 2v6l2 2 2 1z" class="cls-31"/><g class="cls-12"><rect width="400" height="100" x="400" y="400" class="cls-7" rx="10" ry="10"/><path d="M790 505H410c-8 0-15-7-15-15v-80c0-8 7-15 15-15h380c8 0 15 7 15 15v80c0 8-7 15-15 15ZM410 405c-3 0-5 2-5 5v80c0 3 2 5 5 5h380c3 0 5-2 5-5v-80c0-3-2-5-5-5H410Z" class="cls-22"/></g><path d="m466 460-6-1-3-3-1-6 1-5 3-4 6-1 5 1 3 4 1 5-1 6-3 3-5 1zm0-4 2-1 1-2 1-3-1-3-1-2-2-1-3 1-1 2v6l1 2 3 1zM484 449v11h-5v-20h5v4l2-3 4-1 4 1c1 1 2 1 2 3l1 3v13h-5v-12l-1-2-3-1h-2l-1 1-1 3ZM501 460v-26h11l5 1 3 3 1 4-1 5-3 3-5 1h-7v-5h8l2-1v-5l-2-1-2-1h-4v22h-6zm14-12 7 12h-6l-6-12h5zM534 460l-5-1-4-3-1-6 1-5 4-4 5-1 3 1 3 2c1 1 2 1 2 3l1 4v2h-17v-4h12l-1-2-1-1-2-1-3 1-1 1-1 2v4l1 2 2 2h4l1-1 1-1h5l-2 4-3 2h-4zM565 467h-6v-10l-1 1-2 2h-2a7 7 0 0 1-7-4l-1-6 1-5 3-4a7 7 0 0 1 6 0l2 1 1 2v-4h6v27zm-6-17v-3l-1-2-3-1-2 1-1 2-1 3 1 3 1 2 2 1 3-1 1-2v-3zM582 452v-12h5v20h-5v-4l-2 3-4 1-4-1-2-2-1-4v-13h6v12l1 3 2 1 2-1 1-1 1-2zM600 460l-5-1-3-3-1-6 1-5 3-4 5-1 4 1 3 2 2 3v6h-16v-4h11v-2l-2-1-2-1-2 1-1 1-1 2v4l1 2 1 2h4l2-1v-1h5l-1 4-3 2h-5zM629 446h-5v-1l-1-1h-4l-1 2 1 1 2 1 3 1 4 1 2 4-1 3-3 3h-5l-6-1c-1-1-3-3-3-5h6l1 2h4l1-2v-1h-2l-4-1-4-2-1-4 1-3c1-1 1-2 3-2l4-1 6 2c2 1 2 2 2 4zM644 440v4h-12v-4h12Zm-9-4h5v19l1 1h2l1 4h-6l-3-2v-22ZM656 460v-26h5v11h11v-11h6v26h-6v-11h-11v11h-5zM691 460l-5-1-3-3-1-6 1-5 3-4 5-1 5 1 4 4 1 5-1 6-4 3-5 1Zm0-4 3-1 1-2v-6l-1-2-3-1-2 1-1 2-1 3 1 3 1 2 2 1ZM713 460l-5-1-3-3-1-6 1-5 3-4 5-1 6 1 3 4 1 5-1 6-3 3-6 1Zm0-4 3-1 1-2 1-3-1-3-1-2-3-1-2 1-1 2-1 3 1 3 1 2 2 1ZM727 460v-26h5v26h-5zm5-6v-6l7-8h6l-9 10h-1l-3 4zm7 6-6-9 4-3 8 12h-6z" class="cls-31"/><g class="cls-27"><rect width="400" height="100" x="400" y="580" class="cls-7" rx="10" ry="10"/><path d="M790 685H410c-8 0-15-7-15-15v-80c0-8 7-15 15-15h380c8 0 15 7 15 15v80c0 8-7 15-15 15ZM410 585c-3 0-5 2-5 5v80c0 3 2 5 5 5h380c3 0 5-2 5-5v-80c0-3-2-5-5-5H410Z" class="cls-22"/></g><path d="M455 647v-27h6v4l1-2 2-1 3-1a7 7 0 0 1 7 5l1 5-1 6c0 2-2 2-3 3l-4 1h-3l-2-2-1-1v10h-6zm6-17v3l2 2 2 1 2-1 2-2v-6l-2-2-2-1-2 1-2 2v3zM478 640v-20h6v4l1-3 3-1a9 9 0 0 1 2 0v5h-4l-2 2v13h-6ZM502 640l-5-1-4-3-1-6 1-5 4-4 5-1 3 1 3 2c1 1 2 1 2 3l1 4v2h-17v-4h12l-1-2-1-1-2-1-2 1-2 1v8l2 2h4l1-1 1-1h5l-2 4-3 2h-4zM515 640v-26h10l5 1 3 3 1 5-1 4-3 3-5 2h-7v-5h9l1-2 1-2-1-3-2-1-2-1h-4v22h-5zM543 640h-3l-2-2-1-3v-3l2-2 2-1 3-1a58 58 0 0 0 5 0v-1l-1-2-2-1-2 1-1 1h-5a7 7 0 0 1 4-5l4-1h3l3 2 2 2v16h-5v-3a6 6 0 0 1-3 3h-3Zm2-3 2-1 1-1 1-2v-2h-2l-1 1h-2l-2 1v1l1 2 2 1ZM559 640v-20h5v4l2-3 3-1a9 9 0 0 1 2 0v5h-5l-1 2-1 2v11h-5ZM590 626h-5l-1-1-1-1h-2l-2 1-1 1 1 1 2 1 3 1 5 1 1 4-1 3-3 3h-5l-6-1c-2-1-2-3-3-5h6l1 2h5l1-2-1-1h-2l-3-1-5-2-1-4 1-3 3-2 4-1 6 2 3 4zM596 618l-2-1-1-2 1-2 2-1 2 1 1 2-1 2-2 1zm-2 22v-20h5v20h-5zM609 629v11h-6v-20h6v4l2-3 4-1 3 1 3 3v16h-5v-12l-1-2-2-1h-2l-2 1v3ZM635 648l-5-1-3-2-1-3h5v1h2l2 1 3-1 1-3v-3a5 5 0 0 1-3 2l-3 1-4-1-3-3-1-6 1-5 3-4 4-1 3 1 2 1 1 2v-4h5v20l-1 4-3 3-5 1zm0-12 2-1 1-2 1-3-1-3-1-2-2-1-3 1-1 2v6l1 2 3 1zM657 640v-26h6v11h11v-11h5v26h-5v-11h-11v11h-6zM693 640l-6-1-3-3-1-6 1-5 3-4 6-1 5 1 3 4 1 5-1 6-3 3-5 1Zm0-4 2-1 1-2 1-3-1-3-1-2-2-1-3 1-1 2v6l1 2 3 1ZM715 640l-5-1-4-3-1-6 1-5 4-4 5-1 5 1 3 4 1 5-1 6-3 3-5 1Zm0-4 2-1 1-2 1-3-1-3-1-2-2-1-3 1-1 2v6l1 2 3 1ZM728 640v-26h5v26h-5zm5-6v-6h1l6-8h6l-8 10h-2l-3 4zm7 6-6-9 4-3 9 12h-7z" class="cls-31"/><g class="cls-20"><rect width="400" height="100" x="400" y="760" class="cls-3" rx="10" ry="10"/><path d="M790 865H410c-8 0-15-7-15-15v-80c0-8 7-15 15-15h380c8 0 15 7 15 15v80c0 8-7 15-15 15ZM410 765c-3 0-5 2-5 5v80c0 3 2 5 5 5h380c3 0 5-2 5-5v-80c0-3-2-5-5-5H410Z" class="cls-22"/></g><path d="M535 820v-26h11l5 1 3 3 1 5-1 4-3 3-6 2h-6v-5h8l2-2v-5l-2-1-2-1h-4v22h-6zM564 820h-3l-3-2v-6l2-2 2-1 3-1a58 58 0 0 0 4 0l1-1-1-2-2-1-3 1-1 1h-5a7 7 0 0 1 5-5l4-1h3l3 2 1 2 1 3v13h-5v-3a6 6 0 0 1-3 3h-3Zm2-3 2-1 1-1 1-2v-2h-2l-1 1h-3l-1 1v1l1 2 2 1ZM579 820v-20h6v4l2-3 3-1a9 9 0 0 1 1 0v5h-4l-2 2v13h-6ZM610 806h-5v-1l-1-1h-2l-2 1-1 1 1 1 2 1 3 1 4 1 2 4-1 3-3 3h-5l-6-1c-1-1-3-3-3-5h6l1 2h4l1-2v-1h-2l-4-1-4-2-1-4 1-3c1-1 1-2 3-2l4-1 6 2c2 1 2 2 2 4zM617 798l-2-1-1-2 1-2 2-1 2 1 1 2-1 2-2 1zm-3 22v-20h6v20h-6zM630 809v11h-6v-20h5v4l3-3 3-1 4 1c1 1 2 1 2 3l1 3v13h-5v-12l-1-2-3-1h-2l-1 1v3ZM655 828l-4-1-3-2-2-3h5l1 1h1l2 1 3-1 1-3v-3a5 5 0 0 1-3 2l-2 1-4-1-3-3-1-6 1-5 3-4 4-1 2 1 2 1 1 2v-4h6v20l-1 4-4 3-5 1zm0-12 3-1 1-2 1-3-1-3-1-2-3-1-2 1-1 2-1 3 1 3 1 2 2 1z" class="cls-31"/><g class="cls-15"><rect width="400" height="100" x="400" y="940" class="cls-7" rx="10" ry="10"/><path d="M790 1045H410c-8 0-15-7-15-15v-80c0-8 7-15 15-15h380c8 0 15 7 15 15v80c0 8-7 15-15 15ZM410 945c-3 0-5 2-5 5v80c0 3 2 5 5 5h380c3 0 5-2 5-5v-80c0-3-2-5-5-5H410Z" class="cls-22"/></g><path d="M433 1007v-27h5v4l1-2 2-1 3-1a7 7 0 0 1 7 5l1 5-1 6-3 3a7 7 0 0 1-7 1l-2-1-1-2v10h-5zm5-17 1 3 1 2 2 1 3-1 1-2v-6l-1-2-3-1-2 1-1 2-1 3zM456 1000v-20h5v4l2-3 3-1a9 9 0 0 1 1 0v5h-4l-1 2-1 2v11h-5ZM479 1000l-5-1-3-3-2-6 2-5c0-2 2-3 3-4l5-1 4 1 3 2 2 3v6h-16v-4h11v-2l-2-1-2-1-2 1-2 1v8l2 2h4l1-1 1-1h5l-1 4-3 2h-5zM497 974l6 20 7-20h6l-9 26h-7l-10-26h7ZM524 1000h-3l-2-2-1-3v-3l2-2 2-1 3-1a58 58 0 0 0 4 0l1-1-1-2-2-1-2 1-1 1h-6a7 7 0 0 1 5-5l4-1h3l3 2 2 2v16h-5v-3a6 6 0 0 1-3 3h-3Zm2-3 2-1 1-1 1-2v-2h-2l-1 1h-2l-2 1v1l1 2 2 1ZM545 974v26h-5v-26h5zM552 978l-2-1-1-2 1-2 2-1 2 1 1 2-1 2-2 1zm-3 22v-20h6v20h-6zM566 1000a7 7 0 0 1-6-4l-2-6 2-5 2-4a7 7 0 0 1 7 0l2 1 1 2v-10h6v26h-6v-3l-1 1-2 2h-3zm2-4 2-1 2-2v-6l-2-2-2-1-2 1-1 2-1 3 1 3 1 2 2 1zM588 1000h-4l-2-2-1-3 1-3 1-2 3-1 3-1a58 58 0 0 0 4 0v-3l-3-1-2 1-1 1h-5a7 7 0 0 1 4-5l4-1h4l2 2 2 2 1 3v13h-5v-3h-1a6 6 0 0 1-3 3h-2Zm1-3 2-1 2-1v-4h-1l-1 1h-3l-1 1-1 1 1 2 2 1ZM613 980v4h-11v-4h11Zm-9-4h6v19l1 1h2l1 4h-7l-2-2-1-3v-19ZM620 978l-2-1-1-2 1-2 2-1 2 1 1 2-1 2-2 1zm-3 22v-20h5v20h-5zM636 1000l-6-1-3-3-1-6 1-5 3-4 6-1 5 1 3 4 1 5-1 6-3 3-5 1Zm0-4 2-1 1-2 1-3-1-3-1-2-2-1-3 1-1 2-1 3 1 3 1 2 3 1ZM654 989v11h-5v-20h5v4l2-3 4-1 4 1c1 1 2 1 2 3l1 3v13h-6v-14l-3-1h-2l-1 1-1 3ZM680 1000v-26h5v11h11v-11h6v26h-6v-11h-11v11h-5zM715 1000l-5-1-3-3-1-6 1-5 3-4 5-1 5 1 4 4 1 5-1 6-4 3-5 1Zm0-4 3-1 1-2v-6l-1-2-3-1-2 1-1 2-1 3 1 3 1 2 2 1ZM737 1000l-5-1-3-3-1-6 1-5 3-4 5-1 6 1 3 4 1 5-1 6-3 3-6 1Zm0-4 3-1 1-2 1-3-1-3-1-2-3-1-2 1-1 2-1 3 1 3 1 2 2 1ZM751 1000v-26h5v26h-5zm5-6v-6l7-8h6l-9 10h-1l-3 4zm7 6-6-9 4-3 8 12h-6z" class="cls-31"/><g class="cls-14"><rect width="400" height="100" x="400" y="1120" class="cls-3" rx="10" ry="10"/><path d="M790 1225H410c-8 0-15-7-15-15v-80c0-8 7-15 15-15h380c8 0 15 7 15 15v80c0 8-7 15-15 15Zm-380-100c-3 0-5 2-5 5v80c0 3 2 5 5 5h380c3 0 5-2 5-5v-80c0-3-2-5-5-5H410Z" class="cls-22"/></g><path d="m517 1154 7 20 6-20h6l-9 26h-7l-9-26h6zM545 1180h-3l-3-2-1-3 1-3 2-2 2-1 3-1h4l1-1-1-2-2-1-3 1-1 1h-5a7 7 0 0 1 5-5l4-1 3 1 3 1 1 2 1 3v13h-5v-3a6 6 0 0 1-3 3h-3zm2-3 2-1 1-1 1-2v-2h-2l-1 1h-3l-1 1v3l3 1zM566 1154v26h-6v-26h6zM573 1158l-2-1-1-2 1-2 2-1 2 1 1 2-1 2-2 1Zm-3 22v-20h6v20h-6ZM587 1180a7 7 0 0 1-7-4l-1-6 1-5 3-4 4-1 3 1 2 1 1 2v-10h5v26h-5v-3l-1 1-2 2h-3zm2-4 2-1 1-2 1-3-1-3-1-2-2-1-2 1-2 2v6l2 2 2 1zM608 1180h-3l-2-2-1-3v-3l2-2 2-1 3-1h4l1-1-1-2-2-1-2 1-1 1h-6a7 7 0 0 1 5-5l4-1 3 1 3 1 2 2v16h-5v-3a6 6 0 0 1-3 3h-3zm2-3 2-1 1-1 1-2v-2h-2l-1 1h-2l-2 1v1l1 2 2 1zM634 1160v4h-12v-4h12Zm-9-4h5v18l1 1v1h3v4h-1a10 10 0 0 1-5 0l-2-2-1-3v-19ZM640 1158l-2-1-1-2 1-2 2-1 2 1 1 2-1 2-2 1Zm-2 22v-20h5v20h-5ZM656 1180l-5-1-3-3-1-6 1-5 3-4 5-1 5 1 4 4 1 5-1 6-4 3-5 1Zm0-4 3-1 1-2v-6l-1-2-3-1-2 1-1 2-1 3 1 3 1 2 2 1ZM675 1169v11h-6v-20h6v4l2-3 4-1 3 1 3 3 1 3v13h-6v-12l-1-2-2-1h-2l-2 1v3Z" class="cls-31"/><g class="cls-30"><rect width="400" height="100" x="400" y="1300" class="cls-7" rx="10" ry="10"/><path d="M790 1405H410c-8 0-15-7-15-15v-80c0-8 7-15 15-15h380c8 0 15 7 15 15v80c0 8-7 15-15 15Zm-380-100c-3 0-5 2-5 5v80c0 3 2 5 5 5h380c3 0 5-2 5-5v-80c0-3-2-5-5-5H410Z" class="cls-22"/></g><path d="M453 1367v-27h5v4h1l1-2 1-1 3-1a7 7 0 0 1 7 5l1 5-1 6-3 3a7 7 0 0 1-7 1l-1-2-1-1h-1v10h-5zm5-17 1 3 1 2 2 1 3-1 1-2 1-3-1-3-1-2-3-1-2 1-1 2-1 3zM476 1360v-20h5v4l2-3 3-1a9 9 0 0 1 2 0v5h-5l-1 2-1 2v11h-5ZM499 1360l-5-1-3-3-1-6 1-5 3-4 5-1 4 1 3 2 2 3v6h-16v-4h11v-2l-2-1-2-1-2 1-1 1-1 2v4l1 2 1 2h4l1-1 1-1h5l-1 4-3 2h-5zM512 1360v-26h6v11h11v-11h5v26h-5v-11h-11v11h-6zM544 1360h-3l-2-2-1-3 1-3 1-2 3-1 2-1h5v-1l-1-2-2-1-2 1-1 1h-5a7 7 0 0 1 4-5l4-1 3 1 3 1 2 2 1 3v13h-6v-3a6 6 0 0 1-3 3h-3zm2-3 2-1 2-1v-4h-2l-1 1h-2l-1 1-1 1 1 2 2 1zM565 1349v11h-5v-20h5v4l2-3 4-1 4 1 2 3 1 3v13h-6v-12l-1-2-2-1h-2l-1 1-1 3ZM589 1360a7 7 0 0 1-7-4l-1-6 1-5 3-4 4-1 3 1 2 1 1 2v-10h6v26h-6v-3l-1 1-2 2h-3zm2-4 2-1 2-2v-6l-2-2-2-1-2 1-2 2v6l2 2 2 1zM610 1334v26h-5v-26h5zM624 1360l-5-1-4-3-1-6 1-5 3-4 6-1 3 1 3 2c1 1 2 1 2 3l1 4v2h-17v-4h12l-1-2-1-1-2-1-3 1-1 1-1 2v4l1 2 1 2h4l2-1 1-1h5l-2 4-3 2h-4zM636 1360v-20h6v4l2-3 2-1a9 9 0 0 1 2 0v5h-4l-2 2v13h-6ZM659 1360v-26h6v11h11v-11h6v26h-6v-11h-11v11h-6zM695 1360l-5-1-3-3-2-6 2-5 3-4 5-1 5 1 4 4 1 5-1 6-4 3-5 1Zm0-4 2-1 2-2v-6l-2-2-2-1-2 1-2 2v6l2 2 2 1ZM717 1360l-5-1-3-3-1-6 1-5 3-4 5-1 5 1 4 4 1 5-1 6-4 3-5 1Zm0-4 2-1 2-2v-6l-2-2-2-1-2 1-1 2-1 3 1 3 1 2 2 1ZM730 1360v-26h6v26h-6zm5-6v-6h1l6-8h7l-9 10h-1l-4 4zm8 6-6-9 4-3 8 12h-6z" class="cls-31"/><g class="cls-6"><rect width="400" height="100" x="400" y="1480" class="cls-3" rx="10" ry="10"/><path d="M790 1585H410c-8 0-15-7-15-15v-80c0-8 7-15 15-15h380c8 0 15 7 15 15v80c0 8-7 15-15 15Zm-380-100c-3 0-5 2-5 5v80c0 3 2 5 5 5h380c3 0 5-2 5-5v-80c0-3-2-5-5-5H410Z" class="cls-22"/></g><path d="M536 1523h-5l-1-2-1-1-2-1-2-1-3 1-3 3-1 5 1 5c0 2 2 2 3 3h5l2-1 1-1 1-2h5l-1 4-2 3-4 2h-4l-6-1-5-5-1-7 1-7 5-5a13 13 0 0 1 10-1l4 2 2 3 1 4zM549 1540l-5-1-3-3-2-6 2-5 3-4 5-1 5 1 4 4 1 5-1 6-4 3-5 1Zm0-4 2-1 2-2v-6l-2-2-2-1-2 1-2 2v6l2 2 2 1ZM568 1529v11h-6v-20h5v4h1l2-3 4-1 3 1 3 3v16h-5v-12l-1-2-3-1h-2l-1 1v3ZM595 1520v4h-12v-4h12Zm-9-4h5v18l1 1v1h3v4h-1a10 10 0 0 1-5 0l-2-2-1-3v-19ZM599 1540v-20h5v4l2-3 3-1a9 9 0 0 1 2 0v5h-5l-1 2-1 2v11h-5ZM622 1540l-5-1-3-3-1-6 1-5 3-4 5-1 5 1 4 4 1 5-1 6-4 3-5 1Zm0-4 3-1 1-2v-6l-1-2-3-1-2 1-1 2-1 3 1 3 1 2 2 1ZM641 1514v26h-6v-26h6zM651 1514v26h-6v-26h6zM664 1540l-5-1-4-3-1-6 1-5 4-4 5-1 3 1 3 2c1 1 2 1 2 3l1 4v2h-17v-4h12l-1-2-1-1-2-1-2 1-2 1v8l2 2h4l1-1 1-1h5l-2 4-3 2h-4zM677 1540v-20h5v4l2-3 3-1a9 9 0 0 1 1 0v5h-4l-1 2-1 2v11h-5Z" class="cls-31"/><g class="cls-5"><rect width="400" height="100" x="400" y="1660" class="cls-3" rx="10" ry="10"/><path d="M790 1765H410c-8 0-15-7-15-15v-80c0-8 7-15 15-15h380c8 0 15 7 15 15v80c0 8-7 15-15 15Zm-380-100c-3 0-5 2-5 5v80c0 3 2 5 5 5h380c3 0 5-2 5-5v-80c0-3-2-5-5-5H410Z" class="cls-22"/></g><path d="m453 1707-2 7-4 5-6 1-7-1-4-5-2-7 2-7 4-5 7-2 6 2 4 5 2 7Zm-6 0-1-5-2-3-3-1-4 1-2 3-1 5 1 5 2 2 4 1 3-1 2-2 1-5ZM469 1712v-12h6v20h-5v-4h-1c0 2-1 3-2 3l-4 1-3-1-2-2-1-4v-13h5v12l1 3 3 1 1-1 2-1v-2ZM490 1700v4h-12v-4h12Zm-10-4h6v19l1 1h2l1 4h-1a10 10 0 0 1-5 0l-3-2v-22ZM502 1728l-5-1-3-2-1-3h5l1 1h1l2 1 3-1 1-3v-4l-1 2-2 1-3 1-4-1c-2 0-2-2-2-3l-2-6 2-5 2-4 4-1 3 1 2 1 1 2v-4h6v20l-2 4-3 3-5 1zm0-12 2-1 2-2v-6l-2-2-2-1-2 1-2 2v6l2 2 2 1zM525 1720l-5-1-4-3-1-6 1-5 4-4 5-1 5 1c1 1 3 2 3 4l1 5-1 6-3 3-5 1Zm0-4 2-1 1-2 1-3-1-3-1-2-2-1-2 1-2 2v6l2 2 2 1ZM541 1698l-2-1-1-2 1-2 2-1 2 1 1 2-1 2-2 1Zm-3 22v-20h5v20h-5ZM553 1709v11h-5v-20h5v4l2-3 4-1 4 1c1 1 2 1 2 3l1 3v13h-6v-14l-3-1h-2l-1 1-1 3ZM579 1728l-4-1-3-2-2-3h5l1 1h1l2 1 3-1 1-3v-4l-1 2-2 1-3 1-4-1c-2 0-2-2-2-3l-2-6 2-5 2-4 4-1 3 1 2 1 1 2v-4h6v20l-2 4-3 3-5 1zm0-12 2-1 2-2v-6l-2-2-2-1-2 1-1 2-1 3 1 3 1 2 2 1zM601 1720v-26h11l5 1 3 3 1 4-1 5-3 3-5 1h-7v-5h8l2-1v-5l-2-1-2-1h-4v22h-6zm15-12 6 12h-6l-6-12h6zM634 1720l-5-1-4-3-1-6 1-5 4-4 5-1 3 1 3 2c1 1 2 1 2 3l1 4v2h-17v-4h12l-1-2-1-1-2-1-2 1-2 1v8l2 2h4l1-1 1-1h5l-2 4-3 2h-4zM663 1706h-5l-1-1-1-1h-1l-3 1v2l2 1 4 1 4 1 1 4-1 3-3 3h-4l-7-1-2-5h5l1 2h5l1-2-1-1h-2l-3-1-4-2-2-4 1-3 3-2 4-1 6 2c2 1 3 2 3 4ZM667 1727v-27h5v4l1-2 2-1 3-1a7 7 0 0 1 7 5l1 5-1 6-3 3a7 7 0 0 1-7 1l-2-2-1-1v10h-5zm5-17 1 3 1 2 2 1 2-1 2-2v-6l-2-2-2-1-2 1-1 2-1 3zM698 1720l-5-1-3-3-1-6 1-5 3-4 5-1 6 1 3 4 1 5-1 6-3 3-6 1Zm0-4 3-1 1-2v-6l-1-2-3-1-2 1-1 2-1 3 1 3 1 2 2 1ZM717 1709v11h-5v-20h5v4l2-3 4-1 3 1 3 3 1 3v13h-6v-12l-1-2-2-1h-2l-1 1-1 3ZM750 1706h-5v-1l-1-1h-2l-2 1-1 1 1 1 2 1 3 1 4 1 2 4-1 3-3 3h-5l-6-1c-2-1-3-3-3-5h5l2 2h4l1-2v-1h-2l-4-1-4-2-1-4 1-3c0-1 1-2 3-2l4-1 6 2 2 4ZM763 1720l-5-1-3-3-2-6 2-5 3-4 5-1 4 1 2 2c0 1 2 1 2 3l1 4v2h-16v-4h11v-2l-2-1-2-1-2 1-2 1v8l2 2h4l1-1 1-1h5l-2 4-3 2h-4z" class="cls-31"/></g></svg>
