<?xml version="1.0" encoding="UTF-8"?>
<!DOCTYPE svg PUBLIC "-//W3C//DTD SVG 1.1//EN" "http://www.w3.org/Graphics/SVG/1.1/DTD/svg11.dtd">
<!-- Creator: CorelDRAW X7 -->
<svg xmlns="http://www.w3.org/2000/svg" xml:space="preserve" width="8.26772in" height="8.26772in" version="1.1" style="shape-rendering:geometricPrecision; text-rendering:geometricPrecision; image-rendering:optimizeQuality; fill-rule:evenodd; clip-rule:evenodd"
viewBox="0 0 8268 8268"
 xmlns:xlink="http://www.w3.org/1999/xlink">
 <defs>
  <style type="text/css">
    .fil0 {fill:none}
    .fil1 {fill:#0D0E59}
    .fil6 {fill:#0EDADA}
    .fil7 {fill:#0EDBDA}
    .fil4 {fill:#12EEDF}
    .fil2 {fill:white}
    .fil5 {fill:#0D0E59;fill-rule:nonzero}
    .fil3 {fill:url(#id0);fill-rule:nonzero}
  </style>
  <linearGradient id="id0" gradientUnits="userSpaceOnUse" x1="4334.21" y1="4550.3" x2="5746.89" y2="2700.37">
   <stop offset="0" style="stop-opacity:1; stop-color:#0CC7D4"/>
   <stop offset="1" style="stop-opacity:1; stop-color:#2ED5BF"/>
  </linearGradient>
 </defs>
 <g id="Layer_x0020_1">
  <metadata id="CorelCorpID_0Corel-Layer"/>
  <rect class="fil0" width="8268" height="8268"/>
  <polygon class="fil1" points="2385,2380 4229,1754 6073,2380 4229,3006 "/>
  <path class="fil1" d="M3001 2771c19,-238 56,-495 137,-716 9,-25 20,-50 31,-74 -67,-101 -112,-218 -127,-336 -21,-158 23,-360 209,-390 128,-21 386,54 549,105 280,-115 565,-130 843,-23 136,-130 332,-255 497,-228 242,40 285,428 261,620 -10,86 -34,170 -74,246 12,26 24,53 34,80 56,154 89,321 111,483 75,264 67,614 43,886 0,21 -1,42 -1,63l-2952 0c72,-275 237,-511 439,-716z"/>
  <path class="fil2" d="M2744 3487c70,-227 217,-437 427,-637 19,-279 59,-538 131,-734 19,-52 44,-103 75,-153 -194,-211 -205,-518 -98,-536 99,-16 414,82 530,120 315,-146 606,-141 876,1 126,-157 326,-283 426,-266 107,18 205,471 10,682 31,50 57,101 75,152 48,129 82,286 105,458 77,263 59,660 32,913l6 0c0,-34 1,-69 2,-103 -6,38 -12,72 -16,103l-2581 0z"/>
  <g id="_1013649128">
   <path class="fil1" d="M3791 2080c88,0 159,101 159,227 0,125 -71,227 -159,227 -88,0 -159,-102 -159,-227 0,-126 71,-227 159,-227z"/>
   <path class="fil1" d="M4686 2080c88,0 159,101 159,227 0,125 -71,227 -159,227 -88,0 -159,-102 -159,-227 0,-126 71,-227 159,-227z"/>
  </g>
  <polygon class="fil3" points="6073,2380 4229,3006 4008,4027 4229,4871 6073,4245 6073,4115 6073,2638 "/>
  <polygon class="fil4" points="4229,3006 4623,3564 6442,2903 6073,2380 "/>
  <path class="fil5" d="M1315 5626c47,0 100,18 143,49l117 -238c-81,-53 -194,-81 -300,-81 -230,0 -422,136 -422,392l0 109 -153 0 0 228 153 0 0 867 326 0 0 -867 271 0 0 -228 -271 0 0 -96c0,-92 60,-135 136,-135zm544 386l0 -207 -328 0 0 1147 328 0 0 -552c0,-194 145,-320 379,-298l0 -309c-170,2 -300,78 -379,219zm1023 -217c-369,0 -616,232 -616,584 0,349 247,586 616,586 366,0 613,-237 613,-586 0,-352 -247,-584 -613,-584zm0 273c168,0 285,127 285,315 0,187 -117,315 -285,315 -171,0 -288,-128 -288,-315 0,-188 117,-315 288,-315zm1541 -263l0 567c0,166 -96,290 -254,292 -132,0 -215,-87 -215,-232l0 -627 -328 0 0 721c0,270 159,439 413,439 173,0 305,-71 384,-216l0 203 326 0 0 -1147 -326 0zm918 207l0 -207 -328 0 0 1147 328 0 0 -552c0,-194 145,-320 379,-298l0 -309c-170,2 -300,78 -379,219zm669 -697c-93,0 -159,69 -159,164 0,94 66,165 159,165 94,0 160,-71 160,-165 0,-95 -66,-164 -160,-164zm-164 490l0 1147 328 0 0 -1147 -328 0zm1108 -10c-368,0 -615,232 -615,584 0,349 247,586 615,586 367,0 614,-237 614,-586 0,-352 -247,-584 -614,-584zm0 273c169,0 286,127 286,315 0,187 -117,315 -286,315 -170,0 -287,-128 -287,-315 0,-188 117,-315 287,-315z"/>
  <rect class="fil6" x="1901" y="3996" width="484" height="484"/>
  <rect class="fil6" x="1557" y="3652" width="344" height="344"/>
  <polygon class="fil7" points="2385,2380 4229,3006 4229,3264 4229,4742 4229,4871 2826,4394 2826,4092 2978,4092 2978,3787 2674,3787 2674,3939 2385,3939 2385,2638 "/>
  <polygon class="fil4" points="4229,3006 3835,3564 2016,2903 2385,2380 "/>
 </g>
</svg>
