<?xml version="1.0" encoding="UTF-8"?>
<svg enable-background="new 0 0 124.3 95.8" version="1.1" viewBox="0 0 124.3 95.8" xml:space="preserve" xmlns="http://www.w3.org/2000/svg">
<style type="text/css">
	.st0{fill-rule:evenodd;clip-rule:evenodd;fill:#0D0E59;}
	.st1{fill-rule:evenodd;clip-rule:evenodd;fill:#FFFFFF;}
	.st2{fill:url(#a);}
	.st3{fill-rule:evenodd;clip-rule:evenodd;fill:#12EEDF;}
	.st4{fill-rule:evenodd;clip-rule:evenodd;fill:#0EDADA;}
	.st5{fill-rule:evenodd;clip-rule:evenodd;fill:#0EDBDA;}
	.st6{fill:url(#SVGID_2_);}
</style>
	<polygon class="st0" points="21.1 32.5 68 16.6 114.9 32.5 68 48.4"/>
	<path class="st0" d="m36.8 42.4c0.4-6 1.4-12.6 3.5-18.2 0.2-0.6 0.5-1.3 0.8-1.9-1.7-2.6-2.9-5.5-3.2-8.6-0.5-4 0.6-9.1 5.3-9.9 3.2-0.5 9.9 1.4 14 2.7 7.1-3 14.4-3.4 21.5-0.6 3.5-3.3 8.4-6.5 12.6-5.8 6.2 1 7.3 10.9 6.7 15.8-0.3 2.2-0.9 4.3-1.9 6.3 0.4 0.6 0.6 1.3 0.9 2 1.4 3.9 2.2 8.2 2.8 12.3 1.9 6.7 1.7 15.6 1.1 22.5v1.6h-75.3c1.8-6.9 6-13 11.2-18.2z"/>
	<path class="st1" d="m30.2 60.6c1.8-5.8 5.5-11.1 10.9-16.2 0.4-7.1 1.5-13.7 3.3-18.6 0.5-1.4 1.2-2.7 1.9-3.9-4.9-5.4-5.2-13.2-2.4-13.7 2.5-0.4 10.5 2.1 13.5 3.1 8-3.7 15.4-3.6 22.3 0 3.2-4 8.3-7.2 10.8-6.8 2.7 0.4 5.3 12 0.3 17.4 0.8 1.2 1.4 2.5 1.9 3.9 1.2 3.2 2 7.3 2.6 11.7 2 6.6 1.5 16.8 0.9 23.2h0.1v-2.6c-0.1 0.9-0.3 1.8-0.4 2.6l-65.7-0.1z"/>
		<path class="st0" d="m56.9 24.9c2.2 0 4 2.6 4 5.8s-1.8 5.8-4 5.8-4-2.6-4-5.8 1.7-5.8 4-5.8z"/>
		<path class="st0" d="m79.6 24.9c2.2 0 4 2.6 4 5.8s-1.8 5.8-4 5.8-4-2.6-4-5.8 1.8-5.8 4-5.8z"/>
		<linearGradient id="a" x1="13398" x2="13897" y1="-4280" y2="-3626.2" gradientTransform="matrix(.071998 0 0 -.071998 -892.18 -219.1)" gradientUnits="userSpaceOnUse">
		<stop stop-color="#0CC7D4" offset="0"/>
		<stop stop-color="#2ED5BF" offset="1"/>
	</linearGradient>
	<polygon class="st2" points="114.9 32.5 68 48.4 62.4 74.4 68 95.8 114.9 79.9 114.9 76.6 114.9 39"/>
	<polygon class="st3" points="68 48.4 78 62.6 124.3 45.8 114.9 32.5"/>
	<rect class="st4" x="8.8" y="73.6" width="12.3" height="12.3"/>
	<rect class="st4" y="64.8" width="8.8" height="8.8"/>
	<polygon class="st5" points="21.1 32.5 68 48.4 68 54.9 68 92.5 68 95.8 32.3 83.7 32.3 76 36.2 76 36.2 68.3 28.4 68.3 28.4 72.2 21.1 72.2 21.1 39"/>
	<polygon class="st3" points="68 48.4 57.9 62.6 11.6 45.8 21.1 32.5"/>
</svg>
