<svg viewBox="0 0 383.62 112.06" xmlns="http://www.w3.org/2000/svg"><style>[data-theme=light] .express-text{fill:#000}[data-theme=dark] .express-text{fill:#fff}</style><path class="express-text" d="M0 0h51.62v2.94H3.12v39.5h46.26v2.88H3.12v41.94h48.5v2.94H0V0Zm82.31 57.06L58.06 25.18h3.88l22.19 29.5h.12l22.25-29.5h3.81L86 56.99l24.25 33.19h-3.75l-22.31-30.5h-.12l-22.31 30.5h-3.75l24.31-33.12Zm35.38-31.87h3.06v19.25h.12c2.75-11.31 12.38-20.25 25.06-20.25 16.19 0 27.44 13.5 27.44 33.44v.12c0 20.06-11.19 33.44-27.44 33.44-12.75 0-22.5-8.94-25.06-20h-.12v40.88h-3.06V25.19Zm52.62 32.56v-.12c0-18.19-10.06-30.56-24.5-30.56s-25.06 12.44-25.06 30.56v.06c0 18.12 10.31 30.62 25.06 30.62s24.5-12.38 24.5-30.56Zm14.25-32.56h3.06v13.06h.12c2.69-8.94 8.69-14.06 17.69-14.06 2.75 0 5.25.62 6.56 1.25v3.19c-1.5-.81-3.81-1.5-7-1.5-10.75 0-17.38 9.38-17.38 22.5v40.56h-3.06v-65Zm33.19 32.5v-.06c0-20.88 11.44-33.44 28-33.44s27.94 12.5 27.94 31.94v1.75h-52.81c.25 19.62 10.44 30.44 25.69 30.44 12.12 0 20.44-6.12 23-16.25l.12-.5h3.19l-.12.56c-2.62 11.88-12.5 19.06-26.25 19.06-17.31 0-28.75-12.56-28.75-33.5Zm3.12-2.62h49.81c-.44-17-10.56-28-24.94-28s-24.44 11-24.88 28ZM281.06 72l-.06-.56h3.06l.06.5c1.31 9.5 9.88 16.44 21.56 16.44s20.12-6.12 20.12-14.88v-.06c0-7.5-4.5-11.38-15.81-14l-8.75-2.06c-12.38-2.88-18.06-7.75-18.06-15.94v-.06c0-10.06 9.12-17.19 21.62-17.19 13.12 0 21.69 7.5 23.12 19.25l.06.5h-3l-.06-.44c-1.44-10-9-16.5-20.12-16.5s-18.5 6.06-18.5 14.38v.06c0 6.81 4.56 10.56 15.88 13.19l8.75 2c12.69 3 18 7.81 18 16.69v.06c0 10.5-9.56 17.81-23.25 17.81s-23.38-8-24.62-19.19Zm54.69 0-.06-.56h3.06l.06.5c1.31 9.5 9.88 16.44 21.56 16.44s20.12-6.12 20.12-14.88v-.06c0-7.5-4.5-11.38-15.81-14l-8.75-2.06c-12.38-2.88-18.06-7.75-18.06-15.94v-.06c0-10.06 9.12-17.19 21.62-17.19 13.12 0 21.69 7.5 23.12 19.25l.06.5h-3l-.06-.44c-1.44-10-9-16.5-20.12-16.5s-18.5 6.06-18.5 14.38v.06c0 6.81 4.56 10.56 15.88 13.19l8.75 2c12.69 3 18 7.81 18 16.69v.06c0 10.5-9.56 17.81-23.25 17.81s-23.38-8-24.62-19.19Z"/></svg>
