<svg viewBox="0 0 335.27 96" xmlns="http://www.w3.org/2000/svg"><defs><style>.cls-1{fill:#57606a;}.cls-2{fill:#79b8ff;}.cls-3{fill:#2088ff;}</style></defs><g><g>
	<path class="cls-3" d="M43.93,55.34c-.51,0-1.02-.2-1.41-.58l-2.98-2.97c-.78-.78-.78-2.04,0-2.83,.78-.78,2.05-.78,2.83,0l1.57,1.56,4.73-4.72c.78-.78,2.05-.78,2.83,0,.78,.78,.78,2.05,0,2.83l-6.14,6.13c-.39,.39-.9,.59-1.41,.59Z"/>
	<path class="cls-3" d="M79.93,55.34c-.51,0-1.02-.19-1.41-.58l-2.98-2.97c-.78-.78-.79-2.04,0-2.83,.78-.78,2.05-.79,2.83,0l1.57,1.56,4.73-4.72c.78-.78,2.05-.78,2.83,0,.78,.78,.78,2.05,0,2.83l-6.14,6.13c-.39,.39-.9,.58-1.41,.58Z"/>
	<path class="cls-3" d="M16,30.41c-.67,0-1.34-.17-1.94-.5-1.27-.71-2.06-2.04-2.06-3.5V13.62c0-1.46,.79-2.8,2.07-3.5,1.28-.71,2.83-.66,4.06,.12l10.23,6.44c1.17,.74,1.87,2.01,1.87,3.4,0,1.39-.71,2.65-1.89,3.39l-10.23,6.34c-.64,.4-1.37,.6-2.11,.6Zm0-16.78v12.78l10.23-6.34-10.23-6.44Z"/>
	<path class="cls-3" d="M82,36c-7.04,0-12.86,5.23-13.84,12h-8.32c-.98-6.77-6.8-12-13.84-12s-12.86,5.23-13.84,12h-2.23c-4.83,0-8.84-3.45-9.74-8.01,10.94-.11,19.81-9.03,19.81-19.99S31.03,0,20,0,0,8.97,0,20c0,9.66,6.88,17.74,16,19.6v28.4c0,8.82,7.18,16,16,16h.16c.98,6.77,6.8,12,13.84,12,7.72,0,14-6.28,14-14s-6.28-14-14-14c-7.04,0-12.86,5.23-13.84,12h-.16c-6.62,0-12-5.38-12-12v-20.17c2.53,2.57,6.04,4.17,9.93,4.17h2.23c.98,6.77,6.8,12,13.84,12s12.86-5.23,13.84-12h8.32c.98,6.77,6.8,12,13.84,12,7.72,0,14-6.28,14-14s-6.28-14-14-14Zm-36,36c5.51,0,10,4.49,10,10s-4.49,10-10,10-10-4.49-10-10,4.49-10,10-10ZM4,20C4,11.18,11.18,4,20,4s16,7.18,16,16-7.18,16-16,16S4,28.82,4,20ZM46,60c-5.51,0-10-4.49-10-10s4.49-10,10-10,10,4.49,10,10-4.49,10-10,10Zm36,0c-5.51,0-10-4.49-10-10s4.49-10,10-10,10,4.49,10,10-4.49,10-10,10Z"/>
	<path class="cls-2" d="M42,80c1.1,0,2,.9,2,2s-.9,2-2,2-2-.89-2-2,.9-2,2-2Z"/>
	<path class="cls-2" d="M50,80c1.1,0,2,.9,2,2s-.9,2-2,2-2-.89-2-2,.9-2,2-2Z"/>
	<path class="cls-2" d="M82,68c-7.05,0-12.89,5.25-13.85,12.04-.07,0-.14-.04-.21-.03l-2.03,.07c-1.1,.04-1.97,.96-1.93,2.06,.04,1.08,.92,1.93,2,1.93,.02,0,.04,0,.07,0l2.03-.07s.05-.02,.08-.02c.97,6.78,6.8,12.01,13.84,12.01,7.72,0,14-6.28,14-14s-6.28-14-14-14Zm0,24c-5.51,0-10-4.49-10-10s4.49-10,10-10,10,4.49,10,10-4.49,10-10,10Z"/></g><g>
	<path class="cls-1" d="M130.54,84.65h-4.12v-1.87h6.32v3.8c0,3.35-2.52,5.66-6.13,5.66-4.2,0-6.62-2.82-6.62-7.71v-3.18c0-4.89,2.43-7.71,6.62-7.71,3.71,0,6.04,2.26,6.13,5.96h-2.2c-.1-2.33-1.68-3.9-3.96-3.9-2.88,0-4.38,1.94-4.38,5.64v3.18c0,3.7,1.51,5.64,4.39,5.64,2.44,0,3.95-1.44,3.95-3.77v-1.74Z"/>
	<path class="cls-1" d="M136.71,91.86v-1.74h4.6v-9.94h-4.57v-1.75h6.65v11.68h4.44v1.74h-11.12Zm3.75-18.45c0-.98,.75-1.72,1.74-1.72s1.75,.74,1.75,1.72-.75,1.73-1.75,1.73-1.74-.74-1.74-1.73Z"/>
	<path class="cls-1" d="M157.43,74.83v3.64h5.44v1.79h-5.42v7.57c0,1.46,1.03,2.25,2.92,2.25,.75,0,2.1-.04,2.46-.07v1.78c-.33,.06-1.97,.12-2.61,.12-3.33,0-4.88-1.26-4.88-4.06v-7.6h-3.58v-1.79h3.58v-3.64h2.08Z"/>
	<path class="cls-1" d="M177.08,91.86v-8.12h-7.55v8.12h-2.17v-17.86h2.17v7.73h7.55v-7.73h2.17v17.86h-2.17Z"/>
	<path class="cls-1" d="M194.47,91.86h-2.02v-2.36h-.17c-.72,1.67-2.25,2.61-4.29,2.61-2.92,0-4.5-1.75-4.5-4.96v-8.71h2.1v8.18c0,2.43,.99,3.56,3.08,3.56,2.22,0,3.7-1.55,3.7-3.84v-7.91h2.1v13.43Z"/>
	<path class="cls-1" d="M201.46,89.81h-.23v2.05h-2.07v-18.7h2.14v7.35h.22c.59-1.47,2.02-2.3,3.96-2.3,3.11,0,5.14,2.24,5.14,5.68v2.5c0,3.45-2.03,5.69-5.14,5.69-1.92,0-3.33-.79-4.02-2.28Zm7.04-3.71v-1.93c0-2.48-1.41-4.06-3.64-4.06s-3.61,1.58-3.61,4.06v1.93c0,2.49,1.41,4.07,3.61,4.07s3.64-1.6,3.64-4.07Z"/>
	<path class="cls-1" d="M239.05,86.74h-6.21l-1.56,5.12h-2.22l5.75-17.86h2.33l5.75,17.86h-2.3l-1.55-5.12Zm-5.64-1.87h5.07l-2.5-8.24h-.06l-2.51,8.24Z"/>
	<path class="cls-1" d="M255.16,82.62c-.26-1.57-1.57-2.56-3.3-2.56-2.34,0-3.64,1.6-3.64,4.48v1.21c0,2.88,1.3,4.47,3.64,4.47,1.73,0,3.04-.98,3.3-2.51h2.08c-.33,2.73-2.38,4.41-5.35,4.41-3.65,0-5.78-2.24-5.78-6.09v-1.76c0-3.85,2.13-6.09,5.78-6.09,2.97,0,5,1.68,5.35,4.44h-2.08Z"/>
	<path class="cls-1" d="M267.11,74.83v3.64h5.44v1.79h-5.42v7.57c0,1.46,1.03,2.25,2.92,2.25,.75,0,2.1-.04,2.46-.07v1.78c-.33,.06-1.97,.12-2.61,.12-3.33,0-4.88-1.26-4.88-4.06v-7.6h-3.58v-1.79h3.58v-3.64h2.08Z"/>
	<path class="cls-1" d="M277.73,91.86v-1.74h4.6v-9.94h-4.57v-1.75h6.65v11.68h4.44v1.74h-11.12Zm3.75-18.45c0-.98,.75-1.72,1.74-1.72s1.75,.74,1.75,1.72-.75,1.73-1.75,1.73-1.74-.74-1.74-1.73Z"/>
	<path class="cls-1" d="M292.84,86.17v-2.03c0-3.63,2.26-5.94,5.82-5.94s5.82,2.31,5.82,5.94v2.03c0,3.63-2.26,5.94-5.82,5.94s-5.82-2.31-5.82-5.94Zm2.08-1.84v1.65c0,2.65,1.44,4.27,3.74,4.27s3.74-1.62,3.74-4.27v-1.65c0-2.64-1.44-4.27-3.74-4.27s-3.74,1.63-3.74,4.27Z"/>
	<path class="cls-1" d="M308.83,78.43h2.02v2.36h.17c.72-1.67,2.25-2.61,4.29-2.61,2.92,0,4.5,1.75,4.5,4.96v8.71h-2.1v-8.18c0-2.43-.99-3.56-3.08-3.56-2.21,0-3.7,1.55-3.7,3.84v7.91h-2.1v-13.43Z"/>
	<path class="cls-1" d="M330.04,78.17c2.8,0,4.69,1.4,4.94,3.64h-2.03c-.25-1.18-1.37-1.89-2.95-1.89-1.71,0-2.81,.79-2.81,2.02,0,1.03,.69,1.61,2.38,1.98l1.89,.43c2.61,.59,3.8,1.73,3.8,3.68,0,2.48-2.07,4.08-5.25,4.08s-5.06-1.42-5.3-3.73h2.14c.31,1.24,1.5,1.96,3.23,1.96,1.83,0,3-.83,3-2.12,0-1.06-.66-1.63-2.36-2.02l-1.99-.46c-2.43-.56-3.63-1.78-3.63-3.69,0-2.33,1.98-3.89,4.94-3.89Z"/></g></g>
</svg>
