<?xml version="1.0" encoding="UTF-8"?><svg id="_レイヤー_2" xmlns="http://www.w3.org/2000/svg" viewBox="0 0 168.03 114.11"><defs><style>.cls-1,.cls-2,.cls-3{fill-rule:evenodd;}.cls-1,.cls-4{fill:#00758f;}.cls-5,.cls-2{fill:#f29111;}.cls-3{fill:#5d87a1;}</style></defs><g id="Layer_1"><path class="cls-3" d="M114.86,11.57c-.79,0-1.35,.1-1.92,.23v.09h.09c.38,.75,1.03,1.27,1.5,1.92,.38,.75,.7,1.5,1.08,2.24,.05-.05,.09-.09,.09-.09,.66-.47,.99-1.21,.99-2.34-.28-.33-.33-.65-.56-.98-.28-.47-.89-.7-1.26-1.08"/><g><path class="cls-4" d="M40.4,103.96h-6.48c-.23-10.94-.86-21.23-1.89-30.87h-.06l-9.87,30.87h-4.94l-9.81-30.87h-.06c-.73,9.26-1.19,19.55-1.38,30.87H0c.38-13.77,1.34-26.68,2.87-38.74H10.9l9.35,28.46h.06l9.41-28.46h7.69c1.68,14.12,2.68,27.03,2.98,38.74"/><path class="cls-4" d="M68.52,75.38c-2.64,14.32-6.12,24.73-10.44,31.23-3.37,5-7.06,7.51-11.08,7.51-1.07,0-2.39-.32-3.96-.96v-3.45c.77,.11,1.66,.17,2.7,.17,1.87,0,3.38-.52,4.53-1.55,1.38-1.26,2.06-2.68,2.06-4.25,0-1.07-.54-3.27-1.61-6.6l-7.12-22.09h6.37l5.11,16.52c1.15,3.75,1.63,6.37,1.43,7.86,2.79-7.46,4.74-15.59,5.85-24.39h6.14Z"/><polygon class="cls-5" points="154.82 103.96 136.4 103.96 136.4 65.22 142.6 65.22 142.6 99.19 154.82 99.19 154.82 103.96"/><path class="cls-2" d="M131.58,104.89l-7.12-3.51c.63-.52,1.24-1.08,1.78-1.73,3.02-3.55,4.54-8.81,4.54-15.78,0-12.81-5.03-19.23-15.09-19.23-4.93,0-8.78,1.62-11.54,4.88-3.02,3.56-4.53,8.8-4.53,15.72s1.34,11.8,4.02,14.98c2.45,2.87,6.14,4.3,11.08,4.3,1.84,0,3.53-.23,5.07-.68l9.27,5.4,2.53-4.35Zm-23.07-8.68c-1.57-2.52-2.35-6.58-2.35-12.16,0-9.75,2.97-14.63,8.89-14.63,3.1,0,5.37,1.17,6.83,3.5,1.57,2.53,2.35,6.54,2.35,12.05,0,9.83-2.97,14.75-8.89,14.75-3.1,0-5.37-1.16-6.83-3.5"/><path class="cls-5" d="M96.92,93.22c0,3.29-1.21,5.98-3.61,8.09-2.41,2.1-5.64,3.15-9.69,3.15-3.79,0-7.46-1.21-11.02-3.62l1.66-3.33c3.06,1.53,5.83,2.29,8.32,2.29,2.33,0,4.16-.52,5.48-1.54,1.32-1.03,2.11-2.47,2.11-4.3,0-2.3-1.6-4.27-4.55-5.91-2.72-1.49-8.15-4.6-8.15-4.6-2.94-2.15-4.42-4.45-4.42-8.24,0-3.14,1.1-5.67,3.3-7.6,2.2-1.93,5.04-2.9,8.52-2.9s6.87,.96,9.81,2.87l-1.5,3.32c-2.52-1.07-5-1.6-7.46-1.6-1.99,0-3.52,.48-4.59,1.44-1.07,.95-1.74,2.18-1.74,3.67,0,2.29,1.64,4.28,4.66,5.96,2.75,1.49,8.31,4.66,8.31,4.66,3.03,2.14,4.53,4.43,4.53,8.19"/><path class="cls-1" d="M162.6,52.25c-3.75-.09-6.65,.28-9.08,1.31-.7,.28-1.82,.28-1.92,1.17,.38,.37,.42,.98,.75,1.5,.56,.94,1.54,2.2,2.43,2.85,.98,.75,1.97,1.5,3,2.15,1.82,1.13,3.88,1.78,5.66,2.9,1.03,.65,2.06,1.5,3.09,2.2,.51,.37,.84,.98,1.5,1.21v-.14c-.33-.42-.42-1.03-.75-1.5-.47-.46-.94-.89-1.41-1.35-1.36-1.83-3.04-3.42-4.87-4.73-1.5-1.03-4.78-2.44-5.38-4.16,0,0-.05-.05-.09-.1,1.03-.09,2.25-.47,3.23-.75,1.59-.42,3.04-.33,4.68-.75,.75-.19,1.5-.42,2.25-.65v-.42c-.85-.84-1.45-1.97-2.34-2.76-2.38-2.06-5.01-4.07-7.72-5.76-1.45-.94-3.33-1.54-4.87-2.34-.56-.28-1.49-.42-1.82-.89-.84-1.03-1.31-2.38-1.92-3.6-1.36-2.57-2.67-5.42-3.84-8.14-.84-1.82-1.36-3.65-2.39-5.33-4.82-7.96-10.06-12.78-18.11-17.5-1.73-.98-3.79-1.41-5.99-1.92-1.17-.05-2.34-.14-3.51-.19-.75-.33-1.5-1.22-2.15-1.64-2.67-1.68-9.55-5.33-11.51-.51-1.26,3.04,1.87,6.04,2.95,7.58,.79,1.08,1.83,2.29,2.38,3.51,.33,.8,.42,1.64,.75,2.48,.75,2.06,1.45,4.35,2.43,6.27,.51,.98,1.07,2.01,1.73,2.9,.38,.52,1.03,.75,1.17,1.59-.65,.93-.7,2.34-1.08,3.51-1.68,5.29-1.03,11.84,1.36,15.73,.75,1.17,2.53,3.75,4.92,2.76,2.11-.84,1.64-3.51,2.25-5.85,.14-.57,.05-.94,.33-1.31v.09c.65,1.31,1.31,2.57,1.92,3.88,1.45,2.29,3.98,4.68,6.09,6.27,1.12,.85,2.01,2.29,3.41,2.81v-.14h-.09c-.28-.42-.7-.61-1.08-.93-.84-.84-1.78-1.87-2.43-2.81-1.96-2.62-3.7-5.52-5.24-8.52-.75-1.45-1.4-3.04-2.01-4.49-.28-.56-.28-1.4-.75-1.68-.7,1.03-1.73,1.92-2.25,3.18-.89,2.01-.98,4.5-1.31,7.07-.19,.05-.09,0-.19,.09-1.5-.37-2.01-1.92-2.57-3.22-1.4-3.33-1.64-8.66-.42-12.5,.33-.98,1.73-4.07,1.17-5.01-.28-.89-1.22-1.4-1.73-2.11-.61-.89-1.27-2.01-1.68-3-1.12-2.62-1.69-5.52-2.9-8.14-.56-1.22-1.55-2.48-2.34-3.6-.89-1.26-1.87-2.15-2.58-3.65-.23-.52-.56-1.36-.19-1.92,.09-.37,.28-.52,.66-.61,.61-.51,2.34,.14,2.95,.42,1.73,.7,3.18,1.36,4.63,2.34,.66,.47,1.36,1.36,2.2,1.59h.98c1.5,.32,3.18,.09,4.59,.51,2.48,.79,4.72,1.97,6.74,3.23,6.13,3.89,11.18,9.41,14.6,16.01,.56,1.07,.8,2.06,1.31,3.18,.98,2.3,2.2,4.64,3.18,6.88,.98,2.2,1.92,4.44,3.33,6.27,.7,.98,3.51,1.5,4.77,2.01,.93,.42,2.39,.79,3.23,1.31,1.59,.98,3.18,2.11,4.68,3.18,.75,.56,3.09,1.73,3.23,2.67"/><path class="cls-5" d="M167.06,103.95h.97v-4.75h-1.46l-1.19,3.24-1.29-3.24h-1.4v4.75h.92v-3.61h.05l1.35,3.61h.7l1.35-3.61v3.61Zm-7.81,0h1.03v-3.94h1.34v-.81h-3.77v.81h1.4v3.94Z"/></g></g></svg>