<svg viewBox="0 0 537.31 113.56" fill="none" xmlns="http://www.w3.org/2000/svg">
<style>[data-theme=light] .typeorm-text{fill:#000}[data-theme=dark] .typeorm-text{fill:#fff}</style>
	<path fill="#e83524" d="M28.44,11.62H0V1.5H68.12V11.62h-28.44V91.69h-11.25V11.62Z"/>
	<path fill="#e83524" d="M78.75,113.06v-8.88c.94,.19,2.19,.38,3.5,.38,6.88,0,10.69-1.75,13.31-9.12l1.31-3.69L72.75,26.69h11.62l17.94,54.12h.25l18-54.12h11.44l-25.38,69.06c-4.62,12.44-10.31,17.81-22.06,17.81-2.12,0-4.44-.25-5.81-.5Z"/>
	<path fill="#e83524" d="M140.56,26.69h10.88v11h.25c4.06-7.56,11.31-12.25,20.62-12.25,16.62,0,27.62,13.25,27.62,33.75v.06c0,20.5-11.12,33.69-27.44,33.69-9.19,0-16.75-4.62-20.81-12.12h-.25v32.75h-10.88V26.69Zm48.25,32.56v-.06c0-14.94-7.12-24.12-18.62-24.12s-18.81,9.56-18.81,24.12v.06c0,14.5,7.88,24.06,18.81,24.06,11.5,0,18.62-9.25,18.62-24.06Z"/>
	<path fill="#e83524" d="M207.69,59.44v-.06c0-20.12,11.5-33.94,29.25-33.94s28.56,13.19,28.56,32.69v4h-46.81c.25,13.38,7.62,21.19,19.19,21.19,8.25,0,14.06-4.12,15.94-9.69l.19-.56h10.69l-.12,.62c-2.12,10.75-12.75,19.25-26.94,19.25-18.69,0-29.94-13.06-29.94-33.5Zm11.19-5.81h35.56c-1.06-12.62-8.06-18.56-17.56-18.56s-16.81,6.44-18,18.56Z"/>
	<path class="typeorm-text" d="M274.62,46.62v-.12c0-28.56,16.06-46.5,41.62-46.5s41.5,17.94,41.5,46.5v.12c0,28.62-15.94,46.56-41.5,46.56s-41.62-17.94-41.62-46.56Zm71.62,0v-.12c0-22.12-11.62-36.12-30-36.12s-30.12,13.94-30.12,36.12v.12c0,22.19,11.62,36.19,30.12,36.19s30-14.19,30-36.19Z"/>
	<path class="typeorm-text" d="M371.75,1.5h33.81c17.38,0,28.75,10.62,28.75,26.88v.12c0,12.5-6.88,22.19-18.12,25.75l20.88,37.44h-13.19l-19.31-35.69h-21.56v35.69h-11.25V1.5Zm32.81,44.56c11.56,0,18.12-6.25,18.12-17.31v-.12c0-10.75-7.06-17.12-18.62-17.12h-21.06V46.06h21.56Z"/>
	<path class="typeorm-text" d="M448.44,1.5h13l31.25,76h.38L524.31,1.5h13V91.69h-10.5V22h-.38l-28.81,69.69h-9.5l-28.81-69.69h-.38V91.69h-10.5V1.5Z"/>
</svg>
