<?xml version="1.0" encoding="utf-8"?>
<!-- Generator: Adobe Illustrator 25.0.0, SVG Export Plug-In . SVG Version: 6.00 Build 0)  -->
<svg version="1.1" id="レイヤー_1" xmlns="http://www.w3.org/2000/svg" xmlns:xlink="http://www.w3.org/1999/xlink" x="0px"
	 y="0px" viewBox="0 0 595.3 595.3" style="enable-background:new 0 0 595.3 595.3;" xml:space="preserve">
<style type="text/css">
	.st0{fill:none;stroke:#999999;stroke-width:0.9997;stroke-miterlimit:10;}
	.st1{fill:#0D0E59;}
	.st2{fill-rule:evenodd;clip-rule:evenodd;fill:#0D0E59;}
	.st3{fill-rule:evenodd;clip-rule:evenodd;fill:#FFFFFF;}
	.st4{fill:url(#SVGID_1_);}
	.st5{fill-rule:evenodd;clip-rule:evenodd;fill:#12EEDF;}
	.st6{fill-rule:evenodd;clip-rule:evenodd;fill:#0EDADA;}
	.st7{fill-rule:evenodd;clip-rule:evenodd;fill:#0EDBDA;}
	.st8{fill:#999999;}
	.st9{fill:url(#SVGID_2_);}
	.st10{fill-rule:evenodd;clip-rule:evenodd;fill:#08C6D6;}
	.st11{fill:url(#SVGID_3_);}
	.st12{fill:url(#SVGID_4_);}
</style>
<line class="st0" x1="297.6" y1="25" x2="297.6" y2="570.3"/>
<line class="st0" x1="297.6" y1="253" x2="29.3" y2="253"/>
<path class="st1" d="M57.7,187.6c1.2,0,2.5,0.4,3.6,1.2l3-6c-2.1-1.4-4.9-2.1-7.6-2.1c-5.8,0-10.7,3.5-10.7,9.9v2.7h-4v5.8h3.9V221
	h8.3v-21.9H61v-5.8h-6.8V191C54.2,188.7,55.7,187.6,57.7,187.6z"/>
<path id="_x31_" class="st1" d="M71.3,197.4v-5.3H63V221h8.3v-13.9c0-4.9,3.7-8.1,9.6-7.6v-7.8C76.7,191.9,73.4,193.8,71.3,197.4z"
	/>
<path id="_x32_" class="st1" d="M97.2,191.9c-9.3,0-15.6,5.9-15.6,14.8c0,8.9,6.3,14.8,15.6,14.8s15.6-6,15.6-14.8
	C112.7,197.8,106.5,191.9,97.2,191.9z M97.2,198.8c4.2,0,7.3,3.2,7.3,8c0,4.7-3,7.9-7.3,7.9s-7.3-3.2-7.3-7.9
	C89.9,202,92.9,198.8,97.2,198.8z"/>
<path id="_x33_" class="st1" d="M136.1,192.2v14.3c0,4.2-2.4,7.3-6.4,7.3c-3.3,0-5.4-2.2-5.4-5.8v-15.8H116v18.2
	c0,6.8,4.1,11.1,10.4,11.1c4.4,0,7.7-1.8,9.7-5.5v5.1h8.3v-28.9L136.1,192.2L136.1,192.2z"/>
<path id="_x34_" class="st1" d="M159.3,197.4v-5.3H151V221h8.3v-13.9c0-4.9,3.7-8.1,9.6-7.6v-7.8
	C164.7,191.9,161.3,193.8,159.3,197.4z"/>
<path id="_x35_" class="st1" d="M176.3,179.8c-2.4,0-4,1.7-4,4.2c0,2.3,1.7,4.1,4,4.1s4-1.8,4-4.1
	C180.3,181.5,178.6,179.8,176.3,179.8z M172.1,192.2v28.9h8.3v-28.9H172.1z"/>
<path id="_x36_" class="st1" d="M200.2,191.9c-9.4,0-15.6,5.9-15.6,14.8c0,8.9,6.2,14.8,15.6,14.8c9.2,0,15.5-6,15.5-14.8
	C215.6,197.8,209.4,191.9,200.2,191.9z M200.2,198.8c4.2,0,7.2,3.2,7.2,8c0,4.7-3,7.9-7.2,7.9c-4.3,0-7.3-3.2-7.3-7.9
	C192.9,202,195.8,198.8,200.2,198.8z"/>
<g id="_789008448">
	<polygon class="st2" points="84.7,105.6 131.3,89.8 177.8,105.6 131.3,121.4 	"/>
	<path class="st2" d="M100.3,115.5c0.5-6,1.4-12.5,3.5-18.1c0.3-0.6,0.5-1.2,0.8-1.9c-1.7-2.5-2.8-5.5-3.2-8.5
		c-0.6-4,0.6-9.1,5.3-9.9c3.2-0.5,9.7,1.4,13.8,2.7c7.1-2.9,14.3-3.2,21.3-0.6c3.5-3.2,8.4-6.4,12.5-5.8c6.1,1,7.2,10.8,6.6,15.7
		c-0.3,2.2-0.9,4.2-1.9,6.2c0.3,0.6,0.6,1.3,0.9,2c1.4,3.9,2.2,8.1,2.8,12.2c1.9,6.7,1.7,15.6,1.1,22.4c0,0.5,0,1.1-0.1,1.6H89.2
		C91.1,126.6,95.2,120.7,100.3,115.5z"/>
	<path class="st3" d="M93.8,133.6c1.8-5.7,5.5-11,10.8-16.1c0.4-7.1,1.5-13.6,3.3-18.6c0.5-1.3,1.1-2.6,1.9-3.8
		c-4.9-5.3-5.2-13.1-2.4-13.5c2.5-0.4,10.4,2.1,13.4,3c7.9-3.7,15.3-3.6,22.1,0c3.2-4,8.2-7.1,10.7-6.7c2.7,0.4,5.2,11.9,0.3,17.2
		c0.8,1.3,1.4,2.5,1.9,3.8c1.2,3.3,2.1,7.3,2.7,11.6c1.9,6.6,1.4,16.6,0.8,23h0.1c0-0.9,0.1-1.7,0.1-2.6c-0.1,0.9-0.3,1.8-0.4,2.6
		H93.8V133.6z"/>
	<g>
		<path class="st2" d="M120.2,98.1c2.2,0,4,2.5,4,5.7s-1.8,5.8-4,5.8s-4-2.6-4-5.8S118.1,98.1,120.2,98.1z"/>
		<path class="st2" d="M142.8,98.1c2.2,0,4,2.5,4,5.7s-1.8,5.8-4,5.8s-4-2.6-4-5.8S140.6,98.1,142.8,98.1z"/>
	</g>
	
		<linearGradient id="SVGID_1_" gradientUnits="userSpaceOnUse" x1="1536.8176" y1="251.3796" x2="2032.1775" y2="-397.3002" gradientTransform="matrix(7.199757e-02 0 0 7.199757e-02 25.0561 143.6314)">
		<stop  offset="0" style="stop-color:#0CC7D4"/>
		<stop  offset="1" style="stop-color:#2ED5BF"/>
	</linearGradient>
	<polygon class="st4" points="177.8,105.6 131.3,121.4 125.7,147.2 131.3,168.5 177.8,152.7 177.8,149.4 177.8,112.2 	"/>
	<polygon class="st5" points="131.3,121.4 141.3,135.5 187.2,118.8 177.8,105.6 	"/>
	<rect x="72.6" y="146.4" class="st6" width="12.2" height="12.2"/>
	<rect x="63.9" y="137.7" class="st6" width="8.7" height="8.7"/>
	<polygon class="st7" points="84.7,105.6 131.3,121.4 131.3,127.9 131.3,165.2 131.3,168.5 95.9,156.5 95.9,148.8 99.7,148.8 
		99.7,141.1 92.1,141.1 92.1,145 84.7,145 84.7,112.2 	"/>
	<polygon class="st5" points="131.3,121.4 121.4,135.5 75.5,118.8 84.7,105.6 	"/>
</g>
<path class="st8" d="M50.9,33.8c-1.2,0-2.2,0.5-2.6,1.7c-0.3-1-1.1-1.7-2.3-1.7s-2,0.4-2.4,1.4v-1.3H42v6.8h1.5v-3.3
	c0-1.2,0.6-2.1,1.9-2.2c1,0,1.6,0.6,1.6,1.7v3.8h1.4v-3.3c0-1.2,0.7-2.1,1.9-2.2c1,0,1.6,0.6,1.6,1.7v3.8h1.5v-4.2
	C53.4,34.8,52.5,33.8,50.9,33.8z"/>
<path id="_x31__1_" class="st8" d="M60.8,40.6v-4.5c0-1.4-1-2.4-2.7-2.4c-1.3,0-1.9,0.3-2.9,0.9l0.6,1c0.6-0.4,1.4-0.6,2-0.6
	c1.1,0,1.6,0.5,1.6,1.4v0.2h-2c-1.7,0-2.6,0.8-2.6,2s0.9,2.1,2.4,2.1c1,0,1.8-0.3,2.2-0.9v0.8H60.8z M57.5,39.5
	c-0.9,0-1.4-0.4-1.4-1s0.4-0.9,1.4-0.9h1.8v0.6C59.3,39,58.5,39.5,57.5,39.5z"/>
<path id="_x32__1_" class="st8" d="M63.6,31c-0.5,0-0.9,0.4-0.9,0.9c0,0.5,0.4,0.9,0.9,0.9c0.4,0,0.9-0.4,0.9-0.9
	C64.4,31.4,64,31,63.6,31z M62.9,33.8v6.8h1.4v-6.8H62.9z"/>
<path id="_x33__1_" class="st8" d="M70.4,33.8c-1.2,0-2,0.4-2.5,1.4v-1.3h-1.4v6.8h1.4V37c0.1-1.1,0.8-1.8,1.9-1.9
	c1,0,1.7,0.6,1.7,1.7v3.8h1.4v-4.2C72.9,34.8,72,33.8,70.4,33.8z"/>
<polygon id="_x34__1_" class="st8" points="78.8,31.2 78.8,40.6 80.3,40.6 80.3,31.2 "/>
<path id="_x35__1_" class="st8" d="M85.4,33.8c-2.1,0-3.5,1.4-3.5,3.5c0,2,1.4,3.5,3.5,3.5s3.5-1.4,3.5-3.5S87.5,33.8,85.4,33.8z
	 M85.4,35.1c1.2,0,2.1,0.9,2.1,2.2c0,1.4-0.9,2.2-2.1,2.2s-2.1-0.9-2.1-2.2C83.3,35.9,84.2,35.1,85.4,35.1z"/>
<path id="_x36__1_" class="st8" d="M95.1,33.8v1.1c-0.5-0.7-1.2-1.2-2.3-1.2c-1.8,0.1-3,1.4-3,3.2c0,1.9,1.2,3.3,3.1,3.3
	c1,0,1.7-0.4,2.2-1.2v1c0,1.2-0.9,1.9-2.2,1.9c-0.8,0-1.4-0.2-2.1-0.7l-0.6,1.1c0.9,0.5,1.7,0.9,2.8,0.9c2.2,0,3.5-1.2,3.5-3.2v-6.1
	h-1.4V33.8z M93.2,39.2c-1.2,0-1.9-0.9-2-2.1c0.1-1.2,0.9-2.1,2-2.1c1.2,0,1.9,0.9,1.9,2.1S94.3,39.2,93.2,39.2z"/>
<path id="_x37_" class="st8" d="M101.5,33.8c-2.2,0-3.6,1.4-3.6,3.5c0,2,1.4,3.5,3.6,3.5c2.1,0,3.5-1.4,3.5-3.5
	S103.6,33.8,101.5,33.8z M101.5,35.1c1.2,0,2,0.9,2,2.2c0,1.4-0.9,2.2-2,2.2c-1.2,0-2.1-0.9-2.1-2.2
	C99.4,35.9,100.3,35.1,101.5,35.1z"/>
<path class="st1" d="M131.3,303.5c1,0,2.2,0.4,3.1,1.1l2.5-5.2c-1.7-1.2-4.2-1.7-6.5-1.7c-5,0-9.1,3-9.1,8.5v2.3H118v5h3.3v18.8h7.1
	v-18.8h5.8v-5h-5.8v-2.1C128.4,304.5,129.7,303.5,131.3,303.5z"/>
<path id="_x31__2_" class="st1" d="M143.1,311.9v-4.5H136v24.8h7.1v-12c0-4.2,3.2-6.9,8.3-6.5V307
	C147.6,307.2,144.8,308.9,143.1,311.9z"/>
<path id="_x32__2_" class="st1" d="M165.2,307.2c-8,0-13.3,5-13.3,12.6s5.3,12.7,13.3,12.7s13.3-5.1,13.3-12.7
	C178.6,312.3,173.2,307.2,165.2,307.2z M165.2,313.1c3.7,0,6.2,2.7,6.2,6.8c0,4-2.5,6.8-6.2,6.8S159,324,159,320
	C159,315.9,161.6,313.1,165.2,313.1z"/>
<path id="_x33__2_" class="st1" d="M198.6,307.4v12.2c0,3.6-2.1,6.3-5.5,6.3c-2.9,0-4.7-1.9-4.7-5v-13.5h-7.1V323
	c0,5.8,3.5,9.5,9,9.5c3.7,0,6.6-1.5,8.3-4.7v4.4h7.1v-24.8H198.6z"/>
<path id="_x34__2_" class="st1" d="M218.6,311.9v-4.5h-7.1v24.8h7.1v-12c0-4.2,3.1-6.9,8.2-6.5V307
	C223,307.2,220.2,308.9,218.6,311.9z"/>
<path id="_x35__2_" class="st1" d="M233.1,296.8c-2,0-3.5,1.5-3.5,3.6c0,2,1.4,3.5,3.5,3.5s3.5-1.5,3.5-3.5
	C236.5,298.3,235.1,296.8,233.1,296.8z M229.5,307.4v24.8h7.1v-24.8H229.5z"/>
<path id="_x36__2_" class="st1" d="M253.5,307.2c-8,0-13.3,5-13.3,12.6s5.3,12.7,13.3,12.7c7.9,0,13.3-5.1,13.3-12.7
	C266.8,312.3,261.4,307.2,253.5,307.2z M253.5,313.1c3.7,0,6.2,2.7,6.2,6.8c0,4-2.5,6.8-6.2,6.8s-6.2-2.8-6.2-6.8
	C247.3,315.9,249.8,313.1,253.5,313.1z"/>
<g id="_788993016">
	<polygon class="st2" points="48.3,308.5 73.9,299.8 99.5,308.5 73.9,317.2 	"/>
	<path class="st2" d="M56.8,313.9c0.3-3.3,0.8-6.8,1.9-9.9c0.1-0.4,0.3-0.6,0.4-1c-0.9-1.4-1.6-3-1.8-4.7c-0.3-2.2,0.4-5,3-5.4
		c1.7-0.3,5.3,0.7,7.6,1.4c4-1.6,7.8-1.8,11.7-0.3c1.9-1.8,4.6-3.5,6.9-3.2c3.4,0.6,4,5.9,3.6,8.6c-0.1,1.2-0.4,2.4-1,3.5
		c0.1,0.4,0.4,0.7,0.4,1.1c0.8,2.2,1.3,4.5,1.6,6.7c1,3.7,0.9,8.6,0.6,12.3c0,0.3,0,0.6,0,0.9h-41C51.8,320,54,316.8,56.8,313.9z"/>
	<path class="st3" d="M53.3,323.8c0.9-3.1,3-6,5.9-8.9c0.3-3.8,0.9-7.4,1.8-10.2c0.3-0.7,0.6-1.4,1.1-2.1c-2.7-3-2.9-7.2-1.4-7.5
		c1.4-0.2,5.8,1.2,7.3,1.7c4.4-2,8.4-1.9,12.2,0c1.7-2.2,4.5-3.9,5.9-3.7c1.5,0.2,2.9,6.6,0.1,9.5c0.4,0.6,0.8,1.4,1.1,2.1
		c0.6,1.8,1.1,4,1.4,6.3c1.1,3.7,0.8,9.2,0.4,12.7h0.1c0-0.4,0.1-0.9,0.1-1.4c-0.1,0.5-0.2,0.9-0.2,1.4H53.3V323.8z"/>
	<g>
		<path class="st2" d="M67.8,304.3c1.2,0,2.2,1.4,2.2,3.2s-0.9,3.2-2.2,3.2s-2.2-1.4-2.2-3.2S66.6,304.3,67.8,304.3z"/>
		<path class="st2" d="M80.2,304.3c1.2,0,2.2,1.4,2.2,3.2s-1,3.2-2.2,3.2s-2.2-1.4-2.2-3.2S79,304.3,80.2,304.3z"/>
	</g>
	
		<linearGradient id="SVGID_2_" gradientUnits="userSpaceOnUse" x1="712.1019" y1="2718.8982" x2="984.5519" y2="2362.1179" gradientTransform="matrix(7.199757e-02 0 0 7.199757e-02 25.0561 143.6314)">
		<stop  offset="0" style="stop-color:#0CC7D4"/>
		<stop  offset="1" style="stop-color:#2ED5BF"/>
	</linearGradient>
	<polygon class="st9" points="99.5,308.5 73.9,317.2 70.8,331.4 73.9,343.1 99.5,334.4 99.5,332.6 99.5,312.1 	"/>
	<polygon class="st5" points="73.9,317.2 79.3,324.9 104.6,315.8 99.5,308.5 	"/>
	<rect x="41.5" y="331" class="st6" width="6.7" height="6.7"/>
	<rect x="36.8" y="326.1" class="st6" width="4.8" height="4.8"/>
	<polygon class="st7" points="48.3,308.5 73.9,317.2 73.9,320.7 73.9,341.3 73.9,343.1 54.4,336.4 54.4,332.3 56.5,332.3 56.5,328 
		52.3,328 52.3,330.2 48.3,330.2 48.3,312.1 	"/>
	<polygon class="st5" points="73.9,317.2 68.4,324.9 43.1,315.8 48.3,308.5 	"/>
</g>
<path class="st8" d="M45.9,266.2l0.5-1.1c-0.6-0.4-1.5-0.7-2.3-0.7c-1.3,0-2.5,0.6-2.5,1.9c0,2.4,3.5,1.7,3.5,3.1
	c0,0.5-0.4,0.7-1.1,0.7c-0.7,0-1.7-0.3-2.3-0.9l-0.5,1.1c0.6,0.6,1.7,0.9,2.7,0.9c1.4,0,2.6-0.6,2.6-2c0-2.4-3.6-1.8-3.6-3
	c0-0.5,0.4-0.7,1-0.7S45.4,265.8,45.9,266.2z"/>
<path id="_x31__3_" class="st8" d="M50.8,264.4c-2,0.1-3.4,1.4-3.4,3.5s1.4,3.5,3.5,3.5c1.2,0,2.2-0.4,2.8-1.2l-0.8-0.8
	c-0.5,0.5-1.2,0.7-1.9,0.7c-1,0-1.9-0.6-2.1-1.7H54C54.2,266,53.2,264.4,50.8,264.4z M48.9,267.3c0.1-1.1,0.9-1.7,2-1.7
	s1.8,0.6,1.9,1.7H48.9z"/>
<path id="_x32__3_" class="st8" d="M60.3,266.5l0.8-0.9c-0.6-0.7-1.6-1.2-2.8-1.2c-2,0-3.4,1.4-3.4,3.5s1.4,3.5,3.4,3.5
	c1.3,0,2.3-0.4,2.9-1.3l-0.8-0.8c-0.5,0.6-1.2,0.8-2,0.8c-1.2,0-2-0.9-2-2.2s0.9-2.2,2-2.2C59.2,265.7,59.8,266,60.3,266.5z"/>
<path id="_x33__3_" class="st8" d="M65.4,264.4c-2.1,0-3.5,1.4-3.5,3.5s1.4,3.5,3.5,3.5s3.5-1.4,3.5-3.5S67.5,264.4,65.4,264.4z
	 M65.4,265.7c1.2,0,2.1,0.9,2.1,2.2c0,1.4-0.9,2.2-2.1,2.2s-2.1-0.9-2.1-2.2C63.3,266.5,64.1,265.7,65.4,265.7z"/>
<path id="_x34__3_" class="st8" d="M74.4,264.4c-1.2,0-2,0.4-2.4,1.4v-1.3h-1.5v6.8H72v-3.6c0.1-1.1,0.8-1.8,1.9-1.9
	c1.1,0,1.7,0.6,1.7,1.7v3.8H77V267C76.9,265.4,76,264.4,74.4,264.4z"/>
<path id="_x35__3_" class="st8" d="M83.9,261.8v3.8c-0.5-0.8-1.3-1.2-2.4-1.2c-1.9,0-3.2,1.4-3.2,3.5c0,2,1.3,3.5,3.2,3.5
	c1.1,0,1.9-0.4,2.4-1.2v1.2h1.4V262h-1.4V261.8z M81.8,270.1c-1.2,0-2.1-0.9-2.1-2.2c0-1.4,0.9-2.2,2.1-2.2s2.1,0.9,2.1,2.2
	C83.9,269.1,83,270.1,81.8,270.1z"/>
<path id="_x36__3_" class="st8" d="M93.1,271.2v-4.5c-0.1-1.4-1-2.4-2.8-2.4c-1.2,0-1.9,0.3-2.9,0.9l0.6,1c0.7-0.4,1.4-0.6,2-0.6
	c1.1,0,1.7,0.5,1.7,1.4v0.2h-2.1c-1.7,0-2.6,0.8-2.6,2s0.9,2.1,2.4,2.1c0.9,0,1.7-0.3,2.2-0.9v0.8H93.1z M89.7,270.1
	c-0.9,0-1.3-0.4-1.3-1s0.4-0.9,1.4-0.9h1.9v0.6C91.6,269.6,90.7,270.1,89.7,270.1z"/>
<path id="_x37__1_" class="st8" d="M96.5,265.8v-1.4H95v6.8h1.4v-3.5c0.1-1.2,1-1.9,2.4-1.9v-1.4C97.8,264.4,97,264.9,96.5,265.8z"
	/>
<path id="_x38_" class="st8" d="M103,272.2l3.1-7.7h-1.4l-1.9,5.1l-2.1-5.1h-1.5l2.8,6.7l-0.2,0.5c-0.2,0.5-0.6,0.7-1,0.7
	c-0.3,0-0.6-0.1-0.9-0.3l-0.6,1.1c0.4,0.4,0.9,0.6,1.6,0.6C101.9,273.7,102.6,273.2,103,272.2z"/>
<polygon id="_x39_" class="st8" points="111,261.8 111,271.2 112.5,271.2 112.5,261.8 "/>
<path id="_x31_0" class="st8" d="M117.6,264.4c-2.1,0-3.5,1.4-3.5,3.5s1.4,3.5,3.5,3.5s3.5-1.4,3.5-3.5S119.7,264.4,117.6,264.4z
	 M117.6,265.7c1.2,0,2.1,0.9,2.1,2.2c0,1.4-0.9,2.2-2.1,2.2s-2.1-0.9-2.1-2.2C115.6,266.5,116.4,265.7,117.6,265.7z"/>
<path id="_x31_1" class="st8" d="M127.4,264.4v1.1c-0.5-0.7-1.2-1.2-2.3-1.2c-1.8,0.1-3,1.4-3,3.2c0,1.9,1.2,3.3,3.1,3.3
	c1,0,1.7-0.4,2.2-1.2v0.9c0,1.2-0.9,1.9-2.2,1.9c-0.8,0-1.4-0.2-2.1-0.7l-0.6,1.1c0.9,0.5,1.8,0.9,2.8,0.9c2.2,0,3.5-1.2,3.5-3.2
	v-6.1L127.4,264.4L127.4,264.4z M125.4,269.8c-1.2,0-1.9-0.9-2-2.1c0.1-1.2,0.9-2.1,2-2.1s1.9,0.9,1.9,2.1
	C127.4,268.9,126.6,269.8,125.4,269.8z"/>
<path id="_x31_2" class="st8" d="M133.8,264.4c-2.2,0-3.6,1.4-3.6,3.5s1.4,3.5,3.6,3.5c2.1,0,3.5-1.4,3.5-3.5
	S135.9,264.4,133.8,264.4z M133.8,265.7c1.2,0,2,0.9,2,2.2c0,1.4-0.9,2.2-2,2.2c-1.2,0-2.1-0.9-2.1-2.2
	C131.7,266.5,132.5,265.7,133.8,265.7z"/>
<g id="_788990352">
	<path class="st1" d="M342.4,59.6c1.2,0,2.4,0.4,3.5,1.2l2.8-5.8c-1.9-1.3-4.7-2-7.3-2c-5.6,0-10.3,3.4-10.3,9.6v2.7h-3.7v5.5h3.7
		V92h8V70.8h6.6v-5.5h-6.6V63C339.1,60.7,340.5,59.6,342.4,59.6z"/>
	<path id="_x31__4_" class="st1" d="M355.7,69v-5h-8.1v28h8.1V78.5c0-4.7,3.5-7.8,9.2-7.3v-7.6C360.8,63.7,357.6,65.6,355.7,69z"/>
	<path id="_x32__4_" class="st1" d="M380.7,63.7c-9,0-15,5.7-15,14.3s6,14.3,15,14.3s15-5.8,15-14.3S389.7,63.7,380.7,63.7z
		 M380.7,70.4c4.2,0,7,3.1,7,7.7c0,4.5-2.8,7.7-7,7.7c-4.1,0-7-3.2-7-7.7C373.7,73.5,376.5,70.4,380.7,70.4z"/>
	<path id="_x33__4_" class="st1" d="M418.3,64v13.8c0,4-2.4,7.1-6.2,7.1c-3.2,0-5.3-2.2-5.3-5.7V64h-8v17.6
		c0,6.6,3.9,10.7,10.1,10.7c4.2,0,7.4-1.7,9.4-5.3v5h8V64H418.3z"/>
	<path id="_x34__4_" class="st1" d="M440.8,69v-5h-8.1v28h8.1V78.5c0-4.7,3.5-7.8,9.2-7.3v-7.6C445.8,63.7,442.6,65.6,440.8,69z"/>
	<path id="_x35__4_" class="st1" d="M457.1,52.1c-2.3,0-4,1.7-4,4s1.7,4,4,4c2.2,0,3.9-1.7,3.9-4C461,53.7,459.3,52.1,457.1,52.1z
		 M453.1,64v28h8V64H453.1z"/>
	<path id="_x36__4_" class="st1" d="M480.2,63.7c-9,0-15,5.7-15,14.3s6,14.3,15,14.3c8.9,0,15-5.8,15-14.3S489.1,63.7,480.2,63.7z
		 M480.2,70.4c4.1,0,7,3.1,7,7.7c0,4.5-2.9,7.7-7,7.7c-4.2,0-7.1-3.2-7.1-7.7C473.1,73.5,476,70.4,480.2,70.4z"/>
	<polygon class="st8" points="327.4,26.6 327.4,36.1 328.9,36.1 328.9,26.6 	"/>
	<path id="_x31__5_" class="st8" d="M334,29.3c-2.1,0-3.5,1.4-3.5,3.4c0,2.1,1.4,3.5,3.5,3.5s3.5-1.4,3.5-3.5
		C337.5,30.7,336.1,29.3,334,29.3z M334,30.5c1.2,0,2.1,0.9,2.1,2.2c0,1.3-0.9,2.2-2.1,2.2s-2.1-0.9-2.1-2.2
		C331.9,31.5,332.8,30.5,334,30.5z"/>
	<path id="_x32__5_" class="st8" d="M343.7,29.4v1.1c-0.5-0.8-1.2-1.2-2.3-1.2c-1.8,0-3,1.3-3,3.2s1.2,3.2,3.1,3.2
		c1,0,1.8-0.4,2.2-1.2v0.9c0,1.2-0.9,1.9-2.2,1.9c-0.8,0-1.4-0.3-2.1-0.8l-0.6,1.1c0.9,0.6,1.8,0.9,2.8,0.9c2.2,0,3.5-1.2,3.5-3.2
		v-6L343.7,29.4L343.7,29.4z M341.8,34.6c-1.2,0-1.9-0.9-2-2.1c0.1-1.2,0.9-2.1,2-2.1c1.2,0,1.9,0.9,1.9,2.1
		C343.7,33.8,342.9,34.6,341.8,34.6z"/>
	<path id="_x33__5_" class="st8" d="M350.1,29.3c-2.1,0-3.5,1.4-3.5,3.4c0,2.1,1.4,3.5,3.5,3.5s3.5-1.4,3.5-3.5
		C353.7,30.7,352.2,29.3,350.1,29.3z M350.1,30.5c1.2,0,2,0.9,2,2.2c0,1.3-0.8,2.2-2,2.2S348,34,348,32.7
		C348,31.5,348.9,30.5,350.1,30.5z"/>
	<path id="_x34__5_" class="st8" d="M358.6,34.6c-0.4,0.2-0.7,0.3-1,0.3c-0.4,0-0.7-0.2-0.7-0.9v-3.2h2v-1.1h-2v-1.9h-1.4v1.9h-1
		v1.1h1v3.5c0,1.4,0.9,2,1.9,2c0.6,0,1.2-0.2,1.7-0.5L358.6,34.6z"/>
	<path id="_x35__5_" class="st8" d="M363,37.1l3.1-7.7h-1.4l-1.9,5.1l-2-5.1h-1.5L362,36l-0.2,0.5c-0.2,0.5-0.6,0.8-1,0.8
		s-0.6-0.1-0.9-0.4l-0.6,1.2c0.4,0.4,0.9,0.6,1.5,0.6C361.9,38.7,362.6,38.1,363,37.1z"/>
	<path id="_x36__5_" class="st8" d="M371,29.3c-1.1,0-1.9,0.4-2.4,1.2v-1.2h-1.4v9.2h1.4v-3.7c0.5,0.8,1.3,1.2,2.4,1.2
		c1.9,0,3.2-1.4,3.2-3.4C374.2,30.7,372.9,29.3,371,29.3z M370.7,34.9c-1.2,0-2.1-0.9-2.1-2.2c0-1.2,0.9-2.2,2.1-2.2
		s2.1,0.9,2.1,2.2C372.8,34,371.9,34.9,370.7,34.9z"/>
	<path id="_x37__2_" class="st8" d="M378.6,29.3c-2,0-3.5,1.4-3.5,3.5c0,2,1.4,3.4,3.5,3.4c1.2,0,2.1-0.4,2.8-1.2l-0.8-0.8
		c-0.5,0.5-1.2,0.8-1.9,0.8c-1.1,0-1.9-0.6-2.1-1.7h5.1C381.9,30.8,380.9,29.3,378.6,29.3z M376.6,32.3c0.1-1.2,0.9-1.8,1.9-1.8
		c1.2,0,1.9,0.6,1.9,1.8H376.6z"/>
</g>
<path class="st8" d="M330.7,329.7c0.3,0,0.6,0.1,0.9,0.3l0.5-1.1c-0.4-0.4-0.9-0.5-1.5-0.5c-1.2,0-2.3,0.8-2.3,2.4v0.6h-0.9v1.1h0.9
	v5.4h1.4v-5.4h1.7v-1.1h-1.7v-0.8C329.7,330,330.2,329.7,330.7,329.7z"/>
<path id="_x31__6_" class="st8" d="M337.5,337.9l-0.1-4.4c0-1.5-0.9-2.4-2.7-2.4c-1.3,0-1.9,0.3-2.9,0.9l0.6,1
	c0.6-0.5,1.4-0.7,2-0.7c1.1,0,1.6,0.5,1.6,1.4v0.2h-2c-1.7,0-2.6,0.8-2.6,2s0.9,2.1,2.4,2.1c1,0,1.8-0.3,2.2-0.9v0.8H337.5z
	 M334.1,336.8c-0.9,0-1.4-0.4-1.4-1s0.5-0.9,1.4-0.9h1.8v0.6C335.9,336.3,335.1,336.8,334.1,336.8z"/>
<polygon id="_x32__6_" class="st8" points="338.2,331.1 340.8,337.9 342.3,337.9 344.9,331.1 343.4,331.1 341.6,336.5 339.7,331.1 
	"/>
<path id="_x33__6_" class="st8" d="M346.7,328.3c-0.5,0-0.9,0.4-0.9,0.9s0.4,0.9,0.9,0.9s0.9-0.4,0.9-0.9
	C347.5,328.7,347.2,328.3,346.7,328.3z M345.9,331.1v6.8h1.4v-6.8H345.9z"/>
<path id="_x34__6_" class="st8" d="M354.3,333.1l0.9-0.9c-0.6-0.7-1.6-1.1-2.8-1.1c-2,0-3.5,1.4-3.5,3.5c0,2,1.4,3.4,3.5,3.4
	c1.2,0,2.2-0.4,2.9-1.2l-0.9-0.9c-0.4,0.6-1.2,0.9-2,0.9c-1.2,0-1.9-0.9-1.9-2.2c0-1.3,0.8-2.2,1.9-2.2
	C353.2,332.3,353.9,332.6,354.3,333.1z"/>
<path id="_x35__6_" class="st8" d="M359.3,331.1c-2.1,0-3.5,1.4-3.5,3.4c0,2.1,1.4,3.5,3.5,3.5s3.5-1.4,3.5-3.5
	C362.9,332.5,361.4,331.1,359.3,331.1z M359.3,332.3c1.2,0,2.1,0.9,2.1,2.2s-0.9,2.2-2.1,2.2s-2-0.9-2-2.2S358.1,332.3,359.3,332.3z
	"/>
<path id="_x36__6_" class="st8" d="M368.4,331.1c-1.2,0-2,0.4-2.5,1.3v-1.3h-1.4v6.8h1.4v-3.6c0.1-1,0.8-1.8,1.9-1.8
	c1,0,1.6,0.6,1.6,1.7v3.7h1.5v-4.2C370.9,332.1,370,331.1,368.4,331.1z"/>
<path id="_x37__3_" class="st8" d="M380.6,331.1c-1,0-1.9,0.4-2.4,1.2v-3.9h-1.4v9.4h1.4v-1.2c0.5,0.8,1.4,1.2,2.4,1.2
	c1.9,0,3.2-1.4,3.2-3.4C383.8,332.5,382.5,331.1,380.6,331.1z M380.3,336.7c-1.2,0-2.1-0.9-2.1-2.2s0.9-2.2,2.1-2.2s2.1,0.9,2.1,2.2
	C382.4,335.8,381.5,336.7,380.3,336.7z"/>
<polygon id="_x38__1_" class="st8" points="385.4,328.5 385.4,337.9 386.9,337.9 386.9,328.5 "/>
<path id="_x39__1_" class="st8" d="M394.6,337.9v-4.4c0-1.5-1-2.4-2.7-2.4c-1.3,0-2,0.3-3,0.9l0.6,1c0.6-0.5,1.3-0.7,1.9-0.7
	c1.1,0,1.7,0.5,1.7,1.4v0.2H391c-1.6,0-2.5,0.8-2.5,2s0.9,2.1,2.4,2.1c1,0,1.7-0.3,2.2-0.9v0.8H394.6z M391.2,336.8
	c-0.8,0-1.3-0.4-1.3-1s0.4-0.9,1.4-0.9h1.9v0.6C393.1,336.3,392.3,336.8,391.2,336.8z"/>
<path id="_x31_0_1_" class="st8" d="M401.4,333.1l0.8-0.9c-0.6-0.7-1.6-1.1-2.8-1.1c-2,0-3.5,1.4-3.5,3.5c0,2,1.4,3.4,3.5,3.4
	c1.3,0,2.2-0.4,2.9-1.2l-0.8-0.9c-0.5,0.6-1.2,0.9-2,0.9c-1.2,0-2-0.9-2-2.2c0-1.3,0.8-2.2,2-2.2
	C400.2,332.3,400.9,332.6,401.4,333.1z"/>
<polygon id="_x31_1_1_" class="st8" points="408.4,337.9 410.2,337.9 407.4,333.8 410,331.1 408.3,331.1 405.3,334.1 405.3,328.5 
	403.8,328.5 403.8,337.9 405.3,337.9 405.3,336 406.4,334.8 "/>
<polygon id="_x31_2_1_" class="st8" points="411,333.6 411,334.6 414.2,334.6 414.2,333.6 "/>
<polygon id="_x31_3" class="st8" points="415,331.1 417.4,337.9 419,337.9 420.7,332.9 422.4,337.9 423.9,337.9 426.4,331.1 
	424.9,331.1 423.2,336.4 421.5,331.1 420,331.1 418.2,336.4 416.4,331.1 "/>
<path id="_x31_4" class="st8" d="M431.5,331.1c-1.2,0-2.1,0.4-2.5,1.4v-4h-1.5v9.4h1.5v-3.3c0-1.2,0.7-2.1,1.9-2.1
	c1,0,1.6,0.6,1.6,1.7v3.7h1.5v-4.2C434,332.1,433,331.1,431.5,331.1z"/>
<path id="_x31_5" class="st8" d="M436.7,328.3c-0.5,0-0.9,0.4-0.9,0.9s0.4,0.9,0.9,0.9s0.9-0.4,0.9-0.9
	C437.5,328.7,437.2,328.3,436.7,328.3z M435.9,331.1v6.8h1.4v-6.8H435.9z"/>
<path id="_x31_6" class="st8" d="M443,336.4c-0.4,0.2-0.7,0.3-1,0.3c-0.4,0-0.7-0.2-0.7-0.9v-3.2h2v-1.1h-2v-1.9h-1.4v1.9H439v1.1
	h0.9v3.5c0,1.4,0.9,1.9,1.9,1.9c0.6,0,1.2-0.1,1.7-0.5L443,336.4z"/>
<path id="_x31_7" class="st8" d="M447.5,331.1c-2,0-3.5,1.4-3.5,3.5c0,2,1.4,3.4,3.5,3.4c1.2,0,2.2-0.4,2.8-1.2l-0.8-0.8
	c-0.4,0.5-1.2,0.8-1.9,0.8c-1.1,0-1.9-0.6-2.1-1.7h5.1C450.8,332.6,449.8,331.1,447.5,331.1z M445.4,334c0.1-1.1,0.9-1.7,2-1.7
	s1.8,0.6,1.9,1.7H445.4z"/>
<g id="_789021528">
	<path class="st2" d="M347.7,386.1l17.9-6.1c0.2-0.6,0.4-1.3,0.6-1.9s0.5-1.2,0.8-1.8c-1.7-2.5-2.8-5.4-3.2-8.3
		c-0.5-4,0.6-8.9,5.2-9.6c3.2-0.5,9.5,1.3,13.5,2.6c6.9-2.8,14-3.2,20.8-0.6c3.4-3.2,8.2-6.3,12.3-5.6c6,1,7,10.6,6.5,15.3
		c-0.3,2.2-0.9,4.2-1.9,6.1c0.3,0.6,0.6,1.3,0.9,1.9c0.2,0.8,0.5,1.6,0.7,2.3l16.8,5.8l-14.5,4.9c1.5,6.4,1.3,14.5,0.7,20.9
		c-0.1,5-0.4,9.9-0.8,14.9l-0.4,3.9H355l-1.3-1.9c-2.1-3-2.8-7-2.4-10.6c0.8-8.9,5.5-16.3,11.7-22.5c0.1-1.4,0.3-2.9,0.4-4.3
		L347.7,386.1z M367.5,424.4c-0.1,0.6-0.1,1.3-0.2,1.9h-10c-1.4-2-1.9-5-1.7-7.7c0.7-7.6,4.9-14.5,11.6-21
		c0.5-6.8,1.5-13.3,3.2-18.1c0.5-1.3,1.2-2.5,1.9-3.7c-4.8-5.3-5-12.8-2.4-13.2c2.4-0.4,10.2,2,13,3c7.8-3.6,15-3.5,21.7,0.1
		c3.1-3.9,8.1-7.1,10.5-6.6c2.7,0.4,5,11.7,0.2,16.8c0.8,1.2,1.4,2.5,1.9,3.7c1.2,3.2,2,7.1,2.6,11.3c4.1,13.9-2.7,42.9,1,20
		c-0.1,5.5-0.4,10.9-0.9,15.5h-52.3C367.6,425.7,367.5,425.1,367.5,424.4z"/>
	<polygon class="st1" points="438.8,386.1 393.3,401.5 347.7,386.1 347.7,392.4 347.7,428.9 347.7,432.1 393.3,447.5 438.8,432.1 
		438.8,428.9 438.8,392.4 	"/>
	<polygon class="st3" points="389.5,400.2 439.8,383.2 451.7,400.2 402.1,418.2 	"/>
	<polygon class="st3" points="397.1,400.2 384.5,418.2 334.9,400.2 346.8,383.2 	"/>
	<polygon class="st2" points="393.3,401.5 383.5,415.3 338.6,398.9 347.7,386.1 	"/>
	<polygon class="st2" points="393.3,401.5 403,415.3 448,398.9 438.8,386.1 	"/>
	<g>
		<ellipse class="st2" cx="382.5" cy="384.3" rx="4" ry="5.6"/>
		<ellipse class="st2" cx="404.6" cy="384.3" rx="4" ry="5.6"/>
	</g>
	<rect x="346.7" y="424.6" class="st3" width="12" height="12"/>
	<rect x="335.9" y="425.9" class="st2" width="12" height="12"/>
	<rect x="327.4" y="417.4" class="st2" width="8.5" height="8.5"/>
	<rect x="354.9" y="420.8" class="st3" width="7.5" height="7.5"/>
</g>
<g id="_923840536">
	<path class="st2" d="M462.7,436l3.4-1.2c0.1-0.1,0.1-0.3,0.1-0.4s0.1-0.3,0.1-0.4c-0.4-0.5-0.6-1-0.6-1.6c-0.1-0.7,0.1-1.7,0.9-1.8
		c0.6-0.1,1.8,0.2,2.5,0.5c1.4-0.6,2.7-0.6,4-0.1c0.6-0.6,1.5-1.2,2.3-1c1.2,0.1,1.3,1.9,1.2,2.9c-0.1,0.4-0.1,0.7-0.4,1.1
		c0.1,0.1,0.1,0.3,0.1,0.4c0.1,0.1,0.1,0.3,0.1,0.4l3.2,1.1l-2.7,0.9c0.3,1.2,0.3,2.7,0.1,4c0,0.9-0.1,1.9-0.1,2.8l-0.1,0.7h-13
		l-0.2-0.4c-0.4-0.6-0.6-1.3-0.5-1.9c0.2-1.7,1.1-3.1,2.2-4.2c0-0.3,0.1-0.6,0.1-0.9L462.7,436z M466.4,443.2c0,0.1-0.1,0.2-0.1,0.4
		h-1.9c-0.3-0.4-0.4-0.9-0.3-1.4c0.1-1.4,0.9-2.7,2.2-4c0.1-1.3,0.3-2.5,0.6-3.5c0.1-0.2,0.2-0.4,0.4-0.6c-0.9-1-0.9-2.4-0.4-2.5
		c0.4-0.1,1.9,0.4,2.4,0.6c1.4-0.7,2.8-0.6,4.1,0c0.6-0.7,1.5-1.3,1.9-1.2c0.5,0.1,0.9,2.2,0.1,3.2c0.1,0.2,0.2,0.4,0.4,0.6
		c0.2,0.6,0.4,1.4,0.4,2.2c0.8,2.6-0.5,8.1,0.2,3.7c0,1.1-0.1,2.1-0.1,3h-9.9C466.4,443.4,466.4,443.3,466.4,443.2z"/>
	<polygon class="st1" points="479.8,436 471.2,438.9 462.7,436 462.7,437.2 462.7,444.1 462.7,444.7 471.2,447.5 479.8,444.7 
		479.8,444.1 479.8,437.2 	"/>
	<polygon class="st3" points="470.5,438.7 480,435.4 482.2,438.6 472.9,442 	"/>
	<polygon class="st3" points="471.9,438.7 469.6,442 460.2,438.6 462.5,435.4 	"/>
	<polygon class="st2" points="471.2,438.9 469.4,441.5 460.9,438.4 462.7,436 	"/>
	<polygon class="st2" points="471.2,438.9 473.1,441.5 481.5,438.4 479.8,436 	"/>
	<g>
		<ellipse class="st2" cx="469.2" cy="435.7" rx="0.7" ry="1.1"/>
		<ellipse class="st2" cx="473.4" cy="435.7" rx="0.7" ry="1.1"/>
	</g>
	<rect x="462.4" y="443.2" class="st3" width="2.2" height="2.2"/>
	<rect x="460.4" y="443.5" class="st2" width="2.2" height="2.2"/>
	<rect x="458.8" y="441.9" class="st2" width="1.6" height="1.6"/>
	<rect x="464" y="442.5" class="st3" width="1.4" height="1.4"/>
</g>
<g id="_923834824">
	<circle class="st5" cx="59.8" cy="429.8" r="18.4"/>
	<circle class="st10" cx="59.8" cy="486.2" r="18.4"/>
	<circle class="st2" cx="59.8" cy="542.6" r="18.4"/>
	<path d="M102.9,420l-1.7-2.4c0.9-0.4,1.5-1.2,1.5-2.4c0-1.6-1.1-2.4-3-2.4h-3v7.3h1.2v-2.2h1.7c0.1,0,0.2,0,0.4-0.1l1.3,2.2H102.9z
		 M98.1,416.6v-2.9h1.7c1.2,0,1.8,0.5,1.8,1.4c0,1-0.6,1.4-1.8,1.4h-1.7V416.6z"/>
	<path id="_x31__7_" d="M109.4,418.4c-0.5,0.4-1.2,0.5-1.7,0.5c-1.4,0-2.7-1.1-2.7-2.6c0-1.4,1.2-2.5,2.7-2.5c0.8,0,1.6,0.3,2.2,0.8
		l0.6-0.9c-0.7-0.6-1.7-1.1-2.8-1.1c-2.2,0-3.9,1.7-3.9,3.7c0,2.1,1.7,3.7,3.8,3.7c1,0,2.1-0.4,2.9-0.9v-2.7h-1.1V418.4z"/>
	<path id="_x32__7_" d="M115.3,412.7h-3.2v7.3h3.2c1.7,0,2.7-0.7,2.7-2c0-0.9-0.6-1.7-1.6-1.8c0.8-0.2,1.3-0.9,1.3-1.7
		C117.8,413.3,116.9,412.7,115.3,412.7z M115.3,415.7h-1.9v-1.9h1.9c0.8,0,1.2,0.4,1.2,0.9C116.5,415.4,116.1,415.7,115.3,415.7z
		 M115.3,418.9h-1.9v-2.1h1.9c0.9,0,1.5,0.4,1.5,1S116.2,418.9,115.3,418.9z"/>
	<polygon id="_x33__7_" points="122.8,412.7 122.8,413.8 124.3,413.8 124.3,420 125.6,420 125.6,412.7 	"/>
	<path id="_x34__7_" d="M131.3,412.6c-1.4,0-2.4,0.7-2.4,1.9c0,0.6,0.4,1.2,1.2,1.6c-0.9,0.3-1.5,1-1.5,1.9c0,1.3,1.1,2.1,2.8,2.1
		s2.7-0.8,2.7-2.1c0-0.9-0.5-1.6-1.4-1.9c0.7-0.3,1.1-0.9,1.1-1.6C133.7,413.3,132.8,412.6,131.3,412.6z M131.3,413.5
		c0.9,0,1.4,0.4,1.4,1.1s-0.5,1.1-1.4,1.1s-1.4-0.4-1.4-1.1C129.9,413.9,130.5,413.5,131.3,413.5z M131.3,416.6
		c1.1,0,1.7,0.5,1.7,1.2c0,0.8-0.6,1.2-1.6,1.2c-1.1,0-1.7-0.4-1.7-1.2S130.2,416.6,131.3,416.6z"/>
	<path id="_x35__7_" d="M135.6,418.7c-0.4,0-0.6,0.2-0.6,0.6c0,0.2,0.1,0.4,0.3,0.5l-0.4,0.9h0.6l0.6-0.9c0.1-0.1,0.2-0.3,0.2-0.5
		C136.3,419,136,418.7,135.6,418.7z"/>
	<path id="_x36__7_" d="M143.2,416.2l-2.8,2.8v0.9h5.3v-1.1H142l2-2c0.8-0.9,1.4-1.7,1.4-2.4c0-1.2-0.9-1.9-2.4-1.9
		c-0.9,0-1.9,0.4-2.7,1l0.5,1c0.6-0.6,1.4-0.9,2.1-0.9c0.8,0,1.2,0.4,1.2,0.9C144.1,415.1,143.7,415.6,143.2,416.2z"/>
	<path id="_x37__4_" d="M149.7,415.7h-0.4l2.4-2.2v-0.8h-4.8v1.1h3.2l-2.2,2v0.7h1.1c1.1,0,1.7,0.4,1.7,1.2c0,0.7-0.6,1.2-1.7,1.2
		c-0.7,0-1.4-0.2-2-0.7l-0.5,1c0.6,0.4,1.7,0.8,2.6,0.8c1.8,0,2.9-0.9,2.9-2.3C152,416.6,151.1,415.9,149.7,415.7z"/>
	<path id="_x38__2_" d="M155.9,412.6c-1.4,0-2.4,0.7-2.4,1.9c0,0.6,0.4,1.2,1.1,1.6c-0.9,0.3-1.4,1-1.4,1.9c0,1.3,1.1,2.1,2.7,2.1
		c1.7,0,2.8-0.8,2.8-2.1c0-0.9-0.6-1.6-1.4-1.9c0.6-0.3,1.1-0.9,1.1-1.6C158.3,413.3,157.4,412.6,155.9,412.6z M155.9,413.5
		c0.9,0,1.4,0.4,1.4,1.1s-0.4,1.1-1.4,1.1c-0.9,0-1.4-0.4-1.4-1.1S155,413.5,155.9,413.5z M155.9,416.6c1.1,0,1.7,0.5,1.7,1.2
		c0,0.8-0.6,1.2-1.7,1.2c-1,0-1.6-0.4-1.6-1.2C154.3,417,154.9,416.6,155.9,416.6z"/>
	<path id="_x39__2_" d="M160.3,418.7c-0.4,0-0.6,0.2-0.6,0.6c0,0.2,0.1,0.4,0.3,0.5l-0.4,0.9h0.6l0.6-0.9c0.1-0.1,0.1-0.3,0.1-0.5
		C160.8,419,160.6,418.7,160.3,418.7z"/>
	<path id="_x31_0_2_" d="M167.8,416.2L165,419v0.9h5.3v-1.1h-3.7l2-2c0.8-0.9,1.4-1.7,1.4-2.4c0-1.2-1-1.9-2.4-1.9
		c-1,0-1.9,0.4-2.7,1l0.5,1c0.6-0.6,1.4-0.9,2-0.9c0.8,0,1.3,0.4,1.3,0.9C168.7,415.1,168.3,415.6,167.8,416.2z"/>
	<path id="_x31_1_2_" d="M174.2,416.2l-2.7,2.8v0.9h5.3v-1.1H173l2-2c0.8-0.9,1.4-1.7,1.4-2.4c0-1.2-0.9-1.9-2.4-1.9
		c-0.9,0-1.9,0.4-2.7,1l0.5,1c0.6-0.6,1.4-0.9,2-0.9c0.9,0,1.3,0.4,1.3,0.9C175.1,415.1,174.7,415.6,174.2,416.2z"/>
	<path id="_x31_2_2_" d="M180.7,415.7h-0.4l2.4-2.2v-0.8h-4.8l0.1,1.1h3.2l-2.2,2v0.7h1.1c1.1,0,1.7,0.4,1.7,1.2
		c0,0.7-0.6,1.2-1.7,1.2c-0.7,0-1.4-0.2-2-0.7l-0.6,1c0.7,0.4,1.7,0.8,2.7,0.8c1.8,0,2.9-0.9,2.9-2.3
		C183,416.6,182.1,415.9,180.7,415.7z"/>
	<path id="_x31_3_1_" d="M102.1,428.2l0.7-0.9c-0.7-0.7-1.7-1.2-2.7-1.2c-2.2,0-3.8,1.6-3.8,3.7s1.7,3.7,3.7,3.7
		c1.1,0,2.1-0.5,2.8-1.2l-0.7-0.8c-0.5,0.5-1.3,0.9-2,0.9c-1.4,0-2.6-1.2-2.6-2.6s1.2-2.5,2.6-2.5
		C100.8,427.3,101.6,427.6,102.1,428.2z"/>
	<polygon id="_x31_4_1_" points="104.1,426.2 104.1,433.5 105.3,433.5 105.3,428 107.6,432.7 108.4,432.7 110.7,428 110.7,433.5 
		111.8,433.5 111.8,426.2 110.4,426.2 107.9,431 105.5,426.2 	"/>
	<polygon id="_x31_5_1_" points="119.4,426.2 118.1,426.2 116.1,429.8 114,426.2 112.7,426.2 115.5,431.1 115.5,433.5 116.7,433.5 
		116.7,431 	"/>
	<polygon id="_x31_6_1_" points="126.6,433.5 123.7,429.3 126.5,426.2 125.1,426.2 121.6,430 121.6,426.2 120.3,426.2 120.3,433.5 
		121.6,433.5 121.6,431.6 122.8,430.3 125.2,433.5 	"/>
	<path id="_x31_7_1_" d="M131.1,432.1l-0.5,0.9c0.6,0.4,1.4,0.6,2.2,0.6c1.9,0,3.2-1.5,3.2-3.9c0-2.2-1.2-3.5-3-3.5
		c-1.6,0-2.6,0.9-2.6,2.4c0,1.4,0.9,2.3,2.4,2.3c0.9,0,1.6-0.4,1.9-1c0.1,1.6-0.6,2.7-2,2.7C132.1,432.6,131.5,432.3,131.1,432.1z
		 M133,427.2c1.1,0,1.5,0.7,1.5,1.3c0,0.8-0.6,1.4-1.5,1.4s-1.4-0.5-1.4-1.4C131.5,427.7,132.1,427.2,133,427.2z"/>
	<path id="_x31_8" d="M139.7,429.8l-2.8,2.8v0.9h5.3v-1.1h-3.7l2-2c0.8-0.9,1.4-1.7,1.4-2.4c0-1.2-0.9-1.9-2.4-1.9
		c-0.9,0-1.9,0.4-2.7,1l0.5,1c0.6-0.6,1.4-0.9,2.1-0.9c0.8,0,1.2,0.4,1.2,0.9C140.6,428.6,140.3,429.2,139.7,429.8z"/>
	<path id="_x31_9" d="M145.1,426.2c-1.2,0-1.9,0.8-1.9,2.2s0.7,2.2,1.9,2.2s1.9-0.8,1.9-2.2S146.3,426.2,145.1,426.2z M150,426.2
		l-5.4,7.3h1.2l5.3-7.3H150z M145.1,426.9c0.7,0,1.2,0.6,1.2,1.5s-0.4,1.4-1.2,1.4s-1.2-0.5-1.2-1.4S144.4,426.9,145.1,426.9z
		 M150.6,429.2c-1.2,0-1.9,0.8-1.9,2.2s0.7,2.2,1.9,2.2s1.9-0.8,1.9-2.2S151.8,429.2,150.6,429.2z M150.6,429.9
		c0.7,0,1.2,0.5,1.2,1.4s-0.4,1.4-1.2,1.4s-1.2-0.5-1.2-1.4S149.9,429.9,150.6,429.9z"/>
	<path id="_x32_0" d="M154.1,432.2c-0.4,0-0.6,0.3-0.6,0.7c0,0.2,0.1,0.4,0.3,0.5l-0.4,0.9h0.6l0.6-0.9c0.1-0.1,0.2-0.3,0.2-0.5
		C154.7,432.5,154.4,432.2,154.1,432.2z"/>
	<path id="_x32_1" d="M161.5,426.2c-1.7,0-2.7,1.3-2.7,3.7c0,2.4,1,3.7,2.7,3.7c1.8,0,2.7-1.3,2.7-3.7
		C164.2,427.4,163.3,426.2,161.5,426.2z M161.5,427.2c1,0,1.5,0.9,1.5,2.7c0,1.9-0.5,2.7-1.5,2.7s-1.5-0.9-1.5-2.7
		C160,428,160.5,427.2,161.5,427.2z"/>
	<path id="_x32_2" d="M167,426.2c-1.2,0-1.9,0.8-1.9,2.2s0.7,2.2,1.9,2.2s1.9-0.8,1.9-2.2S168.3,426.2,167,426.2z M171.9,426.2
		l-5.4,7.3h1.2l5.4-7.3H171.9z M167,426.9c0.7,0,1.2,0.6,1.2,1.5s-0.4,1.4-1.2,1.4c-0.7,0-1.2-0.5-1.2-1.4S166.3,426.9,167,426.9z
		 M172.5,429.2c-1.2,0-1.9,0.8-1.9,2.2s0.8,2.2,1.9,2.2c1.2,0,1.9-0.8,1.9-2.2S173.7,429.2,172.5,429.2z M172.5,429.9
		c0.7,0,1.2,0.5,1.2,1.4s-0.4,1.4-1.2,1.4c-0.7,0-1.1-0.5-1.1-1.4S171.8,429.9,172.5,429.9z"/>
	<path id="_x32_3" d="M176,432.2c-0.4,0-0.6,0.3-0.6,0.7c0,0.2,0.1,0.4,0.3,0.5l-0.4,0.9h0.6l0.6-0.9c0.1-0.1,0.2-0.3,0.2-0.5
		C176.6,432.5,176.3,432.2,176,432.2z"/>
	<path id="_x32_4" d="M185.5,427.6l0.5-0.9c-0.6-0.4-1.5-0.6-2.2-0.6c-1.9,0-3.1,1.5-3.1,3.8c0,2.2,1.1,3.6,3,3.6
		c1.6,0,2.6-0.9,2.6-2.4c0-1.4-0.9-2.4-2.4-2.4c-0.9,0-1.6,0.4-2,1.1c0-1.6,0.6-2.7,2.1-2.7C184.5,427.2,185.1,427.3,185.5,427.6z
		 M183.7,429.8c0.9,0,1.4,0.5,1.4,1.4s-0.6,1.4-1.5,1.4c-1,0-1.5-0.7-1.5-1.4C182.1,430.4,182.7,429.8,183.7,429.8z"/>
	<path id="_x32_5" d="M188.9,426.2c-1.2,0-1.9,0.8-1.9,2.2s0.8,2.2,1.9,2.2c1.2,0,1.9-0.8,1.9-2.2S190.1,426.2,188.9,426.2z
		 M193.7,426.2l-5.4,7.3h1.2l5.3-7.3H193.7z M188.9,426.9c0.7,0,1.2,0.6,1.2,1.5s-0.4,1.4-1.2,1.4c-0.7,0-1.1-0.5-1.1-1.4
		S188.2,426.9,188.9,426.9z M194.4,429.2c-1.2,0-1.9,0.8-1.9,2.2s0.7,2.2,1.9,2.2s1.9-0.8,1.9-2.2S195.6,429.2,194.4,429.2z
		 M194.4,429.9c0.7,0,1.2,0.5,1.2,1.4s-0.4,1.4-1.2,1.4s-1.1-0.5-1.1-1.4S193.7,429.9,194.4,429.9z"/>
	<path id="_x32_6" d="M197.8,432.2c-0.4,0-0.6,0.3-0.6,0.7c0,0.2,0.1,0.4,0.3,0.5l-0.4,0.9h0.6l0.6-0.9c0.1-0.1,0.1-0.3,0.1-0.5
		C198.5,432.5,198.2,432.2,197.8,432.2z"/>
	<polygon id="_x32_7" points="202.6,426.2 202.6,428.3 203.7,428.3 203.7,427.3 206.8,427.3 203.8,433.5 205,433.5 208.1,427.2 
		208.1,426.2 	"/>
	<path id="_x32_8" d="M210.8,426.2c-1.2,0-1.9,0.8-1.9,2.2s0.7,2.2,1.9,2.2s1.9-0.8,1.9-2.2S212,426.2,210.8,426.2z M215.6,426.2
		l-5.3,7.3h1.2l5.3-7.3H215.6z M210.8,426.9c0.7,0,1.2,0.6,1.2,1.5s-0.4,1.4-1.2,1.4c-0.7,0-1.1-0.5-1.1-1.4
		S210.1,426.9,210.8,426.9z M216.3,429.2c-1.2,0-1.9,0.8-1.9,2.2s0.7,2.2,1.9,2.2s1.9-0.8,1.9-2.2S217.5,429.2,216.3,429.2z
		 M216.3,429.9c0.7,0,1.2,0.5,1.2,1.4s-0.4,1.4-1.2,1.4c-0.7,0-1.1-0.5-1.1-1.4S215.6,429.9,216.3,429.9z"/>
	<path id="_x32_9" d="M103,442.5l0.1-0.9h-1.4l0.2-1.9H101l-0.2,1.9h-1.9l0.3-1.9h-0.9l-0.2,1.9h-1.4l-0.1,0.9H98l-0.3,1.8h-1.4
		l-0.1,0.9h1.4l-0.2,1.8h0.9l0.2-1.8h1.9l-0.2,1.8h0.9l0.2-1.8h1.5l0.1-0.9h-1.5l0.3-1.8H103z M100.4,444.3h-1.8l0.2-1.8h1.8
		L100.4,444.3z"/>
	<polygon id="_x33_0" points="104.5,439.8 104.5,440.8 106.1,440.8 106.1,447 107.3,447 107.3,439.8 	"/>
	<path id="_x33_1" d="M113.2,443.2l-2.8,2.9v0.9h5.3v-1H112l1.9-2c0.8-0.9,1.4-1.7,1.4-2.4c0-1.1-0.9-1.8-2.4-1.8
		c-0.9,0-1.9,0.4-2.7,1l0.5,0.9c0.6-0.5,1.4-0.9,2.1-0.9c0.8,0,1.3,0.4,1.3,0.9C114.1,442.1,113.7,442.7,113.2,443.2z"/>
	<polygon id="_x33_2" points="117.2,439.8 117.2,447 122.5,447 122.5,446 118.4,446 118.4,443.9 122,443.9 122,442.9 118.4,442.9 
		118.4,440.8 122.4,440.8 122.4,439.8 	"/>
	<polygon id="_x33_3" points="124.1,439.8 124.1,447 129.4,447 129.4,446 125.3,446 125.3,443.9 128.8,443.9 128.8,442.9 
		125.3,442.9 125.3,440.8 129.2,440.8 129.2,439.8 	"/>
	<path id="_x33_4" d="M133.8,439.8h-3v7.3h3c2.2,0,3.7-1.5,3.7-3.7C137.6,441.3,136.1,439.8,133.8,439.8z M133.9,446h-1.8v-5.1h1.7
		c1.4,0,2.5,1.1,2.5,2.5C136.4,444.9,135.3,446,133.9,446z"/>
	<polygon id="_x33_5" points="139,439.8 139,447 140.2,447 140.2,444 143.5,444 143.5,442.9 140.2,442.9 140.2,440.8 143.8,440.8 
		143.9,439.8 	"/>
	<path d="M102.9,476.3l-1.7-2.4c0.9-0.4,1.5-1.2,1.5-2.3c0-1.6-1.1-2.5-3-2.5h-3v7.3h1.2v-2.2h1.7c0.1,0,0.2,0,0.4-0.1l1.3,2.2
		H102.9z M98.1,473v-2.9h1.7c1.2,0,1.8,0.5,1.8,1.4c0,1-0.6,1.4-1.8,1.4h-1.7V473z"/>
	<path id="_x31__8_" d="M109.4,474.8c-0.5,0.3-1.2,0.5-1.7,0.5c-1.4,0-2.7-1.2-2.7-2.6c0-1.5,1.2-2.6,2.7-2.6c0.8,0,1.6,0.3,2.2,0.8
		l0.6-0.9c-0.7-0.6-1.7-1-2.8-1c-2.2,0-3.9,1.6-3.9,3.7c0,2,1.7,3.7,3.8,3.7c1,0,2.1-0.4,2.9-0.9v-2.7h-1.1V474.8z"/>
	<path id="_x32__8_" d="M115.3,469.1h-3.2v7.3h3.2c1.7,0,2.7-0.7,2.7-2c0-0.9-0.6-1.7-1.6-1.8c0.8-0.2,1.3-0.8,1.3-1.7
		C117.8,469.8,116.9,469.1,115.3,469.1z M115.3,472.1h-1.9v-1.9h1.9c0.8,0,1.2,0.4,1.2,0.9C116.5,471.7,116.1,472.1,115.3,472.1z
		 M115.3,475.3h-1.9v-2.1h1.9c0.9,0,1.5,0.4,1.5,1C116.8,474.9,116.2,475.3,115.3,475.3z"/>
	<path id="_x33__8_" d="M124.8,469c-1.4,0-2.4,0.7-2.4,1.9c0,0.7,0.4,1.3,1.1,1.6c-0.9,0.3-1.4,1-1.4,1.9c0,1.3,1.1,2.1,2.7,2.1
		c1.7,0,2.8-0.8,2.8-2.1c0-0.9-0.6-1.6-1.4-1.9c0.6-0.3,1.1-0.9,1.1-1.6C127.3,469.7,126.4,469,124.8,469z M124.8,469.9
		c0.9,0,1.4,0.4,1.4,1.1s-0.5,1.1-1.4,1.1s-1.4-0.4-1.4-1.1C123.5,470.3,124,469.9,124.8,469.9z M124.8,473c1.1,0,1.7,0.5,1.7,1.2
		c0,0.8-0.6,1.2-1.7,1.2c-1,0-1.6-0.4-1.6-1.2C123.3,473.5,123.8,473,124.8,473z"/>
	<path id="_x34__8_" d="M129.2,475.1c-0.4,0-0.6,0.3-0.6,0.6c0,0.2,0.1,0.4,0.3,0.5l-0.4,0.9h0.6l0.6-0.9c0.1-0.2,0.2-0.4,0.2-0.6
		C129.9,475.3,129.5,475.1,129.2,475.1z"/>
	<polygon id="_x35__8_" points="134.6,469.1 134.6,470.1 136.1,470.1 136.1,476.3 137.3,476.3 137.3,469.1 	"/>
	<path id="_x36__8_" d="M141,474.9l-0.5,0.9c0.6,0.4,1.4,0.6,2.2,0.6c1.9,0,3.2-1.5,3.2-3.9c0-2.2-1.2-3.5-3-3.5
		c-1.6,0-2.6,0.9-2.6,2.4c0,1.4,0.9,2.3,2.4,2.3c0.9,0,1.6-0.3,1.9-1c0.1,1.6-0.6,2.7-2,2.7C142,475.4,141.4,475.2,141,474.9z
		 M142.9,470.1c1,0,1.5,0.7,1.4,1.4c0.1,0.7-0.5,1.4-1.5,1.4c-0.9,0-1.4-0.5-1.4-1.4S142,470.1,142.9,470.1z"/>
	<path id="_x37__5_" d="M149.5,469c-1.4,0-2.4,0.7-2.4,1.9c0,0.7,0.4,1.3,1.1,1.6c-0.9,0.3-1.4,1-1.4,1.9c0,1.3,1.1,2.1,2.7,2.1
		c1.7,0,2.8-0.8,2.8-2.1c0-0.9-0.6-1.6-1.4-1.9c0.6-0.3,1.1-0.9,1.1-1.6C151.9,469.7,151,469,149.5,469z M149.5,469.9
		c0.9,0,1.4,0.4,1.4,1.1s-0.5,1.1-1.4,1.1s-1.4-0.4-1.4-1.1S148.6,469.9,149.5,469.9z M149.5,473c1,0,1.7,0.5,1.7,1.2
		c0,0.8-0.6,1.2-1.7,1.2s-1.6-0.4-1.6-1.2C147.9,473.5,148.5,473,149.5,473z"/>
	<path id="_x38__3_" d="M153.8,475.1c-0.4,0-0.6,0.3-0.6,0.6c0,0.2,0.1,0.4,0.2,0.5l-0.4,0.9h0.6l0.6-0.9c0.1-0.2,0.1-0.4,0.1-0.6
		C154.4,475.3,154.1,475.1,153.8,475.1z"/>
	<path id="_x39__3_" d="M161.3,472.6l-2.7,2.9v0.9h5.3v-1.1h-3.7l2-2c0.8-0.9,1.4-1.7,1.4-2.4c0-1.2-1-1.9-2.4-1.9
		c-0.9,0-1.9,0.4-2.7,1.1l0.5,0.9c0.6-0.6,1.4-0.9,2-0.9c0.8,0,1.3,0.4,1.3,0.9C162.3,471.4,161.9,472,161.3,472.6z"/>
	<polygon id="_x31_0_3_" points="165.5,469.1 165.5,470.1 167.1,470.1 167.1,476.3 168.3,476.3 168.3,469.1 	"/>
	<polygon id="_x31_1_3_" points="173.8,469.1 171.2,473.7 171.2,474.5 174.7,474.5 174.7,476.3 175.9,476.3 175.9,474.5 177,474.5 
		177,473.5 176,473.5 175.9,471.7 174.7,471.7 174.8,473.5 172.6,473.5 175,469.1 	"/>
	<path id="_x31_2_3_" d="M102.1,484.6l0.7-0.9c-0.7-0.7-1.7-1.1-2.7-1.1c-2.2,0-3.8,1.6-3.8,3.6c0,2.1,1.7,3.7,3.7,3.7
		c1.1,0,2.1-0.5,2.8-1.2l-0.7-0.8c-0.5,0.5-1.3,0.9-2,0.9c-1.4,0-2.6-1.2-2.6-2.6s1.2-2.5,2.6-2.5
		C100.8,483.7,101.6,484,102.1,484.6z"/>
	<polygon id="_x31_3_2_" points="104.1,482.6 104.1,489.9 105.3,489.9 105.3,484.5 107.6,489.2 108.4,489.2 110.7,484.5 
		110.7,489.9 111.8,489.9 111.8,482.6 110.4,482.6 107.9,487.4 105.5,482.6 	"/>
	<polygon id="_x31_4_2_" points="119.4,482.6 118.1,482.6 116.1,486.1 114,482.6 112.7,482.6 115.5,487.5 115.5,489.9 116.7,489.9 
		116.7,487.4 	"/>
	<polygon id="_x31_5_2_" points="126.6,489.9 123.7,485.7 126.5,482.6 125.1,482.6 121.6,486.3 121.6,482.6 120.3,482.6 
		120.3,489.9 121.6,489.9 121.6,488 122.8,486.6 125.2,489.9 	"/>
	<path id="_x31_6_2_" d="M131.1,488.4l-0.5,0.9c0.6,0.4,1.4,0.6,2.2,0.6c1.9,0,3.2-1.5,3.2-3.9c0-2.2-1.2-3.5-3-3.5
		c-1.6,0-2.6,0.9-2.6,2.4c0,1.4,0.9,2.3,2.4,2.3c0.9,0,1.6-0.4,1.9-1c0.1,1.6-0.6,2.7-2,2.7C132.1,488.9,131.5,488.7,131.1,488.4z
		 M133,483.6c1.1,0,1.5,0.7,1.5,1.4c0,0.7-0.6,1.4-1.5,1.4s-1.4-0.5-1.4-1.4S132.1,483.6,133,483.6z"/>
	<path id="_x31_7_2_" d="M141.8,484l0.4-0.9c-0.6-0.4-1.4-0.6-2.2-0.6c-1.9,0-3.1,1.5-3.1,3.9c0,2.2,1.1,3.5,3,3.5
		c1.5,0,2.5-0.9,2.5-2.4c0-1.4-0.9-2.4-2.3-2.4c-0.9,0-1.7,0.4-2,1.1c-0.1-1.6,0.6-2.7,2-2.7C140.7,483.5,141.3,483.8,141.8,484z
		 M139.9,486.1c0.9,0,1.4,0.5,1.4,1.4s-0.6,1.4-1.4,1.4c-1.1,0-1.5-0.7-1.5-1.4C138.3,486.8,138.9,486.1,139.9,486.1z"/>
	<path id="_x31_8_1_" d="M145.1,482.6c-1.2,0-1.9,0.8-1.9,2.2c0,1.4,0.7,2.2,1.9,2.2s1.9-0.8,1.9-2.2
		C147.1,483.4,146.3,482.6,145.1,482.6z M150,482.6l-5.4,7.3h1.2l5.3-7.3H150z M145.1,483.2c0.7,0,1.2,0.6,1.2,1.5s-0.4,1.4-1.2,1.4
		s-1.2-0.5-1.2-1.4C144,483.8,144.4,483.2,145.1,483.2z M150.6,485.6c-1.2,0-1.9,0.8-1.9,2.2s0.7,2.2,1.9,2.2s1.9-0.8,1.9-2.2
		S151.8,485.6,150.6,485.6z M150.6,486.3c0.7,0,1.2,0.5,1.2,1.4s-0.4,1.5-1.2,1.5s-1.2-0.6-1.2-1.5S149.9,486.3,150.6,486.3z"/>
	<path id="_x31_9_1_" d="M154.1,488.6c-0.4,0-0.6,0.3-0.6,0.6c0,0.2,0.1,0.4,0.3,0.5l-0.4,0.9h0.6l0.6-0.9c0.1-0.2,0.2-0.4,0.2-0.6
		C154.7,488.9,154.4,488.6,154.1,488.6z"/>
	<polygon id="_x32_0_1_" points="158.8,482.6 158.8,484.7 159.9,484.7 159.9,483.7 163,483.7 160,489.9 161.3,489.9 164.4,483.5 
		164.4,482.6 	"/>
	<path id="_x32_1_1_" d="M167,482.6c-1.2,0-1.9,0.8-1.9,2.2c0,1.4,0.7,2.2,1.9,2.2s1.9-0.8,1.9-2.2C169,483.4,168.3,482.6,167,482.6
		z M171.9,482.6l-5.4,7.3h1.2l5.4-7.3H171.9z M167,483.2c0.7,0,1.2,0.6,1.2,1.5s-0.4,1.4-1.2,1.4c-0.7,0-1.2-0.5-1.2-1.4
		C165.9,483.8,166.3,483.2,167,483.2z M172.5,485.6c-1.2,0-1.9,0.8-1.9,2.2s0.8,2.2,1.9,2.2c1.2,0,1.9-0.8,1.9-2.2
		S173.7,485.6,172.5,485.6z M172.5,486.3c0.7,0,1.2,0.5,1.2,1.4s-0.4,1.5-1.2,1.5c-0.7,0-1.1-0.6-1.1-1.5S171.8,486.3,172.5,486.3z"
		/>
	<path id="_x32_2_1_" d="M176,488.6c-0.4,0-0.6,0.3-0.6,0.6c0,0.2,0.1,0.4,0.3,0.5l-0.4,0.9h0.6l0.6-0.9c0.1-0.2,0.2-0.4,0.2-0.6
		C176.6,488.9,176.3,488.6,176,488.6z"/>
	<path id="_x32_3_1_" d="M183.4,482.5c-1.7,0-2.7,1.4-2.7,3.7c0,2.4,1,3.7,2.7,3.7c1.8,0,2.7-1.4,2.7-3.7
		C186.1,483.9,185.2,482.5,183.4,482.5z M183.4,483.5c1,0,1.6,0.9,1.6,2.7c0,1.9-0.6,2.7-1.6,2.7s-1.5-0.9-1.5-2.7
		S182.4,483.5,183.4,483.5z"/>
	<path id="_x32_4_1_" d="M188.9,482.6c-1.2,0-1.9,0.8-1.9,2.2c0,1.4,0.8,2.2,1.9,2.2c1.2,0,1.9-0.8,1.9-2.2
		C190.9,483.4,190.1,482.6,188.9,482.6z M193.7,482.6l-5.4,7.3h1.2l5.3-7.3H193.7z M188.9,483.2c0.7,0,1.2,0.6,1.2,1.5
		s-0.4,1.4-1.2,1.4c-0.7,0-1.1-0.5-1.1-1.4C187.8,483.8,188.2,483.2,188.9,483.2z M194.4,485.6c-1.2,0-1.9,0.8-1.9,2.2
		s0.7,2.2,1.9,2.2s1.9-0.8,1.9-2.2S195.6,485.6,194.4,485.6z M194.4,486.3c0.7,0,1.2,0.5,1.2,1.4s-0.4,1.5-1.2,1.5s-1.1-0.6-1.1-1.5
		S193.7,486.3,194.4,486.3z"/>
	<path id="_x32_5_1_" d="M197.8,488.6c-0.4,0-0.6,0.3-0.6,0.6c0,0.2,0.1,0.4,0.3,0.5l-0.4,0.9h0.6l0.6-0.9c0.1-0.2,0.1-0.4,0.1-0.6
		C198.5,488.9,198.2,488.6,197.8,488.6z"/>
	<polygon id="_x32_6_1_" points="203.2,482.6 203.2,483.7 204.8,483.7 204.8,489.9 206,489.9 206,482.6 	"/>
	<path id="_x32_7_1_" d="M213.8,484l0.5-0.9c-0.6-0.4-1.4-0.6-2.2-0.6c-1.9,0-3.2,1.5-3.2,3.9c0,2.2,1.2,3.5,3,3.5
		c1.6,0,2.6-0.9,2.6-2.4c0-1.4-0.9-2.4-2.4-2.4c-0.9,0-1.6,0.4-1.9,1.1c-0.1-1.6,0.6-2.7,2-2.7C212.8,483.5,213.4,483.8,213.8,484z
		 M212,486.1c0.9,0,1.4,0.5,1.4,1.4s-0.6,1.4-1.5,1.4c-1,0-1.5-0.7-1.4-1.4C210.4,486.8,211,486.1,212,486.1z"/>
	<path id="_x32_8_1_" d="M217.2,482.6c-1.2,0-1.9,0.8-1.9,2.2c0,1.4,0.7,2.2,1.9,2.2s1.9-0.8,1.9-2.2
		C219.2,483.4,218.4,482.6,217.2,482.6z M222,482.6l-5.3,7.3h1.2l5.3-7.3H222z M217.2,483.2c0.7,0,1.2,0.6,1.2,1.5s-0.4,1.4-1.2,1.4
		c-0.7,0-1.1-0.5-1.1-1.4C216.1,483.8,216.5,483.2,217.2,483.2z M222.8,485.6c-1.2,0-1.9,0.8-1.9,2.2s0.7,2.2,1.9,2.2
		s1.9-0.8,1.9-2.2S223.9,485.6,222.8,485.6z M222.8,486.3c0.7,0,1.1,0.5,1.1,1.4s-0.4,1.5-1.1,1.5c-0.7,0-1.2-0.6-1.2-1.5
		S222,486.3,222.8,486.3z"/>
	<path id="_x32_9_1_" d="M103,498.9l0.1-0.9h-1.4l0.2-1.9H101l-0.2,1.9h-1.9l0.3-1.9h-0.9l-0.2,1.9h-1.4l-0.1,0.9H98l-0.3,1.9h-1.4
		l-0.1,0.9h1.4l-0.2,1.8h0.9l0.2-1.8h1.9l-0.2,1.8h0.9l0.2-1.8h1.5l0.1-0.9h-1.5l0.3-1.9H103z M100.4,500.7h-1.8l0.2-1.9h1.8
		L100.4,500.7z"/>
	<path id="_x33_0_1_" d="M106.6,496.1c-1.7,0-2.7,1.4-2.7,3.7c0,2.4,1,3.7,2.7,3.7c1.8,0,2.7-1.3,2.7-3.7
		C109.4,497.4,108.4,496.1,106.6,496.1z M106.6,497.1c1,0,1.5,0.9,1.5,2.7c0,1.9-0.5,2.7-1.5,2.7s-1.5-0.9-1.5-2.7
		C105.1,497.9,105.6,497.1,106.6,497.1z"/>
	<path id="_x33_1_1_" d="M113,496.1c-1.4,0-2.4,0.7-2.4,1.9c0,0.6,0.4,1.3,1.1,1.6c-0.9,0.3-1.4,1-1.4,1.9c0,1.3,1.1,2.1,2.7,2.1
		c1.7,0,2.8-0.8,2.8-2.1c0-0.9-0.6-1.6-1.4-1.9c0.6-0.3,1.1-0.9,1.1-1.6C115.5,496.8,114.5,496.1,113,496.1z M113,496.9
		c0.9,0,1.4,0.4,1.4,1.1s-0.5,1.1-1.4,1.1s-1.4-0.4-1.4-1.1C111.7,497.4,112.2,496.9,113,496.9z M113,500c1,0,1.7,0.5,1.7,1.2
		c0,0.8-0.6,1.2-1.7,1.2c-1,0-1.6-0.4-1.6-1.2S112,500,113,500z"/>
	<path id="_x33_2_1_" d="M122.5,498.1l0.7-0.9c-0.6-0.7-1.7-1.2-2.7-1.2c-2.2,0-3.8,1.7-3.8,3.7c0,2.1,1.7,3.7,3.7,3.7
		c1.1,0,2.1-0.5,2.9-1.2l-0.8-0.8c-0.5,0.5-1.3,0.9-2,0.9c-1.4,0-2.6-1.2-2.6-2.6s1.2-2.5,2.6-2.5
		C121.2,497.2,122,497.6,122.5,498.1z"/>
	<path id="_x33_3_1_" d="M128.9,497.6l0.4-0.9c-0.6-0.4-1.4-0.6-2.2-0.6c-1.9,0-3.1,1.5-3.1,3.8s1.1,3.6,3,3.6
		c1.5,0,2.6-0.9,2.6-2.4c0-1.4-0.9-2.4-2.4-2.4c-0.9,0-1.6,0.4-2,1.1c0-1.6,0.6-2.7,2-2.7C127.8,497.1,128.4,497.3,128.9,497.6z
		 M127,499.7c0.9,0,1.4,0.5,1.4,1.4s-0.6,1.4-1.5,1.4c-1.1,0-1.5-0.7-1.5-1.4C125.4,500.3,126,499.7,127,499.7z"/>
	<path id="_x33_4_1_" d="M133.8,496.1h-3v7.3h3c2.2,0,3.8-1.5,3.8-3.7C137.7,497.6,136.1,496.1,133.8,496.1z M133.9,502.3h-1.8v-5.1
		h1.7c1.4,0,2.6,1.1,2.6,2.6C136.4,501.2,135.4,502.3,133.9,502.3z"/>
	<path id="_x33_5_1_" d="M143.3,497.6l0.5-0.9c-0.6-0.4-1.5-0.6-2.2-0.6c-1.9,0-3.1,1.5-3.1,3.8s1.1,3.6,3,3.6
		c1.5,0,2.6-0.9,2.6-2.4c0-1.4-0.9-2.4-2.4-2.4c-0.9,0-1.6,0.4-2,1.1c0-1.6,0.6-2.7,2.1-2.7C142.3,497.1,142.9,497.3,143.3,497.6z
		 M141.5,499.7c0.9,0,1.4,0.5,1.4,1.4s-0.6,1.4-1.5,1.4c-1.1,0-1.5-0.7-1.5-1.4C139.9,500.3,140.5,499.7,141.5,499.7z"/>
	<path d="M102.9,532.7l-1.7-2.4c0.9-0.4,1.5-1.2,1.5-2.4c0-1.6-1.1-2.4-3-2.4h-3v7.3h1.2v-2.2h1.7c0.1,0,0.2,0,0.4,0l1.3,2.2
		L102.9,532.7L102.9,532.7z M98.1,529.4v-2.9h1.7c1.2,0,1.8,0.4,1.8,1.4c0,0.9-0.6,1.4-1.8,1.4L98.1,529.4L98.1,529.4z"/>
	<path id="_x31__9_" d="M109.4,531.1c-0.5,0.4-1.2,0.5-1.7,0.5c-1.4,0-2.7-1.1-2.7-2.6c0-1.4,1.2-2.6,2.7-2.6c0.8,0,1.6,0.4,2.2,0.9
		l0.6-0.9c-0.7-0.6-1.7-1-2.8-1c-2.2,0-3.9,1.6-3.9,3.7c0,2.1,1.7,3.7,3.8,3.7c1,0,2.1-0.4,2.9-1v-2.7h-1.1V531.1z"/>
	<path id="_x32__9_" d="M115.3,525.4h-3.2v7.3h3.2c1.7,0,2.7-0.8,2.7-2c0-0.9-0.6-1.7-1.6-1.8c0.8-0.2,1.3-0.9,1.3-1.7
		C117.8,526.1,116.9,525.4,115.3,525.4z M115.3,528.5h-1.9v-1.9h1.9c0.8,0,1.2,0.4,1.2,0.9C116.5,528.1,116.1,528.5,115.3,528.5z
		 M115.3,531.6h-1.9v-2.1h1.9c0.9,0,1.5,0.4,1.5,1C116.8,531.2,116.2,531.6,115.3,531.6z"/>
	<polygon id="_x33__9_" points="122.8,525.4 122.8,526.5 124.3,526.5 124.3,532.7 125.6,532.7 125.6,525.4 	"/>
	<path id="_x34__9_" d="M131.5,528.5h-0.4l2.3-2.3v-0.7h-4.8v1.1h3.2l-2.1,2v0.7h1c1.2,0,1.8,0.4,1.8,1.2c0,0.7-0.6,1.2-1.7,1.2
		c-0.8,0-1.5-0.2-2.1-0.7l-0.5,1c0.6,0.4,1.7,0.8,2.7,0.8c1.7,0,2.8-1,2.8-2.3C133.8,529.3,132.9,528.6,131.5,528.5z"/>
	<path id="_x35__9_" d="M135.6,531.4c-0.4,0-0.6,0.3-0.6,0.7c0,0.2,0.1,0.4,0.3,0.5l-0.4,0.9h0.6l0.6-0.9c0.1-0.1,0.2-0.3,0.2-0.5
		C136.3,531.7,136,531.4,135.6,531.4z"/>
	<polygon id="_x36__9_" points="141,525.4 141,526.5 142.6,526.5 142.6,532.7 143.8,532.7 143.8,525.4 	"/>
	<polygon id="_x37__6_" points="149.2,525.4 146.6,530 146.6,530.9 150.2,530.9 150.2,532.7 151.3,532.7 151.3,530.9 152.4,530.9 
		152.4,529.8 151.3,529.8 151.3,528.1 150.2,528.1 150.2,529.8 148,529.8 150.3,525.4 	"/>
	<path id="_x38__4_" d="M153.8,531.4c-0.4,0-0.6,0.3-0.6,0.7c0,0.2,0.1,0.4,0.2,0.5l-0.4,0.9h0.6l0.6-0.9c0.1-0.1,0.1-0.3,0.1-0.5
		C154.4,531.7,154.1,531.4,153.8,531.4z"/>
	<path id="_x39__4_" d="M161.3,525.4c-1.5,0-2.4,0.7-2.4,1.8c0,0.7,0.4,1.3,1.2,1.7c-0.9,0.3-1.5,0.9-1.5,1.9c0,1.3,1.1,2.1,2.8,2.1
		s2.7-0.9,2.7-2.2c0-0.9-0.5-1.5-1.4-1.8c0.7-0.3,1.1-0.9,1.1-1.6C163.7,526.1,162.7,525.4,161.3,525.4z M161.3,526.2
		c0.9,0,1.4,0.4,1.4,1.1c0,0.6-0.5,1.1-1.4,1.1s-1.4-0.4-1.4-1.1C159.8,526.7,160.4,526.2,161.3,526.2z M161.3,529.3
		c1,0,1.6,0.4,1.6,1.2s-0.6,1.2-1.6,1.2c-1.1,0-1.7-0.4-1.7-1.2C159.6,529.8,160.2,529.3,161.3,529.3z"/>
	<path id="_x31_0_4_" d="M165.6,531.3l-0.5,0.9c0.6,0.4,1.4,0.6,2.2,0.6c1.9,0,3.2-1.5,3.2-3.9c0-2.2-1.2-3.5-3-3.5
		c-1.5,0-2.5,0.9-2.5,2.4c0,1.4,0.9,2.3,2.3,2.3c0.9,0,1.7-0.4,2-1c0,1.6-0.6,2.6-2,2.6C166.6,531.7,166,531.6,165.6,531.3z
		 M167.5,526.4c1.1,0,1.5,0.8,1.5,1.4c0,0.8-0.6,1.4-1.5,1.4s-1.4-0.5-1.4-1.4C166,527,166.6,526.4,167.5,526.4z"/>
	<path id="_x31_1_4_" d="M102.1,540.9l0.7-0.9c-0.7-0.7-1.7-1.2-2.7-1.2c-2.2,0-3.8,1.6-3.8,3.7s1.7,3.7,3.7,3.7
		c1.1,0,2.1-0.5,2.8-1.2l-0.7-0.8c-0.5,0.5-1.3,0.9-2,0.9c-1.4,0-2.6-1.2-2.6-2.6s1.2-2.6,2.6-2.6
		C100.8,540,101.6,540.3,102.1,540.9z"/>
	<polygon id="_x31_2_4_" points="104.1,539 104.1,546.2 105.3,546.2 105.3,540.8 107.6,545.5 108.4,545.5 110.7,540.8 110.7,546.2 
		111.8,546.2 111.8,539 110.4,539 107.9,543.8 105.5,539 	"/>
	<polygon id="_x31_3_3_" points="119.4,539 118.1,539 116.1,542.5 114,539 112.7,539 115.5,543.9 115.5,546.2 116.7,546.2 
		116.7,543.8 	"/>
	<polygon id="_x31_4_3_" points="126.6,546.2 123.7,542.1 126.5,539 125.1,539 121.6,542.7 121.6,539 120.3,539 120.3,546.2 
		121.6,546.2 121.6,544.4 122.8,543 125.2,546.2 	"/>
	<path id="_x31_5_3_" d="M133.2,538.9c-1.5,0-2.4,0.7-2.4,1.8c0,0.7,0.4,1.3,1.2,1.7c-0.9,0.3-1.5,0.9-1.5,1.9
		c0,1.3,1.1,2.1,2.8,2.1s2.8-0.9,2.8-2.2c0-0.9-0.6-1.5-1.4-1.8c0.6-0.3,1-0.9,1-1.6C135.6,539.6,134.7,538.9,133.2,538.9z
		 M133.2,539.8c0.9,0,1.4,0.4,1.4,1.1c0,0.6-0.5,1.1-1.4,1.1s-1.4-0.4-1.4-1.1S132.3,539.8,133.2,539.8z M133.2,542.9
		c1,0,1.6,0.4,1.6,1.2s-0.6,1.2-1.6,1.2s-1.7-0.4-1.7-1.2S132.2,542.9,133.2,542.9z"/>
	<path id="_x31_6_3_" d="M138.5,541.6V540h3.5v-1h-4.7v3.8c0.6-0.1,1.6-0.1,2-0.1c1,0,1.7,0.4,1.7,1.2c0,0.9-0.6,1.4-1.7,1.4
		c-0.6,0-1.4-0.3-2.1-0.8l-0.5,1c0.8,0.5,1.8,0.8,2.7,0.8c1.7,0,2.8-0.9,2.8-2.4c0-1.2-1.1-2.2-2.7-2.2
		C139.2,541.6,138.8,541.6,138.5,541.6z"/>
	<path id="_x31_7_3_" d="M145.1,538.9c-1.2,0-1.9,0.9-1.9,2.2c0,1.4,0.7,2.2,1.9,2.2s1.9-0.9,1.9-2.2
		C147.1,539.8,146.3,538.9,145.1,538.9z M150,539l-5.4,7.3h1.2l5.3-7.3H150z M145.1,539.6c0.7,0,1.2,0.6,1.2,1.4
		c0,0.9-0.4,1.5-1.2,1.5s-1.2-0.6-1.2-1.5C144,540.2,144.4,539.6,145.1,539.6z M150.6,541.9c-1.2,0-1.9,0.8-1.9,2.2s0.7,2.2,1.9,2.2
		s1.9-0.8,1.9-2.2C152.6,542.7,151.8,541.9,150.6,541.9z M150.6,542.6c0.7,0,1.2,0.5,1.2,1.4s-0.4,1.4-1.2,1.4s-1.2-0.5-1.2-1.4
		S149.9,542.6,150.6,542.6z"/>
	<path id="_x31_8_2_" d="M154.1,544.9c-0.4,0-0.6,0.3-0.6,0.7c0,0.2,0.1,0.4,0.3,0.5l-0.4,0.9h0.6l0.6-0.9c0.1-0.1,0.2-0.3,0.2-0.5
		C154.7,545.2,154.4,544.9,154.1,544.9z"/>
	<path id="_x31_9_2_" d="M161.5,538.9c-1.4,0-2.4,0.7-2.4,1.8c0,0.7,0.4,1.3,1.1,1.7c-0.9,0.3-1.4,0.9-1.4,1.9
		c0,1.3,1.1,2.1,2.7,2.1c1.7,0,2.8-0.9,2.8-2.2c0-0.9-0.6-1.5-1.4-1.8c0.6-0.3,1.1-0.9,1.1-1.6C163.9,539.6,163,538.9,161.5,538.9z
		 M161.5,539.8c0.9,0,1.4,0.4,1.4,1.1c0,0.6-0.5,1.1-1.4,1.1s-1.4-0.4-1.4-1.1S160.6,539.8,161.5,539.8z M161.5,542.9
		c1,0,1.7,0.4,1.7,1.2s-0.6,1.2-1.7,1.2s-1.6-0.4-1.6-1.2S160.5,542.9,161.5,542.9z"/>
	<polygon id="_x32_0_2_" points="167.6,539 165.1,543.5 165.1,544.4 168.6,544.4 168.6,546.2 169.8,546.2 169.8,544.4 170.9,544.4 
		170.9,543.4 169.8,543.4 169.8,541.6 168.6,541.6 168.6,543.4 166.4,543.4 168.8,539 	"/>
	<path id="_x32_1_2_" d="M173.4,538.9c-1.2,0-1.9,0.9-1.9,2.2c0,1.4,0.8,2.2,1.9,2.2c1.2,0,1.9-0.9,1.9-2.2
		C175.4,539.8,174.7,538.9,173.4,538.9z M178.3,539l-5.4,7.3h1.2l5.3-7.3H178.3z M173.4,539.6c0.7,0,1.2,0.6,1.2,1.4
		c0,0.9-0.4,1.5-1.2,1.5c-0.7,0-1.1-0.6-1.1-1.5C172.4,540.2,172.7,539.6,173.4,539.6z M178.9,541.9c-1.2,0-1.9,0.8-1.9,2.2
		s0.7,2.2,1.9,2.2s1.9-0.8,1.9-2.2C180.9,542.7,180.1,541.9,178.9,541.9z M178.9,542.6c0.7,0,1.2,0.5,1.2,1.4s-0.4,1.4-1.2,1.4
		s-1.1-0.5-1.1-1.4S178.2,542.6,178.9,542.6z"/>
	<path id="_x32_2_2_" d="M182.4,544.9c-0.4,0-0.6,0.3-0.6,0.7c0,0.2,0.1,0.4,0.3,0.5l-0.4,0.9h0.6l0.6-0.9c0.1-0.1,0.1-0.3,0.1-0.5
		C183,545.2,182.7,544.9,182.4,544.9z"/>
	<path id="_x32_3_2_" d="M189.9,538.9c-1.8,0-2.8,1.3-2.8,3.7s1,3.7,2.8,3.7c1.7,0,2.7-1.3,2.7-3.7S191.6,538.9,189.9,538.9z
		 M189.9,539.8c1,0,1.5,0.9,1.5,2.7s-0.5,2.7-1.5,2.7c-1.1,0-1.6-0.9-1.6-2.7S188.8,539.8,189.9,539.8z"/>
	<path id="_x32_4_2_" d="M195.3,538.9c-1.2,0-1.9,0.9-1.9,2.2c0,1.4,0.7,2.2,1.9,2.2s1.9-0.9,1.9-2.2
		C197.3,539.8,196.6,538.9,195.3,538.9z M200.2,539l-5.3,7.3h1.2l5.3-7.3H200.2z M195.3,539.6c0.7,0,1.2,0.6,1.2,1.4
		c0,0.9-0.4,1.5-1.2,1.5c-0.7,0-1.1-0.6-1.1-1.5C194.2,540.2,194.6,539.6,195.3,539.6z M200.8,541.9c-1.2,0-1.9,0.8-1.9,2.2
		s0.7,2.2,1.9,2.2s1.9-0.8,1.9-2.2S202,541.9,200.8,541.9z M200.8,542.6c0.7,0,1.2,0.5,1.2,1.4s-0.4,1.4-1.2,1.4
		c-0.7,0-1.1-0.5-1.1-1.4S200.1,542.6,200.8,542.6z"/>
	<path id="_x32_5_2_" d="M204.3,544.9c-0.4,0-0.6,0.3-0.6,0.7c0,0.2,0.1,0.4,0.3,0.5l-0.4,0.9h0.6l0.6-0.9c0.1-0.1,0.1-0.3,0.1-0.5
		C204.9,545.2,204.6,544.9,204.3,544.9z"/>
	<path id="_x32_6_2_" d="M213.8,540.3l0.5-0.9c-0.6-0.4-1.4-0.6-2.2-0.6c-1.9,0-3.2,1.5-3.2,3.8c0,2.2,1.2,3.6,3,3.6
		c1.6,0,2.6-0.9,2.6-2.4c0-1.4-0.9-2.4-2.4-2.4c-0.9,0-1.6,0.4-1.9,1.1c-0.1-1.6,0.6-2.7,2-2.7C212.8,539.9,213.4,540.1,213.8,540.3
		z M212,542.5c0.9,0,1.4,0.5,1.4,1.3c0,0.9-0.6,1.4-1.5,1.4c-1,0-1.5-0.7-1.4-1.4C210.4,543.1,211,542.5,212,542.5z"/>
	<path id="_x32_7_2_" d="M217,541.6V540h3.5v-1h-4.6v3.8c0.5-0.1,1.6-0.1,2-0.1c1,0,1.7,0.4,1.7,1.2c0,0.9-0.6,1.4-1.7,1.4
		c-0.7,0-1.4-0.3-2.1-0.8l-0.5,1c0.8,0.5,1.8,0.8,2.7,0.8c1.7,0,2.8-0.9,2.8-2.4c0-1.2-1.1-2.2-2.7-2.2
		C217.8,541.6,217.3,541.6,217,541.6z"/>
	<path id="_x32_8_2_" d="M223.7,538.9c-1.2,0-1.9,0.9-1.9,2.2c0,1.4,0.7,2.2,1.9,2.2s1.9-0.9,1.9-2.2
		C225.6,539.8,224.8,538.9,223.7,538.9z M228.4,539l-5.3,7.3h1.2l5.3-7.3H228.4z M223.7,539.6c0.7,0,1.1,0.6,1.1,1.4
		c0,0.9-0.4,1.5-1.1,1.5s-1.2-0.6-1.2-1.5C222.5,540.2,223,539.6,223.7,539.6z M229.2,541.9c-1.2,0-1.9,0.8-1.9,2.2s0.7,2.2,1.9,2.2
		s1.9-0.8,1.9-2.2C231,542.7,230.3,541.9,229.2,541.9z M229.2,542.6c0.7,0,1.2,0.5,1.2,1.4s-0.4,1.4-1.2,1.4s-1.2-0.5-1.2-1.4
		S228.4,542.6,229.2,542.6z"/>
	<path id="_x32_9_2_" d="M103,555.2l0.1-0.9h-1.4l0.2-1.9H101l-0.2,1.9h-1.9l0.3-1.9h-0.9l-0.2,1.9h-1.4l-0.1,0.9H98l-0.3,1.8h-1.4
		l-0.1,0.9h1.4l-0.2,1.8h0.9l0.2-1.8h1.9l-0.2,1.8h0.9l0.2-1.8h1.5l0.1-0.9h-1.5l0.3-1.8H103z M100.4,557h-1.8l0.2-1.8h1.8
		L100.4,557z"/>
	<path id="_x33_0_2_" d="M106.6,552.4c-1.7,0-2.7,1.3-2.7,3.7s1,3.7,2.7,3.7c1.8,0,2.7-1.3,2.7-3.7S108.4,552.4,106.6,552.4z
		 M106.6,553.4c1,0,1.5,0.9,1.5,2.7c0,1.9-0.5,2.7-1.5,2.7s-1.5-0.9-1.5-2.7C105.1,554.2,105.6,553.4,106.6,553.4z"/>
	<path id="_x33_1_2_" d="M113.8,552.5h-3v7.3h3c2.2,0,3.8-1.6,3.8-3.7C117.6,554,116,552.5,113.8,552.5z M113.8,558.7H112v-5.1h1.7
		c1.4,0,2.6,1.1,2.6,2.5C116.3,557.6,115.3,558.7,113.8,558.7z"/>
	<path id="_x33_2_2_" d="M121.1,552.4c-1.7,0-2.7,1.3-2.7,3.7s1,3.7,2.7,3.7c1.8,0,2.7-1.3,2.7-3.7S122.9,552.4,121.1,552.4z
		 M121.1,553.4c1,0,1.5,0.9,1.5,2.7c0,1.9-0.5,2.7-1.5,2.7s-1.5-0.9-1.5-2.7C119.6,554.2,120.1,553.4,121.1,553.4z"/>
	<polygon id="_x33_3_2_" points="125.3,552.5 125.3,559.8 130.6,559.8 130.6,558.7 126.5,558.7 126.5,556.7 130.1,556.7 
		130.1,555.5 126.5,555.5 126.5,553.6 130.5,553.6 130.5,552.5 	"/>
	<path id="_x33_4_2_" d="M133.2,555.2v-1.6h3.5v-1.1h-4.6v3.8c0.5-0.1,1.5-0.1,2-0.1c0.9,0,1.6,0.4,1.6,1.2c0,0.9-0.6,1.4-1.7,1.4
		c-0.6,0-1.4-0.3-2-0.8l-0.5,1c0.7,0.5,1.8,0.8,2.7,0.8c1.7,0,2.8-0.9,2.8-2.4c0-1.2-1.1-2.2-2.7-2.2
		C134,555.2,133.6,555.2,133.2,555.2z"/>
	<path id="_x33_5_2_" d="M138.7,558.3l-0.4,0.9c0.6,0.4,1.4,0.6,2.2,0.6c1.9,0,3.1-1.6,3.1-3.9c0-2.2-1.1-3.5-3-3.5
		c-1.5,0-2.5,0.9-2.5,2.4c0,1.4,0.9,2.3,2.3,2.3c0.9,0,1.6-0.4,2-1c0,1.6-0.6,2.6-2.1,2.6C139.7,558.8,139.1,558.6,138.7,558.3z
		 M140.6,553.4c1.1,0,1.5,0.8,1.5,1.4c0,0.8-0.6,1.4-1.6,1.4c-0.9,0-1.4-0.6-1.4-1.4C139.2,554,139.7,553.4,140.6,553.4z"/>
</g>
<path class="st8" d="M46.9,386.2l0.8-0.9c-0.6-0.7-1.6-1.1-2.8-1.1c-2,0-3.4,1.4-3.4,3.5c0,2,1.4,3.4,3.4,3.4c1.3,0,2.2-0.4,2.9-1.2
	L47,389c-0.5,0.6-1.2,0.9-2,0.9c-1.2,0-2-0.9-2-2.2c0-1.3,0.9-2.2,2-2.2C45.7,385.4,46.4,385.7,46.9,386.2z"/>
<path id="_x31__10_" class="st8" d="M51.9,384.2c-2.1,0-3.5,1.4-3.5,3.4c0,2.1,1.4,3.5,3.5,3.5s3.5-1.4,3.5-3.5S54,384.2,51.9,384.2
	z M51.9,385.4c1.2,0,2.1,0.9,2.1,2.2c0,1.3-0.9,2.2-2.1,2.2c-1.2,0-2.1-0.9-2.1-2.2C49.8,386.3,50.7,385.4,51.9,385.4z"/>
<polygon id="_x32__10_" class="st8" points="57,381.5 57,390.9 58.5,390.9 58.5,381.5 "/>
<path id="_x33__10_" class="st8" d="M63.6,384.2c-2.2,0-3.6,1.4-3.6,3.4c0,2.1,1.4,3.5,3.6,3.5c2.1,0,3.5-1.4,3.5-3.5
	C67.2,385.5,65.7,384.2,63.6,384.2z M63.6,385.4c1.2,0,2,0.9,2,2.2c0,1.3-0.9,2.2-2,2.2c-1.2,0-2.1-0.9-2.1-2.2
	C61.6,386.3,62.4,385.4,63.6,385.4z"/>
<path id="_x34__10_" class="st8" d="M70.1,385.5v-1.4h-1.4v6.8h1.4v-3.5c0.1-1.2,1-1.9,2.4-1.9v-1.4
	C71.4,384.2,70.6,384.6,70.1,385.5z"/>
<path id="_x35__10_" class="st8" d="M81.4,384.2c-1.1,0-1.9,0.4-2.4,1.2v-1.2h-1.4v9.3H79v-3.7c0.5,0.8,1.3,1.2,2.4,1.2
	c1.9,0,3.2-1.4,3.2-3.4C84.7,385.5,83.4,384.2,81.4,384.2z M81.1,389.8c-1.2,0-2.1-0.9-2.1-2.2s0.9-2.2,2.1-2.2s2,0.9,2,2.2
	C83.2,388.9,82.3,389.8,81.1,389.8z"/>
<path id="_x36__10_" class="st8" d="M91.7,390.9v-4.4c0-1.5-1-2.4-2.7-2.4c-1.3,0-1.9,0.3-2.9,0.9l0.6,1c0.6-0.5,1.4-0.7,2-0.7
	c1.1,0,1.6,0.5,1.6,1.4v0.2h-2c-1.7,0-2.6,0.8-2.6,2s0.9,2.1,2.4,2.1c1,0,1.8-0.3,2.2-0.9v0.8H91.7z M88.3,389.9
	c-0.9,0-1.4-0.4-1.4-1s0.5-0.9,1.4-0.9h1.8v0.6C90.1,389.4,89.3,389.9,88.3,389.9z"/>
<polygon id="_x37__7_" class="st8" points="93.7,381.5 93.7,390.9 95.2,390.9 95.2,381.5 "/>
<path id="_x38__5_" class="st8" d="M100.2,384.2c-2,0-3.5,1.4-3.5,3.5c0,2,1.4,3.4,3.5,3.4c1.2,0,2.2-0.4,2.8-1.2l-0.8-0.8
	c-0.5,0.5-1.2,0.8-1.9,0.8c-1.1,0-1.9-0.6-2.1-1.7h5.1C103.5,385.7,102.6,384.2,100.2,384.2z M98.2,387.1c0.1-1.1,0.9-1.7,2-1.7
	s1.8,0.6,1.9,1.7H98.2z"/>
<path id="_x39__5_" class="st8" d="M108.4,389.4c-0.4,0.2-0.7,0.3-1,0.3c-0.4,0-0.7-0.2-0.7-0.9v-3.2h2v-1.1h-2v-1.9h-1.4v1.9h-1
	v1.1h1v3.5c0,1.4,0.9,1.9,1.9,1.9c0.6,0,1.2-0.1,1.7-0.5L108.4,389.4z"/>
<path id="_x31_0_5_" class="st8" d="M113.5,389.4c-0.4,0.2-0.7,0.3-1,0.3c-0.4,0-0.7-0.2-0.7-0.9v-3.2h2v-1.1h-2v-1.9h-1.4v1.9h-1
	v1.1h1v3.5c0,1.4,0.9,1.9,1.9,1.9c0.6,0,1.2-0.1,1.7-0.5L113.5,389.4z"/>
<path id="_x31_1_5_" class="st8" d="M118,384.2c-2,0-3.5,1.4-3.5,3.5c0,2,1.4,3.4,3.5,3.4c1.2,0,2.2-0.4,2.8-1.2l-0.8-0.8
	c-0.5,0.5-1.2,0.8-1.9,0.8c-1.1,0-1.9-0.6-2.1-1.7h5.1C121.3,385.7,120.4,384.2,118,384.2z M116,387.1c0.1-1.1,0.9-1.7,2-1.7
	s1.8,0.6,1.9,1.7H116z"/>
<path id="_x31_2_5_" class="st8" d="M126.6,385.9l0.5-1.1c-0.6-0.4-1.5-0.7-2.4-0.7c-1.3,0-2.5,0.6-2.5,2c0,2.4,3.6,1.7,3.6,3
	c0,0.5-0.5,0.7-1.2,0.7s-1.7-0.3-2.2-0.8l-0.5,1c0.6,0.6,1.7,0.9,2.7,0.9c1.4,0,2.7-0.6,2.7-2c0-2.4-3.6-1.8-3.6-3
	c0-0.5,0.4-0.6,0.9-0.6C125.2,385.3,125.9,385.5,126.6,385.9z"/>
<line class="st0" x1="297.6" y1="372" x2="29.3" y2="372"/>
<line class="st0" x1="566" y1="127.8" x2="297.6" y2="127.8"/>
<line class="st0" x1="566" y1="309.5" x2="297.6" y2="309.5"/>
<path class="st8" d="M330.7,148c0.3,0,0.6,0.1,0.9,0.3l0.5-1.2c-0.4-0.3-0.9-0.4-1.5-0.4c-1.2,0-2.3,0.7-2.3,2.3v0.6h-0.9v1.2h0.9
	v5.4h1.4v-5.4h1.7v-1.2h-1.7v-0.8C329.7,148.2,330.2,148,330.7,148z"/>
<path id="_x31__11_" class="st8" d="M337.5,156.2l-0.1-4.5c0-1.4-0.9-2.4-2.7-2.4c-1.3,0-1.9,0.3-2.9,0.9l0.6,1
	c0.6-0.4,1.4-0.6,2-0.6c1.1,0,1.6,0.5,1.6,1.4v0.1h-2c-1.7,0.1-2.6,0.9-2.6,2.1c0,1.2,0.9,2.1,2.4,2.1c1,0,1.8-0.3,2.2-0.9v0.8
	L337.5,156.2L337.5,156.2z M334.1,155.1c-0.9,0-1.4-0.4-1.4-1s0.5-0.9,1.4-0.9h1.8v0.6C335.9,154.5,335.1,155.1,334.1,155.1z"/>
<polygon id="_x32__11_" class="st8" points="338.2,149.4 340.8,156.2 342.3,156.2 344.9,149.4 343.4,149.4 341.6,154.7 339.7,149.4 
	"/>
<path id="_x33__11_" class="st8" d="M346.7,146.6c-0.5,0-0.9,0.4-0.9,0.9s0.4,0.9,0.9,0.9s0.9-0.4,0.9-0.9S347.2,146.6,346.7,146.6z
	 M345.9,149.4v6.8h1.4v-6.8H345.9z"/>
<path id="_x34__11_" class="st8" d="M354.3,151.4l0.9-0.9c-0.6-0.7-1.6-1.2-2.8-1.2c-2,0-3.5,1.4-3.5,3.5s1.4,3.5,3.5,3.5
	c1.2,0,2.2-0.5,2.9-1.3l-0.9-0.8c-0.4,0.5-1.2,0.8-2,0.8c-1.2,0-1.9-0.9-1.9-2.2s0.8-2.2,1.9-2.2
	C353.2,150.6,353.9,150.9,354.3,151.4z"/>
<path id="_x35__11_" class="st8" d="M359.3,149.3c-2.1,0-3.5,1.4-3.5,3.5c0,2,1.4,3.5,3.5,3.5s3.5-1.4,3.5-3.5
	C362.9,150.7,361.4,149.3,359.3,149.3z M359.3,150.6c1.2,0,2.1,0.9,2.1,2.2s-0.9,2.2-2.1,2.2s-2-0.9-2-2.2S358.1,150.6,359.3,150.6z
	"/>
<path id="_x36__11_" class="st8" d="M368.4,149.3c-1.2,0-2,0.4-2.5,1.4v-1.3h-1.4v6.8h1.4v-3.6c0.1-1.1,0.8-1.9,1.9-1.9
	c1,0,1.6,0.6,1.6,1.7v3.8h1.5V152C370.9,150.3,370,149.3,368.4,149.3z"/>
<path id="_x37__8_" class="st8" d="M381.4,151.4l0.9-0.9c-0.6-0.7-1.6-1.2-2.8-1.2c-2,0-3.5,1.4-3.5,3.5s1.4,3.5,3.5,3.5
	c1.3,0,2.2-0.5,2.9-1.3l-0.9-0.8c-0.4,0.5-1.2,0.8-1.9,0.8c-1.2,0-2-0.9-2-2.2s0.8-2.2,2-2.2C380.4,150.6,381,150.9,381.4,151.4z"/>
<path id="_x38__6_" class="st8" d="M386.6,149.3c-2.2,0-3.6,1.4-3.6,3.5c0,2,1.4,3.5,3.6,3.5c2.1,0,3.5-1.4,3.5-3.5
	S388.6,149.3,386.6,149.3z M386.6,150.6c1.2,0,2,0.9,2,2.2s-0.9,2.2-2,2.2c-1.2,0-2.1-0.9-2.1-2.2S385.3,150.6,386.6,150.6z"/>
<polygon id="_x39__6_" class="st8" points="391.7,146.7 391.7,156.2 393.1,156.2 393.1,146.7 "/>
<path id="_x31_0_6_" class="st8" d="M398.2,149.3c-2.1,0-3.5,1.4-3.5,3.5c0,2,1.4,3.5,3.5,3.5s3.5-1.4,3.5-3.5
	S400.3,149.3,398.2,149.3z M398.2,150.6c1.2,0,2.1,0.9,2.1,2.2s-0.9,2.2-2.1,2.2s-2.1-0.9-2.1-2.2S397,150.6,398.2,150.6z"/>
<path id="_x31_1_6_" class="st8" d="M404.8,150.8v-1.4h-1.4v6.8h1.4v-3.5c0.1-1.2,1-1.9,2.3-1.9v-1.4
	C406.1,149.3,405.2,149.8,404.8,150.8z"/>
<path id="_x31_2_6_" class="st8" d="M411.1,149.3c-2,0-3.5,1.4-3.5,3.5s1.4,3.5,3.5,3.5c1.2,0,2.1-0.4,2.7-1.2l-0.7-0.9
	c-0.5,0.5-1.2,0.8-1.9,0.8c-1.1,0-1.9-0.6-2.1-1.7h5.1C414.5,150.9,413.5,149.3,411.1,149.3z M409.2,152.3c0.1-1.1,0.9-1.8,1.9-1.8
	c1.2,0,1.9,0.7,1.9,1.8H409.2z"/>
<path id="_x31_3_4_" class="st8" d="M420.8,146.7v3.8c-0.5-0.8-1.4-1.2-2.4-1.2c-1.9,0-3.2,1.4-3.2,3.5c0,2,1.3,3.5,3.3,3.5
	c1.1,0,1.9-0.4,2.4-1.2v1.2h1.4v-9.4h-1.5V146.7z M418.7,155c-1.2,0-2.1-0.9-2.1-2.2s0.9-2.2,2.1-2.2s2.1,0.9,2.1,2.2
	S420,155,418.7,155z"/>
<g id="_923830144">
	<polygon class="st2" points="348.5,202.4 395.4,186.5 442.3,202.4 395.4,218.3 	"/>
	<path class="st2" d="M364.2,212.3c0.4-6,1.4-12.6,3.5-18.2c0.2-0.6,0.5-1.3,0.8-1.9c-1.7-2.6-2.9-5.5-3.2-8.6
		c-0.5-4,0.6-9.1,5.3-9.9c3.2-0.5,9.9,1.4,14,2.7c7.1-3,14.4-3.4,21.5-0.6c3.5-3.3,8.4-6.5,12.6-5.8c6.2,1,7.3,10.9,6.7,15.8
		c-0.3,2.2-0.9,4.3-1.9,6.3c0.4,0.6,0.6,1.3,0.9,2c1.4,3.9,2.2,8.2,2.8,12.3c1.9,6.7,1.7,15.6,1.1,22.5c0,0.5,0,1.1,0,1.6H353
		C354.8,223.6,359,217.5,364.2,212.3z"/>
	<path class="st3" d="M357.6,230.5c1.8-5.8,5.5-11.1,10.9-16.2c0.4-7.1,1.5-13.7,3.3-18.6c0.5-1.4,1.2-2.7,1.9-3.9
		c-4.9-5.4-5.2-13.2-2.4-13.7c2.5-0.4,10.5,2.1,13.5,3.1c8-3.7,15.4-3.6,22.3,0c3.2-4,8.3-7.2,10.8-6.8c2.7,0.4,5.3,12,0.3,17.4
		c0.8,1.2,1.4,2.5,1.9,3.9c1.2,3.2,2,7.3,2.6,11.7c2,6.6,1.5,16.8,0.9,23.2h0.1c0-0.9,0-1.7,0-2.6c-0.1,0.9-0.3,1.8-0.4,2.6
		L357.6,230.5L357.6,230.5z"/>
	<g>
		<path class="st2" d="M384.3,194.8c2.2,0,4,2.6,4,5.8s-1.8,5.8-4,5.8s-4-2.6-4-5.8S382,194.8,384.3,194.8z"/>
		<path class="st2" d="M407,194.8c2.2,0,4,2.6,4,5.8s-1.8,5.8-4,5.8s-4-2.6-4-5.8S404.8,194.8,407,194.8z"/>
	</g>
	
		<linearGradient id="SVGID_3_" gradientUnits="userSpaceOnUse" x1="5205.3965" y1="1601.7616" x2="5704.6362" y2="948.0016" gradientTransform="matrix(7.199757e-02 0 0 7.199757e-02 25.0561 143.6314)">
		<stop  offset="0" style="stop-color:#0CC7D4"/>
		<stop  offset="1" style="stop-color:#2ED5BF"/>
	</linearGradient>
	<polygon class="st11" points="442.3,202.4 395.4,218.3 389.8,244.3 395.4,265.7 442.3,249.8 442.3,246.5 442.3,208.9 	"/>
	<polygon class="st5" points="395.4,218.3 405.4,232.5 451.7,215.7 442.3,202.4 	"/>
	<rect x="336.2" y="243.5" class="st6" width="12.3" height="12.3"/>
	<rect x="327.4" y="234.7" class="st6" width="8.8" height="8.8"/>
	<polygon class="st7" points="348.5,202.4 395.4,218.3 395.4,224.8 395.4,262.4 395.4,265.7 359.7,253.6 359.7,245.9 363.6,245.9 
		363.6,238.2 355.8,238.2 355.8,242.1 348.5,242.1 348.5,208.9 	"/>
	<polygon class="st5" points="395.4,218.3 385.3,232.5 339,215.7 348.5,202.4 	"/>
</g>
<g id="_923827048">
	<polygon class="st2" points="458.1,253.9 466.9,250.8 475.8,253.9 466.9,256.9 	"/>
	<path class="st2" d="M461.1,255.7c0.1-1.2,0.2-2.4,0.6-3.4c0-0.1,0.1-0.3,0.1-0.4c-0.4-0.5-0.6-1.1-0.6-1.7c-0.1-0.7,0.1-1.7,1-1.9
		c0.6-0.1,1.9,0.3,2.7,0.5c1.3-0.5,2.7-0.6,4-0.1c0.6-0.6,1.6-1.2,2.4-1.1c1.2,0.1,1.4,2,1.2,3c-0.1,0.4-0.1,0.8-0.4,1.2
		c0.1,0.1,0.1,0.3,0.1,0.4c0.3,0.7,0.4,1.5,0.6,2.3c0.4,1.2,0.3,2.9,0.2,4.2c0,0.1,0,0.2,0,0.4h-14.2
		C459.3,257.8,460.1,256.7,461.1,255.7z"/>
	<path class="st3" d="M459.8,259.2c0.4-1.1,1.1-2.1,2.1-3.1c0.1-1.3,0.3-2.5,0.6-3.5c0.1-0.3,0.1-0.5,0.3-0.8
		c-0.9-1-0.9-2.4-0.4-2.5s1.9,0.4,2.5,0.6c1.5-0.7,3-0.7,4.2,0c0.6-0.8,1.6-1.4,2.1-1.3c0.5,0.1,0.9,2.2,0,3.2
		c0.2,0.3,0.3,0.5,0.4,0.8c0.3,0.6,0.4,1.4,0.5,2.2c0.4,1.2,0.3,3.2,0.2,4.4l0,0c0-0.2,0-0.4,0-0.5c0,0.1-0.1,0.4-0.1,0.5H459.8z"/>
	<g>
		<path class="st2" d="M464.8,252.4c0.4,0,0.8,0.5,0.8,1.1s-0.4,1.1-0.8,1.1s-0.8-0.4-0.8-1.1C464,252.9,464.4,252.4,464.8,252.4z"
			/>
		<path class="st2" d="M469.1,252.4c0.4,0,0.7,0.5,0.7,1.1s-0.4,1.1-0.7,1.1c-0.4,0-0.8-0.4-0.8-1.1
			C468.3,252.9,468.7,252.4,469.1,252.4z"/>
	</g>
	
		<linearGradient id="SVGID_4_" gradientUnits="userSpaceOnUse" x1="6149.1016" y1="1679.2025" x2="6243.0015" y2="1556.2323" gradientTransform="matrix(7.199757e-02 0 0 7.199757e-02 25.0561 143.6314)">
		<stop  offset="0" style="stop-color:#0CC7D4"/>
		<stop  offset="1" style="stop-color:#2ED5BF"/>
	</linearGradient>
	<polygon class="st12" points="475.8,253.9 466.9,256.9 465.8,261.8 466.9,265.8 475.8,262.8 475.8,262.1 475.8,255.1 	"/>
	<polygon class="st5" points="466.9,256.9 468.8,259.6 477.5,256.4 475.8,253.9 	"/>
	<rect x="455.7" y="261.6" class="st6" width="2.3" height="2.3"/>
	<rect x="454.2" y="260" class="st6" width="1.6" height="1.6"/>
	<polygon class="st7" points="458.1,253.9 466.9,256.9 466.9,258.1 466.9,265.2 466.9,265.8 460.2,263.5 460.2,262.1 460.9,262.1 
		460.9,260.6 459.5,260.6 459.5,261.4 458.1,261.4 458.1,255.1 	"/>
	<polygon class="st5" points="466.9,256.9 465,259.6 456.3,256.4 458.1,253.9 	"/>
</g>
<path class="st2" d="M391.7,472.7c24.9,0,45,20.2,45,45c0,13.5-6,25.7-15.4,33.9c0.8-15.2,0.4-34.6-6-44.9
	c5.4-5.8,2.7-18.3-0.3-18.8c-2.7-0.5-8.3,3-11.7,7.3c-7.4-4-15.5-4.1-24.1-0.1c-3.2-1-11.9-3.7-14.6-3.3c-3,0.5-2.7,9,2.7,14.8
	c-0.8,1.4-1.5,2.7-2,4.2c-2,5.4-3.1,12.5-3.7,20.2c-3.3,3.2-6.1,6.6-8.3,10c-4.1-6.8-6.6-14.8-6.6-23.4
	C346.7,492.9,366.9,472.7,391.7,472.7z M378.7,509.9c2.4,0,4.4,2.8,4.4,6.3s-2,6.3-4.4,6.3s-4.4-2.8-4.4-6.3
	S376.3,509.9,378.7,509.9z M403.3,509.9c2.4,0,4.4,2.8,4.4,6.3s-1.9,6.3-4.4,6.3c-2.4,0-4.3-2.8-4.3-6.3S401,509.9,403.3,509.9z"/>
<path class="st2" d="M471.5,531.2c6.5,0,11.7,5.2,11.7,11.7c0,3.5-1.6,6.7-4,8.8c0.2-3.9,0.1-8.9-1.6-11.7c1.4-1.5,0.7-4.8-0.1-4.9
	c-0.7-0.1-2.1,0.8-3,1.9c-1.9-1-4-1.1-6.3,0c-0.9-0.3-3.1-1-3.8-0.9c-0.7,0.1-0.6,2.3,0.7,3.8c-0.2,0.4-0.4,0.7-0.6,1.1
	c-0.5,1.4-0.8,3.3-0.9,5.3c-0.9,0.9-1.6,1.7-2.2,2.6c-1-1.7-1.7-3.8-1.7-6C459.8,536.4,465.1,531.2,471.5,531.2z M468.1,540.8
	c0.6,0,1.2,0.7,1.2,1.6c0,0.9-0.5,1.7-1.2,1.7s-1.2-0.7-1.2-1.7C467,541.6,467.5,540.8,468.1,540.8z M474.5,540.8
	c0.6,0,1.2,0.7,1.2,1.6c0,0.9-0.5,1.7-1.2,1.7s-1.2-0.7-1.2-1.7C473.4,541.6,473.9,540.8,474.5,540.8z"/>
</svg>
