<svg viewBox="0 0 230 52.33" xmlns="http://www.w3.org/2000/svg"><defs><linearGradient id="gradient" x1="6488.4" y1="-1794.97" x2="6760.85" y2="-1438.19" gradientTransform="matrix(.07 0 0 -.07 -427.62 -80.61)" gradientUnits="userSpaceOnUse"><stop offset="0" stop-color="#0cc7d4"/><stop offset="1" stop-color="#2ed5bf"/></linearGradient><style>.cls-3,.cls-4{fill-rule:evenodd}.cls-3{fill:#12eedf}.cls-4{fill:#0d0e59}</style></defs><path d="M94.5 12.73c1 0 2.2.4 3.1 1.1l2.5-5.2c-1.7-1.2-4.2-1.7-6.5-1.7-5 0-9.1 3-9.1 8.5v2.3h-3.3v5h3.3v18.8h7.1v-18.8h5.8v-5h-5.8v-2.1c0-1.9 1.3-2.9 2.9-2.9Zm11.8 8.4v-4.5h-7.1v24.8h7.1v-12c0-4.2 3.2-6.9 8.3-6.5v-6.7c-3.8.2-6.6 1.9-8.3 4.9Zm22.1-4.7c-8 0-13.3 5-13.3 12.6s5.3 12.7 13.3 12.7 13.3-5.1 13.3-12.7c.1-7.5-5.3-12.6-13.3-12.6Zm0 5.9c3.7 0 6.2 2.7 6.2 6.8s-2.5 6.8-6.2 6.8-6.2-2.7-6.2-6.7 2.6-6.9 6.2-6.9Zm33.4-5.7v12.2c0 3.6-2.1 6.3-5.5 6.3-2.9 0-4.7-1.9-4.7-5v-13.5h-7.1v15.6c0 5.8 3.5 9.5 9 9.5 3.7 0 6.6-1.5 8.3-4.7v4.4h7.1v-24.8h-7.1Zm20 4.5v-4.5h-7.1v24.8h7.1v-12c0-4.2 3.1-6.9 8.2-6.5v-6.7c-3.8.2-6.6 1.9-8.2 4.9Zm14.5-15.1c-2 0-3.5 1.5-3.5 3.6s1.4 3.5 3.5 3.5 3.5-1.5 3.5-3.5c-.1-2.1-1.5-3.6-3.5-3.6Zm-3.6 10.6v24.8h7.1v-24.8h-7.1Zm24-.2c-8 0-13.3 5-13.3 12.6s5.3 12.7 13.3 12.7 13.3-5.1 13.3-12.7-5.4-12.6-13.3-12.6Zm0 5.9c3.7 0 6.2 2.7 6.2 6.8s-2.5 6.8-6.2 6.8-6.2-2.8-6.2-6.8 2.5-6.8 6.2-6.8Z" style="fill:#0d0e59"/><path class="cls-4" d="m11.5 17.73 25.6-8.7 25.6 8.7-25.6 8.7-25.6-8.7z"/><path class="cls-4" d="M20 23.13c.3-3.3.8-6.8 1.9-9.9.1-.4.3-.6.4-1-.9-1.4-1.6-3-1.8-4.7-.3-2.2.4-5 3-5.4 1.7-.3 5.3.7 7.6 1.4 4-1.6 7.8-1.8 11.7-.3 1.9-1.8 4.6-3.5 6.9-3.2 3.4.6 4 5.9 3.6 8.6-.1 1.2-.4 2.4-1 3.5.1.4.4.7.4 1.1.8 2.2 1.3 4.5 1.6 6.7 1 3.7.9 8.6.6 12.3v.9h-41c1.1-3.9 3.3-7.1 6.1-10Z"/><path d="M16.5 33.03c.9-3.1 3-6 5.9-8.9.3-3.8.9-7.4 1.8-10.2.3-.7.6-1.4 1.1-2.1-2.7-3-2.9-7.2-1.4-7.5 1.4-.2 5.8 1.2 7.3 1.7 4.4-2 8.4-1.9 12.2 0 1.7-2.2 4.5-3.9 5.9-3.7 1.5.2 2.9 6.6.1 9.5.4.6.8 1.4 1.1 2.1.6 1.8 1.1 4 1.4 6.3 1.1 3.7.8 9.2.4 12.7h.1c0-.4.1-.9.1-1.4-.1.5-.2.9-.2 1.4H16.5v.1Z" style="fill-rule:evenodd;fill:#fff"/><path class="cls-4" d="M31 13.53c1.2 0 2.2 1.4 2.2 3.2s-.9 3.2-2.2 3.2-2.2-1.4-2.2-3.2 1-3.2 2.2-3.2Zm12.4 0c1.2 0 2.2 1.4 2.2 3.2s-1 3.2-2.2 3.2-2.2-1.4-2.2-3.2 1-3.2 2.2-3.2Z"/><path style="fill:url(#gradient)" d="m62.7 17.73-25.6 8.7-3.1 14.2 3.1 11.7 25.6-8.7v-25.9z"/><path class="cls-3" d="m37.1 26.43 5.4 7.7 25.3-9.1-5.1-7.3-25.6 8.7z"/><path d="M4.7 40.23h6.7v6.7H4.7zM0 35.33h4.8v4.8H0z" style="fill:#0edada"/><path style="fill:#0edbda;fill-rule:evenodd" d="m11.5 17.73 25.6 8.7v25.9l-19.5-6.7v-4.1h2.1v-4.3h-4.2v2.2h-4v-21.7z"/><path class="cls-3" d="m37.1 26.43-5.5 7.7-25.3-9.1 5.2-7.3 25.6 8.7z"/></svg>
